<?xml version="1.0" standalone="no"?>
<!DOCTYPE svg PUBLIC "-//W3C//DTD SVG 1.1//EN" "http://www.w3.org/Graphics/SVG/1.1/DTD/svg11.dtd" >
<svg xmlns="http://www.w3.org/2000/svg" xmlns:xlink="http://www.w3.org/1999/xlink" version="1.1">
<metadata>
Created by FontForge 20201107 at Mon May  5 09:26:41 2025
 By 
(C)2009 Kai Bernau and Commercial Type.
</metadata>
<defs>
<font id="LyonArabicText-Semibold" horiz-adv-x="1179" >
  <font-face 
    font-family="Lyon Arabic Text Semibold"
    font-weight="600"
    font-stretch="normal"
    units-per-em="2048"
    panose-1="2 0 5 4 8 0 0 2 0 4"
    ascent="1556"
    descent="-492"
    x-height="950"
    cap-height="1305"
    bbox="-358 -1096 2941 2179"
    underline-thickness="102"
    underline-position="-255"
    unicode-range="U+0020-FEFC"
  />
<missing-glyph horiz-adv-x="1024" 
d="M102 -492v2048h820v-2048h-820zM205 -389h614v1843h-614v-1843z" />
    <glyph glyph-name="f_f" unicode="ff" horiz-adv-x="1388" 
d="M702 0v90l117 33v715h-379v-715l121 -35v-88h-512v88l129 35v715h-137v92l139 43q22 196 167.5 327.5t336.5 131.5q96 0 168 -30.5t109 -80.5q69 72 156.5 113t180.5 41q124 0 203.5 -63t79.5 -142q0 -54 -32.5 -86.5t-98.5 -32.5q-17 0 -33 1.5t-23 3.5l-8 1l-55 193
q-54 18 -84 18q-168 0 -168 -264v-154h256v-112h-254v-715l179 -33v-90h-558zM819 965q0 77 27 163l-70 162q-67 41 -123 41q-218 0 -215 -368v-13h381v15z" />
    <glyph glyph-name="f_i" unicode="fi" horiz-adv-x="1261" 
d="M705 0v90l120 33v715h-385v-715l138 -33v-90h-529v90l129 33v715h-137v92l137 43q11 119 60.5 216t124.5 158t165 93.5t185 32.5q154 0 242.5 -61t88.5 -144q0 -53 -35.5 -85t-99.5 -32q-16 0 -32 1.5t-23 3.5l-8 1l-64 174q-17 17 -51 30t-74 13q-49 0 -86.5 -15.5
t-68 -52t-46.5 -104t-16 -164.5v-88h473l172 33v-860l134 -33v-90h-514z" />
    <glyph glyph-name="f_l" unicode="fl" horiz-adv-x="1275" 
d="M705 0v90l122 33v715h-387v-715l138 -33v-90h-529v90l129 33v715h-137v92l135 43q17 221 158.5 361.5t351.5 140.5q117 0 205 -50l199 41v-1343l143 -35v-88h-528zM629 1374q-97 0 -145.5 -71t-45.5 -246v-107h389v299q-79 125 -198 125z" />
    <glyph glyph-name="f_f_i" unicode="ffi" horiz-adv-x="1902" 
d="M1346 0v90l120 33v715h-385v-715l140 -33v-90h-525v90l123 33v715h-379v-715l121 -35v-88h-512v88l129 35v715h-137v92l139 43q22 196 167.5 327.5t336.5 131.5q99 0 172.5 -31.5t110.5 -83.5q76 75 180 115.5t209 40.5q154 0 242 -61t88 -144q0 -53 -36 -85t-100 -32
q-16 0 -32 1.5t-24 3.5l-7 1l-62 174q-18 16 -53.5 29.5t-77.5 13.5q-48 0 -84.5 -16.5t-67 -57t-46.5 -117t-15 -186.5v-47h482l166 33v-860l131 -33v-90h-514zM819 954q-3 86 27 174l-70 162q-67 41 -123 41q-218 0 -215 -368v-13h381v4z" />
    <glyph glyph-name="f_f_l" unicode="ffl" horiz-adv-x="1916" 
d="M1346 0v90l122 33v715h-387v-715l140 -33v-90h-519v88l117 35v715h-379v-715l121 -35v-88h-512v88l129 35v715h-137v92l139 43q22 196 167.5 327.5t336.5 131.5q95 0 167 -30t110 -79q70 72 162.5 112t193.5 40q124 0 215 -50l199 41v-1343l143 -35v-88h-528zM1270 1374
q-99 0 -145.5 -70t-45.5 -247v-107h389v299q-79 125 -198 125zM819 967q0 87 27 163l-70 160q-67 41 -123 41q-218 0 -215 -368v-13h381v17z" />
    <glyph glyph-name="uniFDF2" unicode="&#x627;&#xfedf;&#xfee0;&#xfeea;" horiz-adv-x="2545" arabic-form="isolated" 
d="M1217 2044l75 76h21v-283l-56 -80h-22zM1110 1382q-58 0 -89.5 37t-31.5 92q0 80 53 164l39 -14q-16 -50 -16 -80q0 -74 65 -74q33 0 52 25t32 74l27 94h43v-74q81 -53 150 -59q-13 45 -80 133l59 108h23q51 -90 51 -161q0 -108 -70 -193q-88 3 -162 59q-17 -63 -55 -97
t-90 -34zM360 141q-138 0 -214 68t-76 188q0 108 72.5 201t248.5 199l141 92l86 196h70l70 -591q15 -128 58.5 -174t154.5 -46q134 0 223 50q-8 73 -10 118l-29 645l115 242h69v-876q0 -100 54.5 -139.5t189.5 -39.5q102 0 186 33l-34 873q-64 91 -37 184.5t143 163.5h70
v-170l110 -139v-13l-110 -88v-682q0 -184 -70 -346q-65 -42 -136 -66t-175 -24q-148 0 -221.5 54.5t-102.5 185.5h-6q-14 -73 -39 -158q-104 -82 -243 -82t-211.5 80.5t-104.5 273.5h-4q-21 -97 -43 -166q-89 -47 -195 -47zM2198 1286l114 242h74v-1262l-68 -266h-75z
M170 487q0 -33 50 -52t140 -19q128 0 226 37l-43 254l-226 -93q-147 -63 -147 -127z" />
    <glyph glyph-name="uniFEF5" unicode="&#xfedf;&#xfe82;" horiz-adv-x="1118" arabic-form="isolated" 
d="M168 1292l39 230l12 6l273 -60q59 -12 87 -1t42 46l14 35l55 -16q-17 -130 -69 -174t-162 -21l-191 43l-47 -104zM188 274l148 97q182 122 276 204l-30 24t-27 22l-289 233h-196v340l67 39l420 -350q105 -86 182 -154q51 97 39 229l-14 220q-65 93 -38 186.5t142 163.5
h72v-170l111 -139v-13l-111 -86v-131q0 -107 -25 -189t-86 -159q76 -78 106 -138t30 -128q0 -72 -17 -160.5t-43 -157.5q-181 -57 -428 -57h-289v274zM528 274q196 0 344 31q-40 84 -176 201q-117 -97 -321 -230l-4 -2h157z" />
    <glyph glyph-name="uniFEF6" unicode="&#xfee0;&#xfe82;" horiz-adv-x="1218" arabic-form="final" 
d="M186 1305l39 229l13 6l272 -59q59 -12 87 -1t42 46l14 35l56 -17q-17 -129 -69.5 -173t-162.5 -21l-190 43l-47 -105zM90 76q364 135 514 233q-6 140 -57 238.5t-176 204.5l-117 102h-184v340l67 39l242 -221q171 -154 238.5 -296t66.5 -343q90 81 127 183t29 249
l-25 481l115 242h69v-1075q0 -100 48.5 -139.5t171.5 -39.5v-221l-52 -53q-171 0 -240 88.5t-77 302.5l-2 51h-4q-27 -112 -85.5 -228t-140.5 -214h-528v76z" />
    <glyph glyph-name="uniFEF7" unicode="&#xfedf;&#xfe84;" horiz-adv-x="1118" arabic-form="isolated" 
d="M211 1307l106 75q-65 54 -65 119q0 75 72 149t147 74q52 0 79.5 -26t27.5 -62q0 -54 -25 -94l-133 51q-40 -8 -71.5 -27.5t-31.5 -37.5q0 -36 81.5 -54t170.5 -6l66 11l6 -9l-27 -143l-403 -67v47zM188 274l148 97q182 122 276 204l-30 24t-27 22l-289 233h-196v340
l67 39l420 -350q105 -86 182 -154q51 97 39 229l-14 220q-65 93 -38 186.5t142 163.5h72v-170l111 -139v-13l-111 -86v-131q0 -107 -25 -189t-86 -159q76 -78 106 -138t30 -128q0 -72 -17 -160.5t-43 -157.5q-181 -57 -428 -57h-289v274zM528 274q196 0 344 31
q-40 84 -176 201q-117 -97 -321 -230l-4 -2h157z" />
    <glyph glyph-name="uniFEF8" unicode="&#xfee0;&#xfe84;" horiz-adv-x="1218" arabic-form="final" 
d="M231 1319l107 76q-66 55 -66 118q0 75 72.5 149.5t147.5 74.5q52 0 79 -26t27 -62q0 -55 -25 -95l-133 52q-40 -8 -71 -27.5t-31 -38.5q0 -36 81.5 -53.5t170.5 -5.5l65 10l7 -8l-27 -144l-404 -67v47zM90 76q364 135 514 233q-6 140 -57 238.5t-176 204.5l-117 102h-184
v340l67 39l242 -221q171 -154 238.5 -296t66.5 -343q90 81 127 183t29 249l-25 481l115 242h69v-1075q0 -100 48.5 -139.5t171.5 -39.5v-221l-52 -53q-171 0 -240 88.5t-77 302.5l-2 51h-4q-27 -112 -85.5 -228t-140.5 -214h-528v76z" />
    <glyph glyph-name="uniFEF9" unicode="&#xfedf;&#xfe88;" horiz-adv-x="1118" arabic-form="isolated" 
d="M188 274l148 97q182 122 276 204l-30 24t-27 22l-289 233h-196v340l67 39l420 -350q105 -86 182 -154q51 97 39 229l-14 220q-65 93 -38 186.5t142 163.5h72v-170l111 -139v-13l-111 -86v-131q0 -107 -25 -189t-86 -159q76 -78 106 -138t30 -128q0 -72 -17 -160.5
t-43 -157.5q-181 -57 -428 -57h-289v274zM528 274q196 0 344 31q-40 84 -176 201q-117 -97 -321 -230l-4 -2h157zM297 -504l106 76q-65 54 -65 119q0 75 72 149t147 74q52 0 79.5 -26t27.5 -62q0 -54 -25 -94l-133 51q-40 -8 -71.5 -27.5t-31.5 -38.5q0 -36 81.5 -53.5
t170.5 -5.5l66 10l6 -8l-27 -143l-403 -68v47z" />
    <glyph glyph-name="uniFEFA" unicode="&#xfee0;&#xfe88;" horiz-adv-x="1218" arabic-form="final" 
d="M90 76q364 135 514 233q-6 140 -57 238.5t-176 204.5l-117 102h-184v340l67 39l242 -221q171 -154 238.5 -296t66.5 -343q90 81 127 183t29 249l-25 481l115 242h69v-1075q0 -100 48.5 -139.5t171.5 -39.5v-221l-52 -53q-171 0 -240 88.5t-77 302.5l-2 51h-4
q-27 -112 -85.5 -228t-140.5 -214h-528v76zM293 -504l106 76q-65 54 -65 119q0 75 72 149t147 74q52 0 79 -26t27 -62q0 -56 -24 -94l-133 51q-40 -8 -71.5 -27.5t-31.5 -38.5q0 -36 81.5 -53.5t170.5 -5.5l66 10l6 -8l-27 -143l-403 -68v47z" />
    <glyph glyph-name="uniFEFB" unicode="&#xfedf;&#xfe8e;" horiz-adv-x="1118" arabic-form="isolated" 
d="M188 274l148 97q182 122 276 204l-30 24t-27 22l-289 233h-196v340l67 39l420 -350q105 -86 182 -154q51 97 39 229l-14 220q-65 93 -38 186.5t142 163.5h72v-170l111 -139v-13l-111 -86v-131q0 -107 -25 -189t-86 -159q76 -78 106 -138t30 -128q0 -72 -17 -160.5
t-43 -157.5q-181 -57 -428 -57h-289v274zM528 274q196 0 344 31q-40 84 -176 201q-117 -97 -321 -230l-4 -2h157z" />
    <glyph glyph-name="uniFEFC" unicode="&#xfee0;&#xfe8e;" horiz-adv-x="1218" arabic-form="final" 
d="M90 76q364 135 514 233q-6 140 -57 238.5t-176 204.5l-117 102h-184v340l67 39l242 -221q171 -154 238.5 -296t66.5 -343q90 81 127 183t29 249l-25 481l115 242h69v-1075q0 -100 48.5 -139.5t171.5 -39.5v-221l-52 -53q-171 0 -240 88.5t-77 302.5l-2 51h-4
q-27 -112 -85.5 -228t-140.5 -214h-528v76z" />
    <glyph glyph-name="f_b" unicode="fb" horiz-adv-x="1835" 
d="M49 0v90l129 33v715h-137v92l135 43q17 222 156 362t348 140q123 0 209 -52l201 43v-635q115 146 290 146q61 0 117 -15.5t107.5 -50.5t89 -86t60 -128t22.5 -171q0 -155 -85.5 -284t-222 -200t-288.5 -71q-76 0 -155 15t-130 37l-68 26v1200q-79 125 -198 125
q-92 0 -141.5 -71.5t-49.5 -245.5v-107h256v-121h-254v-706l160 -33v-90h-551zM1243 811q-76 0 -153 -53v-617q8 -8 22.5 -19t59.5 -29.5t90 -18.5q106 0 178.5 98t72.5 277q0 164 -74 263t-196 99z" />
    <glyph glyph-name="f_f_b" unicode="ffb" horiz-adv-x="2476" 
d="M705 90l114 33v715h-379v-715l121 -35v-88h-512v88l129 35v715h-137v92l139 43q22 196 167.5 327.5t336.5 131.5q96 0 168 -30.5t109 -80.5q145 154 360 154q120 0 211 -50l199 41v-635q46 58 118 102t172 44q78 0 146.5 -25.5t125.5 -77.5t90.5 -141.5t33.5 -206.5
q0 -155 -85.5 -284t-221.5 -200t-287 -71q-77 0 -156.5 15t-130.5 37l-68 26v1200q-79 125 -184 125q-48 0 -83 -16t-63.5 -55t-43 -110.5t-13.5 -176.5v-66h254v-112h-254v-715l160 -33v-90h-536v90zM819 950q3 90 31 172l-74 168q-67 41 -123 41q-218 0 -215 -368v-13h381
zM1884 811q-76 0 -153 -53v-617q8 -8 22.5 -19t59.5 -29.5t90 -18.5q106 0 178.5 98t72.5 277q0 164 -74 263t-196 99z" />
    <glyph glyph-name="f_f_h" unicode="ffh" horiz-adv-x="2519" 
d="M1352 0v88l116 35v1126q-79 125 -184 125q-48 0 -83 -16t-63.5 -55t-43 -110.5t-13.5 -176.5v-66h254v-112h-254v-715l129 -33v-90h-505v90l114 33v715h-379v-715l121 -35v-88h-512v88l129 35v715h-137v92l139 43q22 196 167.5 327.5t336.5 131.5q96 0 168 -30.5
t109 -80.5q145 154 360 154q120 0 211 -50l199 41v-651q145 168 317 168q155 0 229 -78t74 -252v-532l131 -33v-88h-500v90l107 31v475q-2 107 -45.5 161t-138.5 54q-91 0 -174 -66v-624l116 -33v-88h-495zM819 950q3 90 31 172l-74 168q-67 41 -123 41q-218 0 -215 -368
v-13h381z" />
    <glyph glyph-name="f_f_j" unicode="ffj" horiz-adv-x="1886" 
d="M819 123v715h-379v-715l121 -35v-88h-512v88l129 35v715h-137v92l139 43q22 196 167.5 327.5t336.5 131.5q99 0 172.5 -31.5t110.5 -83.5q76 75 180 115.5t209 40.5q154 0 242 -61t88 -144q0 -53 -36 -85t-100 -32q-16 0 -32 1.5t-24 3.5l-7 1l-62 174q-18 16 -53.5 29.5
t-77.5 13.5q-48 0 -84.5 -16.5t-67 -57t-46.5 -117t-15 -186.5v-47h475l173 33v-881q0 -233 -91 -385q-102 -169 -323 -202l-29 82q89 39 134.5 152t45.5 333v756h-385v-715l160 -33v-90h-545v90zM653 1331q-218 0 -215 -368v-13h381v4q-3 86 27 174l-70 162q-67 41 -123 41
z" />
    <glyph glyph-name="f_f_k" unicode="ffk" horiz-adv-x="2453" 
d="M1352 0v88l116 35v1126q-79 125 -184 125q-48 0 -83 -16t-63.5 -55t-43 -110.5t-13.5 -176.5v-66h254v-112h-254v-715l129 -33v-90h-505v90l114 33v715h-379v-715l121 -35v-88h-512v88l129 35v715h-137v92l139 43q22 196 167.5 327.5t336.5 131.5q96 0 168 -30.5
t109 -80.5q145 154 360 154q120 0 211 -50l199 41v-1345l116 -33v-88h-495zM819 950q3 90 31 172l-74 168q-67 41 -123 41q-218 0 -215 -368v-13h381zM2288 -35q-77 -1 -129 32t-111 116l-301 432v14l98 25l240 241l-158 41v84h486v-80l-142 -36l-274 -248l444 -555
q-1 -3 -4 -7t-15.5 -15.5t-28 -20t-44 -15.5t-61.5 -8z" />
    <glyph glyph-name="f_h" unicode="fh" horiz-adv-x="1878" 
d="M707 0v88l120 35v1126q-79 125 -198 125q-92 0 -141.5 -71.5t-49.5 -245.5v-107h256v-121h-254v-706l135 -33v-90h-526v90l129 33v715h-137v92l135 43q17 222 156 362t348 140q123 0 209 -52l201 43v-651q145 168 317 168q154 0 228.5 -78t74.5 -252v-532l133 -33v-88
h-504v90l109 31v475q-3 108 -46.5 161.5t-137.5 53.5q-91 0 -174 -66v-624l116 -33v-88h-499z" />
    <glyph glyph-name="f_j" unicode="fj" horiz-adv-x="1245" 
d="M674 -485l-29 82q89 39 134.5 152t45.5 333v756h-385v-715l160 -33v-90h-551v90l129 33v715h-137v92l137 43q11 119 60.5 216t124.5 158t165 93.5t185 32.5q154 0 242.5 -61t88.5 -144q0 -53 -35.5 -85t-99.5 -32q-16 0 -32 1.5t-23 3.5l-8 1l-64 174q-17 17 -51 30
t-74 13q-49 0 -86.5 -15.5t-68 -52t-46.5 -104t-16 -164.5v-88h473l172 33v-881q0 -238 -88 -385q-101 -167 -323 -202z" />
    <glyph glyph-name="f_k" unicode="fk" horiz-adv-x="1812" 
d="M707 0v88l120 35v1126q-79 125 -198 125q-92 0 -141.5 -71.5t-49.5 -245.5v-107h256v-121h-254v-706l135 -33v-90h-526v90l129 33v715h-137v92l135 43q17 222 156 362t348 140q123 0 209 -52l201 43v-1345l122 -33v-88h-505zM1647 -35q-77 -1 -130 32.5t-110 115.5
l-301 432v14l98 27l238 239l-156 41v84h486v-80l-144 -36l-274 -248l446 -555q-1 -3 -4 -7t-15.5 -15.5t-28 -20t-44 -15.5t-61.5 -8z" />
    <glyph glyph-name="uniFEDFFB51" unicode="&#xfedf;&#xfb51;" horiz-adv-x="1118" 
d="M156 1286l39 225l12 9l106 -23q65 106 120.5 151.5t119.5 45.5q59 0 101 -42.5t44 -101.5q0 -66 -41 -159q-112 -74 -307 -37l-94 18l-47 -102zM518 1569q-73 0 -139 -86q163 -32 254 4q-9 39 -41.5 60.5t-73.5 21.5zM188 274l148 97q182 122 276 204l-30 24t-27 22
l-289 233h-196v340l67 39l420 -350q105 -86 182 -154q51 97 39 229l-14 220q-65 93 -38 186.5t142 163.5h72v-170l111 -139v-13l-111 -86v-131q0 -107 -25 -189t-86 -159q76 -78 106 -138t30 -128q0 -72 -17 -160.5t-43 -157.5q-181 -57 -428 -57h-289v274zM528 274
q196 0 344 31q-40 84 -176 201q-117 -97 -321 -230l-4 -2h157z" />
    <glyph glyph-name="uniFD13.rlig" unicode="&#xfecc;&#xfef0;" horiz-adv-x="2013" 
d="M637 -547q-146 0 -254.5 41t-172 114t-94 165t-30.5 204q0 204 88 447l74 -23q-47 -161 -47 -282q0 -176 112.5 -273.5t350.5 -97.5q187 0 364 52t283 137q-53 56 -236 90l-211 34l-6 11l66 260q321 81 440 147q-75 86 -188 86l-31 66l69 188q146 84 289 84
q121 0 195 -53.5t74 -151.5q0 -111 -158 -247q99 -99 188.5 -138t210.5 -39v-221l-51 -53q-151 0 -263.5 79.5t-256.5 291.5q-104 -65 -236 -113q180 -59 180 -211q0 -178 -49 -332q-104 -115 -294.5 -188.5t-405.5 -73.5z" />
    <glyph glyph-name="uniFD14.rlig" unicode="&#xfecc;&#xfef2;" horiz-adv-x="2013" 
d="M637 -547q-146 0 -254.5 41t-172 114t-94 165t-30.5 204q0 204 88 447l74 -23q-47 -161 -47 -282q0 -176 112.5 -273.5t350.5 -97.5q187 0 364 52t283 137q-53 56 -236 90l-211 34l-6 11l66 260q321 81 440 147q-75 86 -188 86l-31 66l69 188q146 84 289 84
q121 0 195 -53.5t74 -151.5q0 -111 -158 -247q99 -99 188.5 -138t210.5 -39v-221l-51 -53q-151 0 -263.5 79.5t-256.5 291.5q-104 -65 -236 -113q180 -59 180 -211q0 -178 -49 -332q-104 -115 -294.5 -188.5t-405.5 -73.5zM436 -829l148 151h20l125 -125l121 125h20
l152 -151l-148 -150h-20l-125 123l-121 -123h-20z" />
    <glyph glyph-name="uniFECCFE8A.rlig" unicode="&#xfecc;&#xfe8a;" horiz-adv-x="2013" 
d="M33 588l106 76q-65 54 -65 118q0 75 72 149.5t147 74.5q52 0 79 -26t27 -62q0 -57 -24 -95l-133 51q-40 -8 -71.5 -27.5t-31.5 -37.5q0 -36 81.5 -53.5t170.5 -5.5l66 10l6 -8l-27 -144l-403 -67v47zM637 -547q-146 0 -254.5 41t-172 114t-94 165t-30.5 204q0 204 88 447
l74 -23q-47 -161 -47 -282q0 -176 112.5 -273.5t350.5 -97.5q187 0 364 52t283 137q-53 56 -236 90l-211 34l-6 11l66 260q321 81 440 147q-75 86 -188 86l-31 66l69 188q146 84 289 84q121 0 195 -53.5t74 -151.5q0 -111 -158 -247q99 -99 188.5 -138t210.5 -39v-221
l-51 -53q-151 0 -263.5 79.5t-256.5 291.5q-104 -65 -236 -113q180 -59 180 -211q0 -178 -49 -332q-104 -115 -294.5 -188.5t-405.5 -73.5z" />
    <glyph glyph-name="uniFC6E.rlig" unicode="&#xfe92;&#xfef0;" horiz-adv-x="1923" 
d="M629 -547q-143 0 -250 41t-169.5 114t-93 165.5t-30.5 203.5q0 204 88 447l74 -23q-47 -161 -47 -282q0 -176 113 -273.5t352 -97.5q186 0 361.5 64t266.5 153q-24 17 -71 29.5t-146 30.5l-143 26q-119 22 -172 75.5t-53 154.5q0 91 46 187.5t118 171.5t166.5 123
t185.5 48q104 0 188.5 -62t175.5 -210l58 -97q59 -94 119.5 -131t156.5 -37v-221l-51 -53q-131 0 -221 62t-185 217l-57 96q-59 96 -116 135t-144 39q-106 0 -210.5 -56.5t-104.5 -105.5q0 -26 30 -39.5t115 -28.5l143 -26q148 -27 202 -69t54 -140q0 -172 -49 -334
q-91 -122 -292.5 -209.5t-407.5 -87.5zM1233 -702l147 151h21l151 -151l-147 -150h-21z" />
    <glyph glyph-name="uniFE92FB8B.rlig" unicode="&#xfe92;&#xfb8b;" horiz-adv-x="1314" 
d="M238 1272l133 137h18l137 -137l-133 -135h-20zM96 1004l148 151h20l125 -125l121 125h20l152 -151l-147 -150h-21l-125 123l-121 -123h-20zM-102 -338v74q622 165 622 416q0 128 -227 321l100 229h72q120 -153 240 -153q69 0 118.5 50t94.5 181l26 78h70l55 -334
q26 -146 78 -198t168 -52v-221l-51 -53q-110 0 -175 37.5t-105.5 126.5t-70.5 258l-18 96q-28 -127 -85.5 -185.5t-143.5 -58.5q-24 0 -56 7q-3 -367 -305 -773zM723 -311l147 151h21l151 -151l-147 -150h-21z" />
    <glyph glyph-name="uniFC6D.rlig" unicode="&#xfe92;&#xfee6;" horiz-adv-x="1921" 
d="M557 -391q-223 0 -347 122.5t-124 340.5q0 181 82 399l65 -20q-34 -112 -34 -222q0 -161 98.5 -243t286.5 -82q143 0 274.5 46t226.5 126q-28 152 -186 397l100 229h70q122 -153 244 -153q71 0 117 48.5t92 182.5l26 78h72l55 -334q25 -145 77 -197.5t169 -52.5v-221
l-53 -53q-83 0 -137 19t-95.5 69t-67.5 128t-50 206l-17 96q-27 -128 -83 -186t-144 -58q-51 0 -103 25q7 -61 7 -102q0 -182 -54 -355q-103 -109 -253 -171t-314 -62zM408 588l147 151h20l152 -151l-147 -150h-21zM1389 -311l147 151h20l152 -151l-147 -150h-21z" />
    <glyph glyph-name="uniFC6A.rlig" unicode="&#xfe92;&#xfeae;" horiz-adv-x="1314" 
d="M-102 -338v74q622 165 622 416q0 128 -227 321l100 229h72q120 -153 240 -153q69 0 118.5 50t94.5 181l26 78h70l55 -334q26 -146 78 -198t168 -52v-221l-51 -53q-110 0 -175 37.5t-105.5 126.5t-70.5 258l-18 96q-28 -127 -85.5 -185.5t-143.5 -58.5q-24 0 -56 7
q-3 -367 -305 -773zM723 -311l147 151h21l151 -151l-147 -150h-21z" />
    <glyph glyph-name="uniFE92FB8D.rlig" unicode="&#xfe92;&#xfb8d;" horiz-adv-x="1314" 
d="M70 977v20h131q17 28 55 76l-20 195q-62 95 47 168h39v-70l43 -63v-3l-43 -28v-125q82 82 159 82q63 0 105.5 -43t42.5 -101q0 -64 -41 -157q-109 -51 -291 -51h-80zM449 1104q-91 0 -177 -107h33q158 0 260 31q-10 37 -42 56.5t-74 19.5zM-102 -338v74q622 165 622 416
q0 128 -227 321l100 229h72q120 -153 240 -153q69 0 118.5 50t94.5 181l26 78h70l55 -334q26 -146 78 -198t168 -52v-221l-51 -53q-110 0 -175 37.5t-105.5 126.5t-70.5 258l-18 96q-28 -127 -85.5 -185.5t-143.5 -58.5q-24 0 -56 7q-3 -367 -305 -773zM723 -311l147 151h21
l151 -151l-147 -150h-21z" />
    <glyph glyph-name="uniFC6F.rlig" unicode="&#xfe92;&#xfef2;" horiz-adv-x="1923" 
d="M629 -547q-143 0 -250 41t-169.5 114t-93 165.5t-30.5 203.5q0 204 88 447l74 -23q-47 -161 -47 -282q0 -176 113 -273.5t352 -97.5q186 0 361.5 64t266.5 153q-24 17 -71 29.5t-146 30.5l-143 26q-119 22 -172 75.5t-53 154.5q0 91 46 187.5t118 171.5t166.5 123
t185.5 48q104 0 188.5 -62t175.5 -210l58 -97q59 -94 119.5 -131t156.5 -37v-221l-51 -53q-131 0 -221 62t-185 217l-57 96q-59 96 -116 135t-144 39q-106 0 -210.5 -56.5t-104.5 -105.5q0 -26 30 -39.5t115 -28.5l143 -26q148 -27 202 -69t54 -140q0 -172 -49 -334
q-91 -122 -292.5 -209.5t-407.5 -87.5zM1233 -702l147 151h21l151 -151l-147 -150h-21zM446 -858l148 151h20l125 -124l121 124h21l151 -151l-147 -150h-21l-125 123l-121 -123h-20z" />
    <glyph glyph-name="uniFE92FE8A.rlig" unicode="&#xfe92;&#xfe8a;" horiz-adv-x="1923" 
d="M33 588l106 76q-65 54 -65 118q0 75 72 149.5t147 74.5q52 0 79 -26t27 -62q0 -57 -24 -95l-133 51q-40 -8 -71.5 -27.5t-31.5 -37.5q0 -36 81.5 -53.5t170.5 -5.5l66 10l6 -8l-27 -144l-403 -67v47zM629 -547q-143 0 -250 41t-169.5 114t-93 165.5t-30.5 203.5
q0 204 88 447l74 -23q-47 -161 -47 -282q0 -176 113 -273.5t352 -97.5q186 0 361.5 64t266.5 153q-24 17 -71 29.5t-146 30.5l-143 26q-119 22 -172 75.5t-53 154.5q0 91 46 187.5t118 171.5t166.5 123t185.5 48q104 0 188.5 -62t175.5 -210l58 -97q59 -94 119.5 -131
t156.5 -37v-221l-51 -53q-131 0 -221 62t-185 217l-57 96q-59 96 -116 135t-144 39q-106 0 -210.5 -56.5t-104.5 -105.5q0 -26 30 -39.5t115 -28.5l143 -26q148 -27 202 -69t54 -140q0 -172 -49 -334q-91 -122 -292.5 -209.5t-407.5 -87.5zM1233 -702l147 151h21l151 -151
l-147 -150h-21z" />
    <glyph glyph-name="uniFC6B.rlig" unicode="&#xfe92;&#xfeb0;" horiz-adv-x="1314" 
d="M223 1004l148 151h20l152 -151l-148 -150h-20zM-102 -338v74q622 165 622 416q0 128 -227 321l100 229h72q120 -153 240 -153q69 0 118.5 50t94.5 181l26 78h70l55 -334q26 -146 78 -198t168 -52v-221l-51 -53q-110 0 -175 37.5t-105.5 126.5t-70.5 258l-18 96
q-28 -127 -85.5 -185.5t-143.5 -58.5q-24 0 -56 7q-3 -367 -305 -773zM723 -311l147 151h21l151 -151l-147 -150h-21z" />
    <glyph glyph-name="uniFD23.rlig" unicode="&#xfec0;&#xfef0;" horiz-adv-x="2940" 
d="M2007 1159l147 152h21l152 -152l-148 -149h-20zM629 -547q-143 0 -250 41t-169.5 114t-93 165.5t-30.5 203.5q0 204 88 447l74 -23q-47 -161 -47 -282q0 -176 113 -273.5t352 -97.5q186 0 361.5 64t266.5 153q-24 17 -71 29.5t-146 30.5l-133 24q-126 23 -180.5 76.5
t-54.5 155.5q0 91 46 187.5t118 171.5t166.5 123t185.5 48q105 0 189 -62t175 -210l58 -97q58 -92 104 -133q206 294 365.5 421.5t318.5 127.5q151 0 253.5 -104.5t102.5 -249.5q0 -99 -36 -211q108 -19 186 -19v-229l-51 -45q-146 0 -299 84q-126 -56 -297.5 -87.5
t-349.5 -31.5q-77 0 -135.5 12t-103 33.5t-86.5 62.5t-75 86.5t-78 119.5l-57 96q-59 96 -116 135t-144 39q-106 0 -210.5 -56.5t-104.5 -105.5q0 -26 30 -39.5t115 -28.5l143 -26q148 -27 202 -69t54 -140q0 -172 -49 -334q-91 -122 -292.5 -209.5t-407.5 -87.5zM2337 584
q-135 0 -256 -74.5t-262 -243.5q56 -26 161 -26q191 0 384.5 33t330.5 89q-39 94 -143.5 158t-214.5 64z" />
    <glyph glyph-name="uniFEC0FB8B.rlig" unicode="&#xfec0;&#xfb8b;" horiz-adv-x="2328" 
d="M1395 1169l147 152h21l151 -152l-147 -149h-21zM356 1085l133 138h19l137 -138l-133 -135h-20zM215 817l147 152h21l125 -125l121 125h20l152 -152l-148 -149h-20l-125 123l-121 -123h-20zM-102 -338v74q622 165 622 438l-96 113l100 229l447 84l14 -6v-244
q49 -53 127 -76q219 319 383.5 455.5t327.5 136.5q152 0 254 -103.5t102 -248.5q0 -103 -39 -221q112 -19 189 -19v-229l-52 -45q-144 0 -299 84q-244 -119 -598 -119q-235 0 -358 75t-184 257l-228 -43q-16 -356 -305 -746zM1735 592q-139 0 -264 -78.5t-275 -259.5
q77 -14 201 -14q189 0 369.5 32.5t318.5 96.5q-38 95 -140 159t-210 64z" />
    <glyph glyph-name="uniFD2C.rlig" unicode="&#xfec0;&#xfeae;" horiz-adv-x="2328" 
d="M1395 1169l147 152h21l151 -152l-147 -149h-21zM-102 -338v74q622 165 622 438l-96 113l100 229l447 84l14 -6v-244q49 -53 127 -76q219 319 383.5 455.5t327.5 136.5q152 0 254 -103.5t102 -248.5q0 -103 -39 -221q112 -19 189 -19v-229l-52 -45q-144 0 -299 84
q-244 -119 -598 -119q-235 0 -358 75t-184 257l-228 -43q-16 -356 -305 -746zM1735 592q-139 0 -264 -78.5t-275 -259.5q77 -14 201 -14q189 0 369.5 32.5t318.5 96.5q-38 95 -140 159t-210 64z" />
    <glyph glyph-name="uniFEC0FB8D.rlig" unicode="&#xfec0;&#xfb8d;" horiz-adv-x="2328" 
d="M1395 1169l147 152h21l151 -152l-147 -149h-21zM188 791v20h131q13 21 56 76l-21 194q-62 95 47 168h39v-69l43 -64v-2l-43 -29v-124q81 81 160 81q63 0 105.5 -42.5t42.5 -100.5q0 -65 -41 -158q-109 -51 -291 -51h-80zM567 918q-47 0 -88.5 -25t-87.5 -82h33
q158 0 260 31q-10 37 -42.5 56.5t-74.5 19.5zM-102 -338v74q622 165 622 438l-96 113l100 229l447 84l14 -6v-244q49 -53 127 -76q219 319 383.5 455.5t327.5 136.5q152 0 254 -103.5t102 -248.5q0 -103 -39 -221q112 -19 189 -19v-229l-52 -45q-144 0 -299 84
q-244 -119 -598 -119q-235 0 -358 75t-184 257l-228 -43q-16 -356 -305 -746zM1735 592q-139 0 -264 -78.5t-275 -259.5q77 -14 201 -14q189 0 369.5 32.5t318.5 96.5q-38 95 -140 159t-210 64z" />
    <glyph glyph-name="uniFD24.rlig" unicode="&#xfec0;&#xfef2;" horiz-adv-x="2940" 
d="M2007 1159l147 152h21l152 -152l-148 -149h-20zM629 -547q-143 0 -250 41t-169.5 114t-93 165.5t-30.5 203.5q0 204 88 447l74 -23q-47 -161 -47 -282q0 -176 113 -273.5t352 -97.5q186 0 361.5 64t266.5 153q-24 17 -71 29.5t-146 30.5l-133 24q-126 23 -180.5 76.5
t-54.5 155.5q0 91 46 187.5t118 171.5t166.5 123t185.5 48q105 0 189 -62t175 -210l58 -97q58 -92 104 -133q206 294 365.5 421.5t318.5 127.5q151 0 253.5 -104.5t102.5 -249.5q0 -99 -36 -211q108 -19 186 -19v-229l-51 -45q-146 0 -299 84q-126 -56 -297.5 -87.5
t-349.5 -31.5q-77 0 -135.5 12t-103 33.5t-86.5 62.5t-75 86.5t-78 119.5l-57 96q-59 96 -116 135t-144 39q-106 0 -210.5 -56.5t-104.5 -105.5q0 -26 30 -39.5t115 -28.5l143 -26q148 -27 202 -69t54 -140q0 -172 -49 -334q-91 -122 -292.5 -209.5t-407.5 -87.5zM2337 584
q-135 0 -256 -74.5t-262 -243.5q56 -26 161 -26q191 0 384.5 33t330.5 89q-39 94 -143.5 158t-214.5 64zM446 -829l148 151h20l125 -125l121 125h21l151 -151l-147 -150h-21l-125 123l-121 -123h-20z" />
    <glyph glyph-name="uniFEC0FE8A.rlig" unicode="&#xfec0;&#xfe8a;" horiz-adv-x="2940" 
d="M2007 1159l147 152h21l152 -152l-148 -149h-20zM33 588l106 76q-65 54 -65 118q0 75 72 149.5t147 74.5q52 0 79 -26t27 -62q0 -57 -24 -95l-133 51q-40 -8 -71.5 -27.5t-31.5 -37.5q0 -36 81.5 -53.5t170.5 -5.5l66 10l6 -8l-27 -144l-403 -67v47zM629 -547
q-143 0 -250 41t-169.5 114t-93 165.5t-30.5 203.5q0 204 88 447l74 -23q-47 -161 -47 -282q0 -176 113 -273.5t352 -97.5q186 0 361.5 64t266.5 153q-24 17 -71 29.5t-146 30.5l-133 24q-126 23 -180.5 76.5t-54.5 155.5q0 91 46 187.5t118 171.5t166.5 123t185.5 48
q105 0 189 -62t175 -210l58 -97q58 -92 104 -133q206 294 365.5 421.5t318.5 127.5q151 0 253.5 -104.5t102.5 -249.5q0 -99 -36 -211q108 -19 186 -19v-229l-51 -45q-146 0 -299 84q-126 -56 -297.5 -87.5t-349.5 -31.5q-77 0 -135.5 12t-103 33.5t-86.5 62.5t-75 86.5
t-78 119.5l-57 96q-59 96 -116 135t-144 39q-106 0 -210.5 -56.5t-104.5 -105.5q0 -26 30 -39.5t115 -28.5l143 -26q148 -27 202 -69t54 -140q0 -172 -49 -334q-91 -122 -292.5 -209.5t-407.5 -87.5zM2337 584q-135 0 -256 -74.5t-262 -243.5q56 -26 161 -26q191 0 384.5 33
t330.5 89q-39 94 -143.5 158t-214.5 64z" />
    <glyph glyph-name="uniFEC0FEB0.rlig" unicode="&#xfec0;&#xfeb0;" horiz-adv-x="2328" 
d="M1395 1169l147 152h21l151 -152l-147 -149h-21zM342 817l147 152h21l152 -152l-148 -149h-20zM-102 -338v74q622 165 622 438l-96 113l100 229l447 84l14 -6v-244q49 -53 127 -76q219 319 383.5 455.5t327.5 136.5q152 0 254 -103.5t102 -248.5q0 -103 -39 -221
q112 -19 189 -19v-229l-52 -45q-144 0 -299 84q-244 -119 -598 -119q-235 0 -358 75t-184 257l-228 -43q-16 -356 -305 -746zM1735 592q-139 0 -264 -78.5t-275 -259.5q77 -14 201 -14q189 0 369.5 32.5t318.5 96.5q-38 95 -140 159t-210 64z" />
    <glyph glyph-name="uniFB95FEF0.rlig" unicode="&#xfb95;&#xfef0;" horiz-adv-x="2107" 
d="M1274 1350l72 145l663 274l43 -106l-770 -320zM616 -547q-139 0 -243 41t-165.5 114t-91.5 165.5t-30 203.5q0 204 88 447l74 -23q-47 -161 -47 -282q0 -175 110.5 -273t333.5 -98q185 0 372 51.5t292 134.5q-50 45 -234 60l-256 22l-6 11l68 272q386 22 592 109
q-90 128 -177 222.5t-243 235.5l157 328l883 367l27 -70l-113 -178l-752 -309q123 -114 219 -224t205 -264q72 -101 128.5 -151t124.5 -70.5t175 -20.5v-221l-51 -53q-183 0 -291 69t-249 275h-7q-17 -86 -30 -123q-65 -38 -160 -65q67 -36 67 -109q0 -178 -49 -332
q-96 -107 -297 -184.5t-424 -77.5z" />
    <glyph glyph-name="uniFB95FEF2.rlig" unicode="&#xfb95;&#xfef2;" horiz-adv-x="2107" 
d="M1274 1350l72 145l663 274l43 -106l-770 -320zM616 -547q-139 0 -243 41t-165.5 114t-91.5 165.5t-30 203.5q0 204 88 447l74 -23q-47 -161 -47 -282q0 -175 110.5 -273t333.5 -98q185 0 372 51.5t292 134.5q-50 45 -234 60l-256 22l-6 11l68 272q386 22 592 109
q-90 128 -177 222.5t-243 235.5l157 328l883 367l27 -70l-113 -178l-752 -309q123 -114 219 -224t205 -264q72 -101 128.5 -151t124.5 -70.5t175 -20.5v-221l-51 -53q-183 0 -291 69t-249 275h-7q-17 -86 -30 -123q-65 -38 -160 -65q67 -36 67 -109q0 -178 -49 -332
q-96 -107 -297 -184.5t-424 -77.5zM446 -829l148 151h20l125 -125l121 125h21l151 -151l-147 -150h-21l-125 123l-121 -123h-20z" />
    <glyph glyph-name="uniFB95FE8A.rlig" unicode="&#xfb95;&#xfe8a;" horiz-adv-x="2107" 
d="M1274 1350l72 145l663 274l43 -106l-770 -320zM616 -547q-139 0 -243 41t-165.5 114t-91.5 165.5t-30 203.5q0 204 88 447l74 -23q-47 -161 -47 -282q0 -175 110.5 -273t333.5 -98q185 0 372 51.5t292 134.5q-50 45 -234 60l-256 22l-6 11l68 272q386 22 592 109
q-90 128 -177 222.5t-243 235.5l157 328l883 367l27 -70l-113 -178l-752 -309q123 -114 219 -224t205 -264q72 -101 128.5 -151t124.5 -70.5t175 -20.5v-221l-51 -53q-183 0 -291 69t-249 275h-7q-17 -86 -30 -123q-65 -38 -160 -65q67 -36 67 -109q0 -178 -49 -332
q-96 -107 -297 -184.5t-424 -77.5zM33 588l106 76q-65 54 -65 118q0 75 72 149.5t147 74.5q52 0 79 -26t27 -62q0 -57 -24 -95l-133 51q-40 -8 -71.5 -27.5t-31.5 -37.5q0 -36 81.5 -53.5t170.5 -5.5l66 10l6 -8l-27 -144l-403 -67v47z" />
    <glyph glyph-name="uniFD15.rlig" unicode="&#xfed0;&#xfef0;" horiz-adv-x="2013" 
d="M1305 1204l147 152h21l151 -152l-147 -149h-21zM637 -547q-146 0 -254.5 41t-172 114t-94 165t-30.5 204q0 204 88 447l74 -23q-47 -161 -47 -282q0 -176 112.5 -273.5t350.5 -97.5q187 0 364 52t283 137q-53 56 -236 90l-211 34l-6 11l66 260q321 81 440 147
q-75 86 -188 86l-31 66l69 188q146 84 289 84q121 0 195 -53.5t74 -151.5q0 -111 -158 -247q99 -99 188.5 -138t210.5 -39v-221l-51 -53q-151 0 -263.5 79.5t-256.5 291.5q-104 -65 -236 -113q180 -59 180 -211q0 -178 -49 -332q-104 -115 -294.5 -188.5t-405.5 -73.5z" />
    <glyph glyph-name="uniFD16.rlig" unicode="&#xfed0;&#xfef2;" horiz-adv-x="2013" 
d="M1305 1204l147 152h21l151 -152l-147 -149h-21zM637 -547q-146 0 -254.5 41t-172 114t-94 165t-30.5 204q0 204 88 447l74 -23q-47 -161 -47 -282q0 -176 112.5 -273.5t350.5 -97.5q187 0 364 52t283 137q-53 56 -236 90l-211 34l-6 11l66 260q321 81 440 147
q-75 86 -188 86l-31 66l69 188q146 84 289 84q121 0 195 -53.5t74 -151.5q0 -111 -158 -247q99 -99 188.5 -138t210.5 -39v-221l-51 -53q-151 0 -263.5 79.5t-256.5 291.5q-104 -65 -236 -113q180 -59 180 -211q0 -178 -49 -332q-104 -115 -294.5 -188.5t-405.5 -73.5z
M436 -829l148 151h20l125 -125l121 125h20l152 -151l-148 -150h-20l-125 123l-121 -123h-20z" />
    <glyph glyph-name="uniFED0FE8A.rlig" unicode="&#xfed0;&#xfe8a;" horiz-adv-x="2013" 
d="M1305 1204l147 152h21l151 -152l-147 -149h-21zM33 588l106 76q-65 54 -65 118q0 75 72 149.5t147 74.5q52 0 79 -26t27 -62q0 -57 -24 -95l-133 51q-40 -8 -71.5 -27.5t-31.5 -37.5q0 -36 81.5 -53.5t170.5 -5.5l66 10l6 -8l-27 -144l-403 -67v47zM637 -547
q-146 0 -254.5 41t-172 114t-94 165t-30.5 204q0 204 88 447l74 -23q-47 -161 -47 -282q0 -176 112.5 -273.5t350.5 -97.5q187 0 364 52t283 137q-53 56 -236 90l-211 34l-6 11l66 260q321 81 440 147q-75 86 -188 86l-31 66l69 188q146 84 289 84q121 0 195 -53.5
t74 -151.5q0 -111 -158 -247q99 -99 188.5 -138t210.5 -39v-221l-51 -53q-151 0 -263.5 79.5t-256.5 291.5q-104 -65 -236 -113q180 -59 180 -211q0 -178 -49 -332q-104 -115 -294.5 -188.5t-405.5 -73.5z" />
    <glyph glyph-name="uniFD1B.rlig" unicode="&#xfea4;&#xfef0;" horiz-adv-x="2099" 
d="M629 -547q-143 0 -250 41t-169.5 114t-93 165.5t-30.5 203.5q0 204 88 447l74 -23q-47 -161 -47 -282q0 -175 112 -273t344 -98q176 0 363.5 55t290.5 134q-60 57 -246 90l-211 34l-4 11l61 250q355 105 707 157q-63 11 -234 58q-237 69 -294 69q-60 0 -88.5 -29
t-34.5 -98h-78q-6 73 -6 131q0 131 54 195.5t155 64.5q55 0 127.5 -18.5t255.5 -77.5q204 -67 292 -88.5t187 -21.5h84l6 -9l-72 -239q-83 -6 -176 -21q28 -66 98.5 -93.5t210.5 -27.5v-221l-53 -53q-175 0 -254.5 85t-99.5 292q-245 -51 -492 -137q180 -58 180 -193
q0 -178 -49 -332q-96 -107 -294.5 -184.5t-413.5 -77.5z" />
    <glyph glyph-name="uniFD1C.rlig" unicode="&#xfea4;&#xfef2;" horiz-adv-x="2099" 
d="M629 -547q-143 0 -250 41t-169.5 114t-93 165.5t-30.5 203.5q0 204 88 447l74 -23q-47 -161 -47 -282q0 -175 112 -273t344 -98q176 0 363.5 55t290.5 134q-60 57 -246 90l-211 34l-4 11l61 250q355 105 707 157q-63 11 -234 58q-237 69 -294 69q-60 0 -88.5 -29
t-34.5 -98h-78q-6 73 -6 131q0 131 54 195.5t155 64.5q55 0 127.5 -18.5t255.5 -77.5q204 -67 292 -88.5t187 -21.5h84l6 -9l-72 -239q-83 -6 -176 -21q28 -66 98.5 -93.5t210.5 -27.5v-221l-53 -53q-175 0 -254.5 85t-99.5 292q-245 -51 -492 -137q180 -58 180 -193
q0 -178 -49 -332q-96 -107 -294.5 -184.5t-413.5 -77.5zM436 -829l148 151h20l125 -125l121 125h20l152 -151l-148 -150h-20l-125 123l-121 -123h-20z" />
    <glyph glyph-name="uniFEA4FE8A.rlig" unicode="&#xfea4;&#xfe8a;" horiz-adv-x="2099" 
d="M33 588l106 76q-65 54 -65 118q0 75 72 149.5t147 74.5q52 0 79 -26t27 -62q0 -57 -24 -95l-133 51q-40 -8 -71.5 -27.5t-31.5 -37.5q0 -36 81.5 -53.5t170.5 -5.5l66 10l6 -8l-27 -144l-403 -67v47zM629 -547q-143 0 -250 41t-169.5 114t-93 165.5t-30.5 203.5
q0 204 88 447l74 -23q-47 -161 -47 -282q0 -175 112 -273t344 -98q176 0 363.5 55t290.5 134q-60 57 -246 90l-211 34l-4 11l61 250q355 105 707 157q-63 11 -234 58q-237 69 -294 69q-60 0 -88.5 -29t-34.5 -98h-78q-6 73 -6 131q0 131 54 195.5t155 64.5q55 0 127.5 -18.5
t255.5 -77.5q204 -67 292 -88.5t187 -21.5h84l6 -9l-72 -239q-83 -6 -176 -21q28 -66 98.5 -93.5t210.5 -27.5v-221l-53 -53q-175 0 -254.5 85t-99.5 292q-245 -51 -492 -137q180 -58 180 -193q0 -178 -49 -332q-96 -107 -294.5 -184.5t-413.5 -77.5z" />
    <glyph glyph-name="uniFD1D.rlig" unicode="&#xfea0;&#xfef0;" horiz-adv-x="2099" 
d="M629 -547q-143 0 -250 41t-169.5 114t-93 165.5t-30.5 203.5q0 204 88 447l74 -23q-47 -161 -47 -282q0 -175 112 -273t344 -98q176 0 363.5 55t290.5 134q-60 57 -246 90l-211 34l-4 11l61 250q355 105 707 157q-63 11 -234 58q-237 69 -294 69q-60 0 -88.5 -29
t-34.5 -98h-78q-6 73 -6 131q0 131 54 195.5t155 64.5q55 0 127.5 -18.5t255.5 -77.5q204 -67 292 -88.5t187 -21.5h84l6 -9l-72 -239q-83 -6 -176 -21q28 -66 98.5 -93.5t210.5 -27.5v-221l-53 -53q-175 0 -254.5 85t-99.5 292q-245 -51 -492 -137q180 -58 180 -193
q0 -178 -49 -332q-96 -107 -294.5 -184.5t-413.5 -77.5zM1565 -311l147 151h21l151 -151l-147 -150h-21z" />
    <glyph glyph-name="uniFD1E.rlig" unicode="&#xfea0;&#xfef2;" horiz-adv-x="2099" 
d="M629 -547q-143 0 -250 41t-169.5 114t-93 165.5t-30.5 203.5q0 204 88 447l74 -23q-47 -161 -47 -282q0 -175 112 -273t344 -98q176 0 363.5 55t290.5 134q-60 57 -246 90l-211 34l-4 11l61 250q355 105 707 157q-63 11 -234 58q-237 69 -294 69q-60 0 -88.5 -29
t-34.5 -98h-78q-6 73 -6 131q0 131 54 195.5t155 64.5q55 0 127.5 -18.5t255.5 -77.5q204 -67 292 -88.5t187 -21.5h84l6 -9l-72 -239q-83 -6 -176 -21q28 -66 98.5 -93.5t210.5 -27.5v-221l-53 -53q-175 0 -254.5 85t-99.5 292q-245 -51 -492 -137q180 -58 180 -193
q0 -178 -49 -332q-96 -107 -294.5 -184.5t-413.5 -77.5zM1565 -311l147 151h21l151 -151l-147 -150h-21zM436 -829l148 151h20l125 -125l121 125h20l152 -151l-148 -150h-20l-125 123l-121 -123h-20z" />
    <glyph glyph-name="uniFEA0FE8A.rlig" unicode="&#xfea0;&#xfe8a;" horiz-adv-x="2099" 
d="M33 588l106 76q-65 54 -65 118q0 75 72 149.5t147 74.5q52 0 79 -26t27 -62q0 -57 -24 -95l-133 51q-40 -8 -71.5 -27.5t-31.5 -37.5q0 -36 81.5 -53.5t170.5 -5.5l66 10l6 -8l-27 -144l-403 -67v47zM629 -547q-143 0 -250 41t-169.5 114t-93 165.5t-30.5 203.5
q0 204 88 447l74 -23q-47 -161 -47 -282q0 -175 112 -273t344 -98q176 0 363.5 55t290.5 134q-60 57 -246 90l-211 34l-4 11l61 250q355 105 707 157q-63 11 -234 58q-237 69 -294 69q-60 0 -88.5 -29t-34.5 -98h-78q-6 73 -6 131q0 131 54 195.5t155 64.5q55 0 127.5 -18.5
t255.5 -77.5q204 -67 292 -88.5t187 -21.5h84l6 -9l-72 -239q-83 -6 -176 -21q28 -66 98.5 -93.5t210.5 -27.5v-221l-53 -53q-175 0 -254.5 85t-99.5 292q-245 -51 -492 -137q180 -58 180 -193q0 -178 -49 -332q-96 -107 -294.5 -184.5t-413.5 -77.5zM1565 -311l147 151h21
l151 -151l-147 -150h-21z" />
    <glyph glyph-name="uniFC83.rlig" unicode="&#xfb91;&#xfef0;" horiz-adv-x="2107" 
d="M616 -547q-139 0 -243 41t-165.5 114t-91.5 165.5t-30 203.5q0 204 88 447l74 -23q-47 -161 -47 -282q0 -175 110.5 -273t333.5 -98q185 0 372 51.5t292 134.5q-50 45 -234 60l-256 22l-6 11l68 272q386 22 592 109q-90 128 -177 222.5t-243 235.5l157 328l883 367
l27 -70l-113 -178l-752 -309q123 -114 219 -224t205 -264q72 -101 128.5 -151t124.5 -70.5t175 -20.5v-221l-51 -53q-183 0 -291 69t-249 275h-7q-17 -86 -30 -123q-65 -38 -160 -65q67 -36 67 -109q0 -178 -49 -332q-96 -107 -297 -184.5t-424 -77.5z" />
    <glyph glyph-name="uniFC84.rlig" unicode="&#xfb91;&#xfef2;" horiz-adv-x="2107" 
d="M616 -547q-139 0 -243 41t-165.5 114t-91.5 165.5t-30 203.5q0 204 88 447l74 -23q-47 -161 -47 -282q0 -175 110.5 -273t333.5 -98q185 0 372 51.5t292 134.5q-50 45 -234 60l-256 22l-6 11l68 272q386 22 592 109q-90 128 -177 222.5t-243 235.5l157 328l883 367
l27 -70l-113 -178l-752 -309q123 -114 219 -224t205 -264q72 -101 128.5 -151t124.5 -70.5t175 -20.5v-221l-51 -53q-183 0 -291 69t-249 275h-7q-17 -86 -30 -123q-65 -38 -160 -65q67 -36 67 -109q0 -178 -49 -332q-96 -107 -297 -184.5t-424 -77.5zM446 -829l148 151h20
l125 -125l121 125h21l151 -151l-147 -150h-21l-125 123l-121 -123h-20z" />
    <glyph glyph-name="uniFEDCFE8A.rlig" unicode="&#xfb91;&#xfe8a;" horiz-adv-x="2107" 
d="M616 -547q-139 0 -243 41t-165.5 114t-91.5 165.5t-30 203.5q0 204 88 447l74 -23q-47 -161 -47 -282q0 -175 110.5 -273t333.5 -98q185 0 372 51.5t292 134.5q-50 45 -234 60l-256 22l-6 11l68 272q386 22 592 109q-90 128 -177 222.5t-243 235.5l157 328l883 367
l27 -70l-113 -178l-752 -309q123 -114 219 -224t205 -264q72 -101 128.5 -151t124.5 -70.5t175 -20.5v-221l-51 -53q-183 0 -291 69t-249 275h-7q-17 -86 -30 -123q-65 -38 -160 -65q67 -36 67 -109q0 -178 -49 -332q-96 -107 -297 -184.5t-424 -77.5zM33 588l106 76
q-65 54 -65 118q0 75 72 149.5t147 74.5q52 0 79 -26t27 -62q0 -57 -24 -95l-133 51q-40 -8 -71.5 -27.5t-31.5 -37.5q0 -36 81.5 -53.5t170.5 -5.5l66 10l6 -8l-27 -144l-403 -67v47z" />
    <glyph glyph-name="uniFD1F.rlig" unicode="&#xfea8;&#xfef0;" horiz-adv-x="2099" 
d="M1231 1169l147 152h21l151 -152l-147 -149h-21zM629 -547q-143 0 -250 41t-169.5 114t-93 165.5t-30.5 203.5q0 204 88 447l74 -23q-47 -161 -47 -282q0 -175 112 -273t344 -98q176 0 363.5 55t290.5 134q-60 57 -246 90l-211 34l-4 11l61 250q355 105 707 157
q-63 11 -234 58q-237 69 -294 69q-60 0 -88.5 -29t-34.5 -98h-78q-6 73 -6 131q0 131 54 195.5t155 64.5q55 0 127.5 -18.5t255.5 -77.5q204 -67 292 -88.5t187 -21.5h84l6 -9l-72 -239q-83 -6 -176 -21q28 -66 98.5 -93.5t210.5 -27.5v-221l-53 -53q-175 0 -254.5 85
t-99.5 292q-245 -51 -492 -137q180 -58 180 -193q0 -178 -49 -332q-96 -107 -294.5 -184.5t-413.5 -77.5z" />
    <glyph glyph-name="uniFD20.rlig" unicode="&#xfea8;&#xfef2;" horiz-adv-x="2099" 
d="M1231 1169l147 152h21l151 -152l-147 -149h-21zM629 -547q-143 0 -250 41t-169.5 114t-93 165.5t-30.5 203.5q0 204 88 447l74 -23q-47 -161 -47 -282q0 -175 112 -273t344 -98q176 0 363.5 55t290.5 134q-60 57 -246 90l-211 34l-4 11l61 250q355 105 707 157
q-63 11 -234 58q-237 69 -294 69q-60 0 -88.5 -29t-34.5 -98h-78q-6 73 -6 131q0 131 54 195.5t155 64.5q55 0 127.5 -18.5t255.5 -77.5q204 -67 292 -88.5t187 -21.5h84l6 -9l-72 -239q-83 -6 -176 -21q28 -66 98.5 -93.5t210.5 -27.5v-221l-53 -53q-175 0 -254.5 85
t-99.5 292q-245 -51 -492 -137q180 -58 180 -193q0 -178 -49 -332q-96 -107 -294.5 -184.5t-413.5 -77.5zM436 -829l148 151h20l125 -125l121 125h20l152 -151l-148 -150h-20l-125 123l-121 -123h-20z" />
    <glyph glyph-name="uniFEA8FE8A.rlig" unicode="&#xfea8;&#xfe8a;" horiz-adv-x="2099" 
d="M1231 1169l147 152h21l151 -152l-147 -149h-21zM33 588l106 76q-65 54 -65 118q0 75 72 149.5t147 74.5q52 0 79 -26t27 -62q0 -57 -24 -95l-133 51q-40 -8 -71.5 -27.5t-31.5 -37.5q0 -36 81.5 -53.5t170.5 -5.5l66 10l6 -8l-27 -144l-403 -67v47zM629 -547
q-143 0 -250 41t-169.5 114t-93 165.5t-30.5 203.5q0 204 88 447l74 -23q-47 -161 -47 -282q0 -175 112 -273t344 -98q176 0 363.5 55t290.5 134q-60 57 -246 90l-211 34l-4 11l61 250q355 105 707 157q-63 11 -234 58q-237 69 -294 69q-60 0 -88.5 -29t-34.5 -98h-78
q-6 73 -6 131q0 131 54 195.5t155 64.5q55 0 127.5 -18.5t255.5 -77.5q204 -67 292 -88.5t187 -21.5h84l6 -9l-72 -239q-83 -6 -176 -21q28 -66 98.5 -93.5t210.5 -27.5v-221l-53 -53q-175 0 -254.5 85t-99.5 292q-245 -51 -492 -137q180 -58 180 -193q0 -178 -49 -332
q-96 -107 -294.5 -184.5t-413.5 -77.5z" />
    <glyph glyph-name="uniFC86.rlig" unicode="&#xfee0;&#xfef0;" horiz-adv-x="1892" 
d="M627 -547q-142 0 -248.5 41t-169 114t-93 165.5t-30.5 203.5q0 204 88 447l74 -23q-47 -161 -47 -282q0 -176 111 -273.5t341 -97.5q195 0 370.5 49.5t287.5 139.5q-54 56 -236 90l-272 47l-6 10l65 262q233 0 386 31.5t265 97.5l-26 811l115 242h69v-1075
q0 -100 49 -139.5t172 -39.5v-221l-53 -53q-165 0 -235.5 86t-85.5 301h-5q-24 -88 -34 -113q-105 -52 -215 -75q66 -24 94 -59.5t28 -92.5q0 -178 -49 -332q-104 -116 -296 -189t-414 -73z" />
    <glyph glyph-name="uniFC87.rlig" unicode="&#xfee0;&#xfef2;" horiz-adv-x="1892" 
d="M627 -547q-142 0 -248.5 41t-169 114t-93 165.5t-30.5 203.5q0 204 88 447l74 -23q-47 -161 -47 -282q0 -176 111 -273.5t341 -97.5q195 0 370.5 49.5t287.5 139.5q-54 56 -236 90l-272 47l-6 10l65 262q233 0 386 31.5t265 97.5l-26 811l115 242h69v-1075
q0 -100 49 -139.5t172 -39.5v-221l-53 -53q-165 0 -235.5 86t-85.5 301h-5q-24 -88 -34 -113q-105 -52 -215 -75q66 -24 94 -59.5t28 -92.5q0 -178 -49 -332q-104 -116 -296 -189t-414 -73zM446 -829l148 151h20l125 -125l121 125h21l151 -151l-147 -150h-21l-125 123
l-121 -123h-20z" />
    <glyph glyph-name="uniFEE0FE8A.rlig" unicode="&#xfee0;&#xfe8a;" horiz-adv-x="1892" 
d="M627 -547q-142 0 -248.5 41t-169 114t-93 165.5t-30.5 203.5q0 204 88 447l74 -23q-47 -161 -47 -282q0 -176 111 -273.5t341 -97.5q195 0 370.5 49.5t287.5 139.5q-54 56 -236 90l-272 47l-6 10l65 262q233 0 386 31.5t265 97.5l-26 811l115 242h69v-1075
q0 -100 49 -139.5t172 -39.5v-221l-53 -53q-165 0 -235.5 86t-85.5 301h-5q-24 -88 -34 -113q-105 -52 -215 -75q66 -24 94 -59.5t28 -92.5q0 -178 -49 -332q-104 -116 -296 -189t-414 -73zM33 588l106 76q-65 54 -65 118q0 75 72 149.5t147 74.5q52 0 79 -26t27 -62
q0 -57 -24 -95l-133 51q-40 -8 -71.5 -27.5t-31.5 -37.5q0 -36 81.5 -53.5t170.5 -5.5l66 10l6 -8l-27 -144l-403 -67v47z" />
    <glyph glyph-name="uniFC8E.rlig" unicode="&#xfee8;&#xfef0;" horiz-adv-x="1923" 
d="M1067 1112l147 152h21l151 -152l-147 -149h-20zM629 -547q-143 0 -250 41t-169.5 114t-93 165.5t-30.5 203.5q0 204 88 447l74 -23q-47 -161 -47 -282q0 -176 113 -273.5t352 -97.5q186 0 361.5 64t266.5 153q-24 17 -71 29.5t-146 30.5l-143 26q-119 22 -172 75.5
t-53 154.5q0 91 46 187.5t118 171.5t166.5 123t185.5 48q104 0 188.5 -62t175.5 -210l58 -97q59 -94 119.5 -131t156.5 -37v-221l-51 -53q-131 0 -221 62t-185 217l-57 96q-59 96 -116 135t-144 39q-106 0 -210.5 -56.5t-104.5 -105.5q0 -26 30 -39.5t115 -28.5l143 -26
q148 -27 202 -69t54 -140q0 -172 -49 -334q-91 -122 -292.5 -209.5t-407.5 -87.5z" />
    <glyph glyph-name="uniFEE8FB8B.rlig" unicode="&#xfee8;&#xfb8b;" horiz-adv-x="1314" 
d="M238 1272l133 137h18l137 -137l-133 -135h-20zM807 1159l147 152h21l151 -152l-147 -149h-21zM96 1004l148 151h20l125 -125l121 125h20l152 -151l-147 -150h-21l-125 123l-121 -123h-20zM-102 -338v74q622 165 622 416q0 128 -227 321l100 229h72q120 -153 240 -153
q69 0 118.5 50t94.5 181l26 78h70l55 -334q26 -146 78 -198t168 -52v-221l-51 -53q-110 0 -175 37.5t-105.5 126.5t-70.5 258l-18 96q-28 -127 -85.5 -185.5t-143.5 -58.5q-24 0 -56 7q-3 -367 -305 -773z" />
    <glyph glyph-name="uniFC8D.rlig" unicode="&#xfee8;&#xfee6;" horiz-adv-x="1921" 
d="M1389 1159l147 152h20l152 -152l-147 -149h-21zM557 -391q-223 0 -347 122.5t-124 340.5q0 181 82 399l65 -20q-34 -112 -34 -222q0 -161 98.5 -243t286.5 -82q143 0 274.5 46t226.5 126q-28 152 -186 397l100 229h70q122 -153 244 -153q71 0 117 48.5t92 182.5l26 78h72
l55 -334q25 -145 77 -197.5t169 -52.5v-221l-53 -53q-83 0 -137 19t-95.5 69t-67.5 128t-50 206l-17 96q-27 -128 -83 -186t-144 -58q-51 0 -103 25q7 -61 7 -102q0 -182 -54 -355q-103 -109 -253 -171t-314 -62zM408 588l147 151h20l152 -151l-147 -150h-21z" />
    <glyph glyph-name="uniFC8A.rlig" unicode="&#xfee8;&#xfeae;" horiz-adv-x="1314" 
d="M807 1159l147 152h21l151 -152l-147 -149h-21zM-102 -338v74q622 165 622 416q0 128 -227 321l100 229h72q120 -153 240 -153q69 0 118.5 50t94.5 181l26 78h70l55 -334q26 -146 78 -198t168 -52v-221l-51 -53q-110 0 -175 37.5t-105.5 126.5t-70.5 258l-18 96
q-28 -127 -85.5 -185.5t-143.5 -58.5q-24 0 -56 7q-3 -367 -305 -773z" />
    <glyph glyph-name="uniFEE8FB8D.rlig" unicode="&#xfee8;&#xfb8d;" horiz-adv-x="1314" 
d="M70 977v20h131q17 28 55 76l-20 195q-62 95 47 168h39v-70l43 -63v-3l-43 -28v-125q82 82 159 82q63 0 105.5 -43t42.5 -101q0 -64 -41 -157q-109 -51 -291 -51h-80zM807 1159l147 152h21l151 -152l-147 -149h-21zM449 1104q-91 0 -177 -107h33q158 0 260 31
q-10 37 -42 56.5t-74 19.5zM-102 -338v74q622 165 622 416q0 128 -227 321l100 229h72q120 -153 240 -153q69 0 118.5 50t94.5 181l26 78h70l55 -334q26 -146 78 -198t168 -52v-221l-51 -53q-110 0 -175 37.5t-105.5 126.5t-70.5 258l-18 96q-28 -127 -85.5 -185.5
t-143.5 -58.5q-24 0 -56 7q-3 -367 -305 -773z" />
    <glyph glyph-name="uniFC8F.rlig" unicode="&#xfee8;&#xfef2;" horiz-adv-x="1923" 
d="M1067 1112l147 152h21l151 -152l-147 -149h-20zM629 -547q-143 0 -250 41t-169.5 114t-93 165.5t-30.5 203.5q0 204 88 447l74 -23q-47 -161 -47 -282q0 -176 113 -273.5t352 -97.5q186 0 361.5 64t266.5 153q-24 17 -71 29.5t-146 30.5l-143 26q-119 22 -172 75.5
t-53 154.5q0 91 46 187.5t118 171.5t166.5 123t185.5 48q104 0 188.5 -62t175.5 -210l58 -97q59 -94 119.5 -131t156.5 -37v-221l-51 -53q-131 0 -221 62t-185 217l-57 96q-59 96 -116 135t-144 39q-106 0 -210.5 -56.5t-104.5 -105.5q0 -26 30 -39.5t115 -28.5l143 -26
q148 -27 202 -69t54 -140q0 -172 -49 -334q-91 -122 -292.5 -209.5t-407.5 -87.5zM446 -858l148 151h20l125 -124l121 124h21l151 -151l-147 -150h-21l-125 123l-121 -123h-20z" />
    <glyph glyph-name="uniFEE8FE8A.rlig" unicode="&#xfee8;&#xfe8a;" horiz-adv-x="1923" 
d="M1067 1112l147 152h21l151 -152l-147 -149h-20zM33 588l106 76q-65 54 -65 118q0 75 72 149.5t147 74.5q52 0 79 -26t27 -62q0 -57 -24 -95l-133 51q-40 -8 -71.5 -27.5t-31.5 -37.5q0 -36 81.5 -53.5t170.5 -5.5l66 10l6 -8l-27 -144l-403 -67v47zM629 -547
q-143 0 -250 41t-169.5 114t-93 165.5t-30.5 203.5q0 204 88 447l74 -23q-47 -161 -47 -282q0 -176 113 -273.5t352 -97.5q186 0 361.5 64t266.5 153q-24 17 -71 29.5t-146 30.5l-143 26q-119 22 -172 75.5t-53 154.5q0 91 46 187.5t118 171.5t166.5 123t185.5 48
q104 0 188.5 -62t175.5 -210l58 -97q59 -94 119.5 -131t156.5 -37v-221l-51 -53q-131 0 -221 62t-185 217l-57 96q-59 96 -116 135t-144 39q-106 0 -210.5 -56.5t-104.5 -105.5q0 -26 30 -39.5t115 -28.5l143 -26q148 -27 202 -69t54 -140q0 -172 -49 -334
q-91 -122 -292.5 -209.5t-407.5 -87.5z" />
    <glyph glyph-name="uniFC8B.rlig" unicode="&#xfee8;&#xfeb0;" horiz-adv-x="1314" 
d="M807 1159l147 152h21l151 -152l-147 -149h-21zM223 1004l148 151h20l152 -151l-148 -150h-20zM-102 -338v74q622 165 622 416q0 128 -227 321l100 229h72q120 -153 240 -153q69 0 118.5 50t94.5 181l26 78h70l55 -334q26 -146 78 -198t168 -52v-221l-51 -53
q-110 0 -175 37.5t-105.5 126.5t-70.5 258l-18 96q-28 -127 -85.5 -185.5t-143.5 -58.5q-24 0 -56 7q-3 -367 -305 -773z" />
    <glyph glyph-name="uniFB59FEF0.rlig" unicode="&#xfb59;&#xfef0;" horiz-adv-x="1923" 
d="M629 -547q-143 0 -250 41t-169.5 114t-93 165.5t-30.5 203.5q0 204 88 447l74 -23q-47 -161 -47 -282q0 -176 113 -273.5t352 -97.5q186 0 361.5 64t266.5 153q-24 17 -71 29.5t-146 30.5l-143 26q-119 22 -172 75.5t-53 154.5q0 91 46 187.5t118 171.5t166.5 123
t185.5 48q104 0 188.5 -62t175.5 -210l58 -97q59 -94 119.5 -131t156.5 -37v-221l-51 -53q-131 0 -221 62t-185 217l-57 96q-59 96 -116 135t-144 39q-106 0 -210.5 -56.5t-104.5 -105.5q0 -26 30 -39.5t115 -28.5l143 -26q148 -27 202 -69t54 -140q0 -172 -49 -334
q-91 -122 -292.5 -209.5t-407.5 -87.5zM1100 -702l147 151h21l125 -125l120 125h21l152 -151l-148 -150h-20l-125 123l-121 -123h-21zM1249 -961l135 138h21l133 -138l-135 -135h-19z" />
    <glyph glyph-name="uniFB59FB8B.rlig" unicode="&#xfb59;&#xfb8b;" horiz-adv-x="1314" 
d="M238 1272l133 137h18l137 -137l-133 -135h-20zM96 1004l148 151h20l125 -125l121 125h20l152 -151l-147 -150h-21l-125 123l-121 -123h-20zM-102 -338v74q622 165 622 416q0 128 -227 321l100 229h72q120 -153 240 -153q69 0 118.5 50t94.5 181l26 78h70l55 -334
q26 -146 78 -198t168 -52v-221l-51 -53q-110 0 -175 37.5t-105.5 126.5t-70.5 258l-18 96q-28 -127 -85.5 -185.5t-143.5 -58.5q-24 0 -56 7q-3 -367 -305 -773zM588 -311l147 151h21l125 -125l120 125h21l152 -151l-148 -150h-20l-125 123l-121 -123h-21zM737 -569l135 137
h21l133 -137l-135 -136h-19z" />
    <glyph glyph-name="uniFB59FEE6.rlig" unicode="&#xfb59;&#xfee6;" horiz-adv-x="1921" 
d="M557 -391q-223 0 -347 122.5t-124 340.5q0 181 82 399l65 -20q-34 -112 -34 -222q0 -161 98.5 -243t286.5 -82q143 0 274.5 46t226.5 126q-28 152 -186 397l100 229h70q122 -153 244 -153q71 0 117 48.5t92 182.5l26 78h72l55 -334q25 -145 77 -197.5t169 -52.5v-221
l-53 -53q-83 0 -137 19t-95.5 69t-67.5 128t-50 206l-17 96q-27 -128 -83 -186t-144 -58q-51 0 -103 25q7 -61 7 -102q0 -182 -54 -355q-103 -109 -253 -171t-314 -62zM408 588l147 151h20l152 -151l-147 -150h-21zM1255 -311l148 151h20l125 -125l121 125h21l151 -151
l-147 -150h-21l-125 123l-121 -123h-20zM1405 -569l135 137h21l133 -137l-135 -136h-19z" />
    <glyph glyph-name="uniFB59FEAE.rlig" unicode="&#xfb59;&#xfeae;" horiz-adv-x="1314" 
d="M-102 -338v74q622 165 622 416q0 128 -227 321l100 229h72q120 -153 240 -153q69 0 118.5 50t94.5 181l26 78h70l55 -334q26 -146 78 -198t168 -52v-221l-51 -53q-110 0 -175 37.5t-105.5 126.5t-70.5 258l-18 96q-28 -127 -85.5 -185.5t-143.5 -58.5q-24 0 -56 7
q-3 -367 -305 -773zM588 -311l147 151h21l125 -125l120 125h21l152 -151l-148 -150h-20l-125 123l-121 -123h-21zM737 -569l135 137h21l133 -137l-135 -136h-19z" />
    <glyph glyph-name="uniFB59FB8D.rlig" unicode="&#xfb59;&#xfb8d;" horiz-adv-x="1314" 
d="M70 977v20h131q17 28 55 76l-20 195q-62 95 47 168h39v-70l43 -63v-3l-43 -28v-125q82 82 159 82q63 0 105.5 -43t42.5 -101q0 -64 -41 -157q-109 -51 -291 -51h-80zM449 1104q-91 0 -177 -107h33q158 0 260 31q-10 37 -42 56.5t-74 19.5zM-102 -338v74q622 165 622 416
q0 128 -227 321l100 229h72q120 -153 240 -153q69 0 118.5 50t94.5 181l26 78h70l55 -334q26 -146 78 -198t168 -52v-221l-51 -53q-110 0 -175 37.5t-105.5 126.5t-70.5 258l-18 96q-28 -127 -85.5 -185.5t-143.5 -58.5q-24 0 -56 7q-3 -367 -305 -773zM588 -311l147 151h21
l125 -125l120 125h21l152 -151l-148 -150h-20l-125 123l-121 -123h-21zM737 -569l135 137h21l133 -137l-135 -136h-19z" />
    <glyph glyph-name="uniFB59FEF2.rlig" unicode="&#xfb59;&#xfef2;" horiz-adv-x="1923" 
d="M629 -547q-143 0 -250 41t-169.5 114t-93 165.5t-30.5 203.5q0 204 88 447l74 -23q-47 -161 -47 -282q0 -176 113 -273.5t352 -97.5q186 0 361.5 64t266.5 153q-24 17 -71 29.5t-146 30.5l-143 26q-119 22 -172 75.5t-53 154.5q0 91 46 187.5t118 171.5t166.5 123
t185.5 48q104 0 188.5 -62t175.5 -210l58 -97q59 -94 119.5 -131t156.5 -37v-221l-51 -53q-131 0 -221 62t-185 217l-57 96q-59 96 -116 135t-144 39q-106 0 -210.5 -56.5t-104.5 -105.5q0 -26 30 -39.5t115 -28.5l143 -26q148 -27 202 -69t54 -140q0 -172 -49 -334
q-91 -122 -292.5 -209.5t-407.5 -87.5zM1100 -702l147 151h21l125 -125l120 125h21l152 -151l-148 -150h-20l-125 123l-121 -123h-21zM446 -858l148 151h20l125 -124l121 124h21l151 -151l-147 -150h-21l-125 123l-121 -123h-20zM1249 -961l135 138h21l133 -138l-135 -135
h-19z" />
    <glyph glyph-name="uniFB59FE8A.rlig" unicode="&#xfb59;&#xfe8a;" horiz-adv-x="1923" 
d="M33 588l106 76q-65 54 -65 118q0 75 72 149.5t147 74.5q52 0 79 -26t27 -62q0 -57 -24 -95l-133 51q-40 -8 -71.5 -27.5t-31.5 -37.5q0 -36 81.5 -53.5t170.5 -5.5l66 10l6 -8l-27 -144l-403 -67v47zM629 -547q-143 0 -250 41t-169.5 114t-93 165.5t-30.5 203.5
q0 204 88 447l74 -23q-47 -161 -47 -282q0 -176 113 -273.5t352 -97.5q186 0 361.5 64t266.5 153q-24 17 -71 29.5t-146 30.5l-143 26q-119 22 -172 75.5t-53 154.5q0 91 46 187.5t118 171.5t166.5 123t185.5 48q104 0 188.5 -62t175.5 -210l58 -97q59 -94 119.5 -131
t156.5 -37v-221l-51 -53q-131 0 -221 62t-185 217l-57 96q-59 96 -116 135t-144 39q-106 0 -210.5 -56.5t-104.5 -105.5q0 -26 30 -39.5t115 -28.5l143 -26q148 -27 202 -69t54 -140q0 -172 -49 -334q-91 -122 -292.5 -209.5t-407.5 -87.5zM1100 -702l147 151h21l125 -125
l120 125h21l152 -151l-148 -150h-20l-125 123l-121 -123h-21zM1249 -961l135 138h21l133 -138l-135 -135h-19z" />
    <glyph glyph-name="uniFB59FEB0.rlig" unicode="&#xfb59;&#xfeb0;" horiz-adv-x="1314" 
d="M223 1004l148 151h20l152 -151l-148 -150h-20zM-102 -338v74q622 165 622 416q0 128 -227 321l100 229h72q120 -153 240 -153q69 0 118.5 50t94.5 181l26 78h70l55 -334q26 -146 78 -198t168 -52v-221l-51 -53q-110 0 -175 37.5t-105.5 126.5t-70.5 258l-18 96
q-28 -127 -85.5 -185.5t-143.5 -58.5q-24 0 -56 7q-3 -367 -305 -773zM588 -311l147 151h21l125 -125l120 125h21l152 -151l-148 -150h-20l-125 123l-121 -123h-21zM737 -569l135 137h21l133 -137l-135 -136h-19z" />
    <glyph glyph-name="uniFD21.rlig" unicode="&#xfebc;&#xfef0;" horiz-adv-x="2940" 
d="M629 -547q-143 0 -250 41t-169.5 114t-93 165.5t-30.5 203.5q0 204 88 447l74 -23q-47 -161 -47 -282q0 -176 113 -273.5t352 -97.5q186 0 361.5 64t266.5 153q-24 17 -71 29.5t-146 30.5l-133 24q-126 23 -180.5 76.5t-54.5 155.5q0 91 46 187.5t118 171.5t166.5 123
t185.5 48q105 0 189 -62t175 -210l58 -97q58 -92 104 -133q206 294 365.5 421.5t318.5 127.5q151 0 253.5 -104.5t102.5 -249.5q0 -99 -36 -211q108 -19 186 -19v-229l-51 -45q-146 0 -299 84q-126 -56 -297.5 -87.5t-349.5 -31.5q-77 0 -135.5 12t-103 33.5t-86.5 62.5
t-75 86.5t-78 119.5l-57 96q-59 96 -116 135t-144 39q-106 0 -210.5 -56.5t-104.5 -105.5q0 -26 30 -39.5t115 -28.5l143 -26q148 -27 202 -69t54 -140q0 -172 -49 -334q-91 -122 -292.5 -209.5t-407.5 -87.5zM2337 584q-135 0 -256 -74.5t-262 -243.5q56 -26 161 -26
q191 0 384.5 33t330.5 89q-39 94 -143.5 158t-214.5 64z" />
    <glyph glyph-name="uniFEBCFB8B.rlig" unicode="&#xfebc;&#xfb8b;" horiz-adv-x="2328" 
d="M356 1085l133 138h19l137 -138l-133 -135h-20zM215 817l147 152h21l125 -125l121 125h20l152 -152l-148 -149h-20l-125 123l-121 -123h-20zM-102 -338v74q622 165 622 438l-96 113l100 229l447 84l14 -6v-244q49 -53 127 -76q219 319 383.5 455.5t327.5 136.5
q152 0 254 -103.5t102 -248.5q0 -103 -39 -221q112 -19 189 -19v-229l-52 -45q-144 0 -299 84q-244 -119 -598 -119q-235 0 -358 75t-184 257l-228 -43q-16 -356 -305 -746zM1735 592q-139 0 -264 -78.5t-275 -259.5q77 -14 201 -14q189 0 369.5 32.5t318.5 96.5
q-38 95 -140 159t-210 64z" />
    <glyph glyph-name="uniFD2B.rlig" unicode="&#xfebc;&#xfeae;" horiz-adv-x="2328" 
d="M-102 -338v74q622 165 622 438l-96 113l100 229l447 84l14 -6v-244q49 -53 127 -76q219 319 383.5 455.5t327.5 136.5q152 0 254 -103.5t102 -248.5q0 -103 -39 -221q112 -19 189 -19v-229l-52 -45q-144 0 -299 84q-244 -119 -598 -119q-235 0 -358 75t-184 257l-228 -43
q-16 -356 -305 -746zM1735 592q-139 0 -264 -78.5t-275 -259.5q77 -14 201 -14q189 0 369.5 32.5t318.5 96.5q-38 95 -140 159t-210 64z" />
    <glyph glyph-name="uniFEBCFB8D.rlig" unicode="&#xfebc;&#xfb8d;" horiz-adv-x="2328" 
d="M188 791v20h131q13 21 56 76l-21 194q-62 95 47 168h39v-69l43 -64v-2l-43 -29v-124q81 81 160 81q63 0 105.5 -42.5t42.5 -100.5q0 -65 -41 -158q-109 -51 -291 -51h-80zM567 918q-47 0 -88.5 -25t-87.5 -82h33q158 0 260 31q-10 37 -42.5 56.5t-74.5 19.5zM-102 -338
v74q622 165 622 438l-96 113l100 229l447 84l14 -6v-244q49 -53 127 -76q219 319 383.5 455.5t327.5 136.5q152 0 254 -103.5t102 -248.5q0 -103 -39 -221q112 -19 189 -19v-229l-52 -45q-144 0 -299 84q-244 -119 -598 -119q-235 0 -358 75t-184 257l-228 -43
q-16 -356 -305 -746zM1735 592q-139 0 -264 -78.5t-275 -259.5q77 -14 201 -14q189 0 369.5 32.5t318.5 96.5q-38 95 -140 159t-210 64z" />
    <glyph glyph-name="uniFD22.rlig" unicode="&#xfebc;&#xfef2;" horiz-adv-x="2940" 
d="M629 -547q-143 0 -250 41t-169.5 114t-93 165.5t-30.5 203.5q0 204 88 447l74 -23q-47 -161 -47 -282q0 -176 113 -273.5t352 -97.5q186 0 361.5 64t266.5 153q-24 17 -71 29.5t-146 30.5l-133 24q-126 23 -180.5 76.5t-54.5 155.5q0 91 46 187.5t118 171.5t166.5 123
t185.5 48q105 0 189 -62t175 -210l58 -97q58 -92 104 -133q206 294 365.5 421.5t318.5 127.5q151 0 253.5 -104.5t102.5 -249.5q0 -99 -36 -211q108 -19 186 -19v-229l-51 -45q-146 0 -299 84q-126 -56 -297.5 -87.5t-349.5 -31.5q-77 0 -135.5 12t-103 33.5t-86.5 62.5
t-75 86.5t-78 119.5l-57 96q-59 96 -116 135t-144 39q-106 0 -210.5 -56.5t-104.5 -105.5q0 -26 30 -39.5t115 -28.5l143 -26q148 -27 202 -69t54 -140q0 -172 -49 -334q-91 -122 -292.5 -209.5t-407.5 -87.5zM2337 584q-135 0 -256 -74.5t-262 -243.5q56 -26 161 -26
q191 0 384.5 33t330.5 89q-39 94 -143.5 158t-214.5 64zM446 -829l148 151h20l125 -125l121 125h21l151 -151l-147 -150h-21l-125 123l-121 -123h-20z" />
    <glyph glyph-name="uniFEBCFE8A.rlig" unicode="&#xfebc;&#xfe8a;" horiz-adv-x="2940" 
d="M33 588l106 76q-65 54 -65 118q0 75 72 149.5t147 74.5q52 0 79 -26t27 -62q0 -57 -24 -95l-133 51q-40 -8 -71.5 -27.5t-31.5 -37.5q0 -36 81.5 -53.5t170.5 -5.5l66 10l6 -8l-27 -144l-403 -67v47zM629 -547q-143 0 -250 41t-169.5 114t-93 165.5t-30.5 203.5
q0 204 88 447l74 -23q-47 -161 -47 -282q0 -176 113 -273.5t352 -97.5q186 0 361.5 64t266.5 153q-24 17 -71 29.5t-146 30.5l-133 24q-126 23 -180.5 76.5t-54.5 155.5q0 91 46 187.5t118 171.5t166.5 123t185.5 48q105 0 189 -62t175 -210l58 -97q58 -92 104 -133
q206 294 365.5 421.5t318.5 127.5q151 0 253.5 -104.5t102.5 -249.5q0 -99 -36 -211q108 -19 186 -19v-229l-51 -45q-146 0 -299 84q-126 -56 -297.5 -87.5t-349.5 -31.5q-77 0 -135.5 12t-103 33.5t-86.5 62.5t-75 86.5t-78 119.5l-57 96q-59 96 -116 135t-144 39
q-106 0 -210.5 -56.5t-104.5 -105.5q0 -26 30 -39.5t115 -28.5l143 -26q148 -27 202 -69t54 -140q0 -172 -49 -334q-91 -122 -292.5 -209.5t-407.5 -87.5zM2337 584q-135 0 -256 -74.5t-262 -243.5q56 -26 161 -26q191 0 384.5 33t330.5 89q-39 94 -143.5 158t-214.5 64z
" />
    <glyph glyph-name="uniFEBCFEB0.rlig" unicode="&#xfebc;&#xfeb0;" horiz-adv-x="2328" 
d="M342 817l147 152h21l152 -152l-148 -149h-20zM-102 -338v74q622 165 622 438l-96 113l100 229l447 84l14 -6v-244q49 -53 127 -76q219 319 383.5 455.5t327.5 136.5q152 0 254 -103.5t102 -248.5q0 -103 -39 -221q112 -19 189 -19v-229l-52 -45q-144 0 -299 84
q-244 -119 -598 -119q-235 0 -358 75t-184 257l-228 -43q-16 -356 -305 -746zM1735 592q-139 0 -264 -78.5t-275 -259.5q77 -14 201 -14q189 0 369.5 32.5t318.5 96.5q-38 95 -140 159t-210 64z" />
    <glyph glyph-name="uniFD17.rlig" unicode="&#xfeb4;&#xfef0;" horiz-adv-x="2816" 
d="M629 -547q-143 0 -250 41t-169.5 114t-93 165.5t-30.5 203.5q0 204 88 447l74 -23q-47 -161 -47 -282q0 -176 113 -273.5t352 -97.5q186 0 361.5 64t266.5 153q-24 17 -71 29.5t-146 30.5l-143 26q-119 22 -172 75.5t-53 154.5q0 91 46 187.5t118 171.5t166.5 123
t185.5 48q105 0 189 -62t175 -210l58 -97q64 -103 118 -145.5t131 -42.5q148 0 183 182l20 113h76v-254q55 -21 125 -21q83 0 131 31l53 320h74v-168q0 -112 51.5 -147.5t206.5 -35.5v-229l-51 -45q-133 0 -218.5 60.5t-109.5 162.5h-6q-16 -86 -43 -162q-67 -61 -156 -61
q-99 0 -207 88q-63 -108 -194 -108q-60 0 -106.5 16.5t-90 57t-79.5 90t-89 135.5l-57 96q-59 96 -116 135t-144 39q-106 0 -210.5 -56.5t-104.5 -105.5q0 -26 30 -39.5t115 -28.5l143 -26q148 -27 202 -69t54 -140q0 -172 -49 -334q-91 -122 -292.5 -209.5t-407.5 -87.5z
" />
    <glyph glyph-name="uniFEB4FB8B.rlig" unicode="&#xfeb4;&#xfb8b;" horiz-adv-x="2121" 
d="M356 1085l133 138h19l137 -138l-133 -135h-20zM215 817l147 152h21l125 -125l121 125h20l152 -152l-148 -149h-20l-125 123l-121 -123h-20zM-102 -338v74q622 165 622 438l-96 113l100 229l447 84l14 -6v-223q92 -117 244 -117q71 0 103.5 38.5t51.5 143.5l23 113h74
v-254q55 -21 125 -21q83 0 131 31l53 320h76v-168q0 -111 51 -147t205 -36v-229l-51 -45q-133 0 -218.5 60.5t-109.5 162.5h-4q-14 -74 -45 -162q-67 -61 -154 -61q-102 0 -209 90q-53 -110 -170 -110q-46 0 -89 14.5t-88 48.5t-85 98t-68 154l-221 -41q-16 -356 -305 -746z
" />
    <glyph glyph-name="uniFD2A.rlig" unicode="&#xfeb4;&#xfeae;" horiz-adv-x="2121" 
d="M-102 -338v74q622 165 622 438l-96 113l100 229l447 84l14 -6v-223q92 -117 244 -117q71 0 103.5 38.5t51.5 143.5l23 113h74v-254q55 -21 125 -21q83 0 131 31l53 320h76v-168q0 -111 51 -147t205 -36v-229l-51 -45q-133 0 -218.5 60.5t-109.5 162.5h-4
q-14 -74 -45 -162q-67 -61 -154 -61q-102 0 -209 90q-53 -110 -170 -110q-46 0 -89 14.5t-88 48.5t-85 98t-68 154l-221 -41q-16 -356 -305 -746z" />
    <glyph glyph-name="uniFEB4FB8D.rlig" unicode="&#xfeb4;&#xfb8d;" horiz-adv-x="2121" 
d="M188 791v20h131q13 21 56 76l-21 194q-62 95 47 168h39v-69l43 -64v-2l-43 -29v-124q81 81 160 81q63 0 105.5 -42.5t42.5 -100.5q0 -65 -41 -158q-109 -51 -291 -51h-80zM567 918q-47 0 -88.5 -25t-87.5 -82h33q158 0 260 31q-10 37 -42.5 56.5t-74.5 19.5zM-102 -338
v74q622 165 622 438l-96 113l100 229l447 84l14 -6v-223q92 -117 244 -117q71 0 103.5 38.5t51.5 143.5l23 113h74v-254q55 -21 125 -21q83 0 131 31l53 320h76v-168q0 -111 51 -147t205 -36v-229l-51 -45q-133 0 -218.5 60.5t-109.5 162.5h-4q-14 -74 -45 -162
q-67 -61 -154 -61q-102 0 -209 90q-53 -110 -170 -110q-46 0 -89 14.5t-88 48.5t-85 98t-68 154l-221 -41q-16 -356 -305 -746z" />
    <glyph glyph-name="uniFD18.rlig" unicode="&#xfeb4;&#xfef2;" horiz-adv-x="2816" 
d="M629 -547q-143 0 -250 41t-169.5 114t-93 165.5t-30.5 203.5q0 204 88 447l74 -23q-47 -161 -47 -282q0 -176 113 -273.5t352 -97.5q186 0 361.5 64t266.5 153q-24 17 -71 29.5t-146 30.5l-143 26q-119 22 -172 75.5t-53 154.5q0 91 46 187.5t118 171.5t166.5 123
t185.5 48q105 0 189 -62t175 -210l58 -97q64 -103 118 -145.5t131 -42.5q148 0 183 182l20 113h76v-254q55 -21 125 -21q83 0 131 31l53 320h74v-168q0 -112 51.5 -147.5t206.5 -35.5v-229l-51 -45q-133 0 -218.5 60.5t-109.5 162.5h-6q-16 -86 -43 -162q-67 -61 -156 -61
q-99 0 -207 88q-63 -108 -194 -108q-60 0 -106.5 16.5t-90 57t-79.5 90t-89 135.5l-57 96q-59 96 -116 135t-144 39q-106 0 -210.5 -56.5t-104.5 -105.5q0 -26 30 -39.5t115 -28.5l143 -26q148 -27 202 -69t54 -140q0 -172 -49 -334q-91 -122 -292.5 -209.5t-407.5 -87.5z
M487 -829l148 151h20l125 -125l121 125h21l151 -151l-147 -150h-21l-125 123l-121 -123h-20z" />
    <glyph glyph-name="uniFEB4FE8A.rlig" unicode="&#xfeb4;&#xfe8a;" horiz-adv-x="2816" 
d="M72 588l106 76q-65 54 -65 118q0 75 72 149.5t147 74.5q52 0 79 -26t27 -62q0 -57 -24 -95l-133 51q-40 -8 -71.5 -27.5t-31.5 -37.5q0 -36 81.5 -53.5t170.5 -5.5l66 10l6 -8l-27 -144l-403 -67v47zM629 -547q-143 0 -250 41t-169.5 114t-93 165.5t-30.5 203.5
q0 204 88 447l74 -23q-47 -161 -47 -282q0 -176 113 -273.5t352 -97.5q186 0 361.5 64t266.5 153q-24 17 -71 29.5t-146 30.5l-143 26q-119 22 -172 75.5t-53 154.5q0 91 46 187.5t118 171.5t166.5 123t185.5 48q105 0 189 -62t175 -210l58 -97q64 -103 118 -145.5
t131 -42.5q148 0 183 182l20 113h76v-254q55 -21 125 -21q83 0 131 31l53 320h74v-168q0 -112 51.5 -147.5t206.5 -35.5v-229l-51 -45q-133 0 -218.5 60.5t-109.5 162.5h-6q-16 -86 -43 -162q-67 -61 -156 -61q-99 0 -207 88q-63 -108 -194 -108q-60 0 -106.5 16.5t-90 57
t-79.5 90t-89 135.5l-57 96q-59 96 -116 135t-144 39q-106 0 -210.5 -56.5t-104.5 -105.5q0 -26 30 -39.5t115 -28.5l143 -26q148 -27 202 -69t54 -140q0 -172 -49 -334q-91 -122 -292.5 -209.5t-407.5 -87.5z" />
    <glyph glyph-name="uniFEB4FEB0.rlig" unicode="&#xfeb4;&#xfeb0;" horiz-adv-x="2121" 
d="M342 817l147 152h21l152 -152l-148 -149h-20zM-102 -338v74q622 165 622 438l-96 113l100 229l447 84l14 -6v-223q92 -117 244 -117q71 0 103.5 38.5t51.5 143.5l23 113h74v-254q55 -21 125 -21q83 0 131 31l53 320h76v-168q0 -111 51 -147t205 -36v-229l-51 -45
q-133 0 -218.5 60.5t-109.5 162.5h-4q-14 -74 -45 -162q-67 -61 -154 -61q-102 0 -209 90q-53 -110 -170 -110q-46 0 -89 14.5t-88 48.5t-85 98t-68 154l-221 -41q-16 -356 -305 -746z" />
    <glyph glyph-name="uniFD19.rlig" unicode="&#xfeb8;&#xfef0;" horiz-adv-x="2816" 
d="M1919 1118l133 137h19l137 -137l-133 -135h-21zM1778 850l147 151h21l125 -124l120 124h21l151 -151l-147 -150h-21l-124 123l-121 -123h-21zM629 -547q-143 0 -250 41t-169.5 114t-93 165.5t-30.5 203.5q0 204 88 447l74 -23q-47 -161 -47 -282q0 -176 113 -273.5
t352 -97.5q186 0 361.5 64t266.5 153q-24 17 -71 29.5t-146 30.5l-143 26q-119 22 -172 75.5t-53 154.5q0 91 46 187.5t118 171.5t166.5 123t185.5 48q105 0 189 -62t175 -210l58 -97q64 -103 118 -145.5t131 -42.5q148 0 183 182l20 113h76v-254q55 -21 125 -21
q83 0 131 31l53 320h74v-168q0 -112 51.5 -147.5t206.5 -35.5v-229l-51 -45q-133 0 -218.5 60.5t-109.5 162.5h-6q-16 -86 -43 -162q-67 -61 -156 -61q-99 0 -207 88q-63 -108 -194 -108q-60 0 -106.5 16.5t-90 57t-79.5 90t-89 135.5l-57 96q-59 96 -116 135t-144 39
q-106 0 -210.5 -56.5t-104.5 -105.5q0 -26 30 -39.5t115 -28.5l143 -26q148 -27 202 -69t54 -140q0 -172 -49 -334q-91 -122 -292.5 -209.5t-407.5 -87.5z" />
    <glyph glyph-name="uniFEB8FB8B.rlig" unicode="&#xfeb8;&#xfb8b;" horiz-adv-x="2121" 
d="M1262 1118l133 137h18l137 -137l-133 -135h-20zM356 1085l133 138h19l137 -138l-133 -135h-20zM1120 850l148 151h20l125 -124l121 124h20l152 -151l-147 -150h-21l-125 123l-121 -123h-20zM215 817l147 152h21l125 -125l121 125h20l152 -152l-148 -149h-20l-125 123
l-121 -123h-20zM-102 -338v74q622 165 622 438l-96 113l100 229l447 84l14 -6v-223q92 -117 244 -117q71 0 103.5 38.5t51.5 143.5l23 113h74v-254q55 -21 125 -21q83 0 131 31l53 320h76v-168q0 -111 51 -147t205 -36v-229l-51 -45q-133 0 -218.5 60.5t-109.5 162.5h-4
q-14 -74 -45 -162q-67 -61 -154 -61q-102 0 -209 90q-53 -110 -170 -110q-46 0 -89 14.5t-88 48.5t-85 98t-68 154l-221 -41q-16 -356 -305 -746z" />
    <glyph glyph-name="uniFD29.rlig" unicode="&#xfeb8;&#xfeae;" horiz-adv-x="2121" 
d="M1262 1118l133 137h18l137 -137l-133 -135h-20zM1120 850l148 151h20l125 -124l121 124h20l152 -151l-147 -150h-21l-125 123l-121 -123h-20zM-102 -338v74q622 165 622 438l-96 113l100 229l447 84l14 -6v-223q92 -117 244 -117q71 0 103.5 38.5t51.5 143.5l23 113h74
v-254q55 -21 125 -21q83 0 131 31l53 320h76v-168q0 -111 51 -147t205 -36v-229l-51 -45q-133 0 -218.5 60.5t-109.5 162.5h-4q-14 -74 -45 -162q-67 -61 -154 -61q-102 0 -209 90q-53 -110 -170 -110q-46 0 -89 14.5t-88 48.5t-85 98t-68 154l-221 -41q-16 -356 -305 -746z
" />
    <glyph glyph-name="uniFEB8FB8D.rlig" unicode="&#xfeb8;&#xfb8d;" horiz-adv-x="2121" 
d="M1262 1118l133 137h18l137 -137l-133 -135h-20zM188 791v20h131q13 21 56 76l-21 194q-62 95 47 168h39v-69l43 -64v-2l-43 -29v-124q81 81 160 81q63 0 105.5 -42.5t42.5 -100.5q0 -65 -41 -158q-109 -51 -291 -51h-80zM1120 850l148 151h20l125 -124l121 124h20
l152 -151l-147 -150h-21l-125 123l-121 -123h-20zM567 918q-47 0 -88.5 -25t-87.5 -82h33q158 0 260 31q-10 37 -42.5 56.5t-74.5 19.5zM-102 -338v74q622 165 622 438l-96 113l100 229l447 84l14 -6v-223q92 -117 244 -117q71 0 103.5 38.5t51.5 143.5l23 113h74v-254
q55 -21 125 -21q83 0 131 31l53 320h76v-168q0 -111 51 -147t205 -36v-229l-51 -45q-133 0 -218.5 60.5t-109.5 162.5h-4q-14 -74 -45 -162q-67 -61 -154 -61q-102 0 -209 90q-53 -110 -170 -110q-46 0 -89 14.5t-88 48.5t-85 98t-68 154l-221 -41q-16 -356 -305 -746z" />
    <glyph glyph-name="uniFD1A.rlig" unicode="&#xfeb8;&#xfef2;" horiz-adv-x="2816" 
d="M1919 1118l133 137h19l137 -137l-133 -135h-21zM1778 850l147 151h21l125 -124l120 124h21l151 -151l-147 -150h-21l-124 123l-121 -123h-21zM629 -547q-143 0 -250 41t-169.5 114t-93 165.5t-30.5 203.5q0 204 88 447l74 -23q-47 -161 -47 -282q0 -176 113 -273.5
t352 -97.5q186 0 361.5 64t266.5 153q-24 17 -71 29.5t-146 30.5l-143 26q-119 22 -172 75.5t-53 154.5q0 91 46 187.5t118 171.5t166.5 123t185.5 48q105 0 189 -62t175 -210l58 -97q64 -103 118 -145.5t131 -42.5q148 0 183 182l20 113h76v-254q55 -21 125 -21
q83 0 131 31l53 320h74v-168q0 -112 51.5 -147.5t206.5 -35.5v-229l-51 -45q-133 0 -218.5 60.5t-109.5 162.5h-6q-16 -86 -43 -162q-67 -61 -156 -61q-99 0 -207 88q-63 -108 -194 -108q-60 0 -106.5 16.5t-90 57t-79.5 90t-89 135.5l-57 96q-59 96 -116 135t-144 39
q-106 0 -210.5 -56.5t-104.5 -105.5q0 -26 30 -39.5t115 -28.5l143 -26q148 -27 202 -69t54 -140q0 -172 -49 -334q-91 -122 -292.5 -209.5t-407.5 -87.5zM487 -829l148 151h20l125 -125l121 125h21l151 -151l-147 -150h-21l-125 123l-121 -123h-20z" />
    <glyph glyph-name="uniFEB8FE8A.rlig" unicode="&#xfeb8;&#xfe8a;" horiz-adv-x="2816" 
d="M1919 1118l133 137h19l137 -137l-133 -135h-21zM72 588l106 76q-65 54 -65 118q0 75 72 149.5t147 74.5q52 0 79 -26t27 -62q0 -57 -24 -95l-133 51q-40 -8 -71.5 -27.5t-31.5 -37.5q0 -36 81.5 -53.5t170.5 -5.5l66 10l6 -8l-27 -144l-403 -67v47zM1778 850l147 151h21
l125 -124l120 124h21l151 -151l-147 -150h-21l-124 123l-121 -123h-21zM629 -547q-143 0 -250 41t-169.5 114t-93 165.5t-30.5 203.5q0 204 88 447l74 -23q-47 -161 -47 -282q0 -176 113 -273.5t352 -97.5q186 0 361.5 64t266.5 153q-24 17 -71 29.5t-146 30.5l-143 26
q-119 22 -172 75.5t-53 154.5q0 91 46 187.5t118 171.5t166.5 123t185.5 48q105 0 189 -62t175 -210l58 -97q64 -103 118 -145.5t131 -42.5q148 0 183 182l20 113h76v-254q55 -21 125 -21q83 0 131 31l53 320h74v-168q0 -112 51.5 -147.5t206.5 -35.5v-229l-51 -45
q-133 0 -218.5 60.5t-109.5 162.5h-6q-16 -86 -43 -162q-67 -61 -156 -61q-99 0 -207 88q-63 -108 -194 -108q-60 0 -106.5 16.5t-90 57t-79.5 90t-89 135.5l-57 96q-59 96 -116 135t-144 39q-106 0 -210.5 -56.5t-104.5 -105.5q0 -26 30 -39.5t115 -28.5l143 -26
q148 -27 202 -69t54 -140q0 -172 -49 -334q-91 -122 -292.5 -209.5t-407.5 -87.5z" />
    <glyph glyph-name="uniFEB8FEB0.rlig" unicode="&#xfeb8;&#xfeb0;" horiz-adv-x="2121" 
d="M1262 1118l133 137h18l137 -137l-133 -135h-20zM1120 850l148 151h20l125 -124l121 124h20l152 -151l-147 -150h-21l-125 123l-121 -123h-20zM342 817l147 152h21l152 -152l-148 -149h-20zM-102 -338v74q622 165 622 438l-96 113l100 229l447 84l14 -6v-223
q92 -117 244 -117q71 0 103.5 38.5t51.5 143.5l23 113h74v-254q55 -21 125 -21q83 0 131 31l53 320h76v-168q0 -111 51 -147t205 -36v-229l-51 -45q-133 0 -218.5 60.5t-109.5 162.5h-4q-14 -74 -45 -162q-67 -61 -154 -61q-102 0 -209 90q-53 -110 -170 -110
q-46 0 -89 14.5t-88 48.5t-85 98t-68 154l-221 -41q-16 -356 -305 -746z" />
    <glyph glyph-name="uniFB7DFEF0.rlig" unicode="&#xfb7d;&#xfef0;" horiz-adv-x="2099" 
d="M629 -547q-143 0 -250 41t-169.5 114t-93 165.5t-30.5 203.5q0 204 88 447l74 -23q-47 -161 -47 -282q0 -175 112 -273t344 -98q176 0 363.5 55t290.5 134q-60 57 -246 90l-211 34l-4 11l61 250q355 105 707 157q-63 11 -234 58q-237 69 -294 69q-60 0 -88.5 -29
t-34.5 -98h-78q-6 73 -6 131q0 131 54 195.5t155 64.5q55 0 127.5 -18.5t255.5 -77.5q204 -67 292 -88.5t187 -21.5h84l6 -9l-72 -239q-83 -6 -176 -21q28 -66 98.5 -93.5t210.5 -27.5v-221l-53 -53q-175 0 -254.5 85t-99.5 292q-245 -51 -492 -137q180 -58 180 -193
q0 -178 -49 -332q-96 -107 -294.5 -184.5t-413.5 -77.5zM1430 -311l147 151h20l125 -125l121 125h21l151 -151l-147 -150h-21l-125 123l-120 -123h-21zM1579 -569l135 137h21l133 -137l-135 -136h-19z" />
    <glyph glyph-name="uniFB7DFEF2.rlig" unicode="&#xfb7d;&#xfef2;" horiz-adv-x="2099" 
d="M629 -547q-143 0 -250 41t-169.5 114t-93 165.5t-30.5 203.5q0 204 88 447l74 -23q-47 -161 -47 -282q0 -175 112 -273t344 -98q176 0 363.5 55t290.5 134q-60 57 -246 90l-211 34l-4 11l61 250q355 105 707 157q-63 11 -234 58q-237 69 -294 69q-60 0 -88.5 -29
t-34.5 -98h-78q-6 73 -6 131q0 131 54 195.5t155 64.5q55 0 127.5 -18.5t255.5 -77.5q204 -67 292 -88.5t187 -21.5h84l6 -9l-72 -239q-83 -6 -176 -21q28 -66 98.5 -93.5t210.5 -27.5v-221l-53 -53q-175 0 -254.5 85t-99.5 292q-245 -51 -492 -137q180 -58 180 -193
q0 -178 -49 -332q-96 -107 -294.5 -184.5t-413.5 -77.5zM1430 -311l147 151h20l125 -125l121 125h21l151 -151l-147 -150h-21l-125 123l-120 -123h-21zM1579 -569l135 137h21l133 -137l-135 -136h-19zM436 -829l148 151h20l125 -125l121 125h20l152 -151l-148 -150h-20
l-125 123l-121 -123h-20z" />
    <glyph glyph-name="uniFB7DFE8A.rlig" unicode="&#xfb7d;&#xfe8a;" horiz-adv-x="2099" 
d="M33 588l106 76q-65 54 -65 118q0 75 72 149.5t147 74.5q52 0 79 -26t27 -62q0 -57 -24 -95l-133 51q-40 -8 -71.5 -27.5t-31.5 -37.5q0 -36 81.5 -53.5t170.5 -5.5l66 10l6 -8l-27 -144l-403 -67v47zM629 -547q-143 0 -250 41t-169.5 114t-93 165.5t-30.5 203.5
q0 204 88 447l74 -23q-47 -161 -47 -282q0 -175 112 -273t344 -98q176 0 363.5 55t290.5 134q-60 57 -246 90l-211 34l-4 11l61 250q355 105 707 157q-63 11 -234 58q-237 69 -294 69q-60 0 -88.5 -29t-34.5 -98h-78q-6 73 -6 131q0 131 54 195.5t155 64.5q55 0 127.5 -18.5
t255.5 -77.5q204 -67 292 -88.5t187 -21.5h84l6 -9l-72 -239q-83 -6 -176 -21q28 -66 98.5 -93.5t210.5 -27.5v-221l-53 -53q-175 0 -254.5 85t-99.5 292q-245 -51 -492 -137q180 -58 180 -193q0 -178 -49 -332q-96 -107 -294.5 -184.5t-413.5 -77.5zM1430 -311l147 151h20
l125 -125l121 125h21l151 -151l-147 -150h-21l-125 123l-120 -123h-21zM1579 -569l135 137h21l133 -137l-135 -136h-19z" />
    <glyph glyph-name="uniFC74.rlig" unicode="&#xfe98;&#xfef0;" horiz-adv-x="1923" 
d="M934 1112l147 152h21l125 -125l121 125h20l152 -152l-148 -149h-20l-125 122l-121 -122h-21zM629 -547q-143 0 -250 41t-169.5 114t-93 165.5t-30.5 203.5q0 204 88 447l74 -23q-47 -161 -47 -282q0 -176 113 -273.5t352 -97.5q186 0 361.5 64t266.5 153q-24 17 -71 29.5
t-146 30.5l-143 26q-119 22 -172 75.5t-53 154.5q0 91 46 187.5t118 171.5t166.5 123t185.5 48q104 0 188.5 -62t175.5 -210l58 -97q59 -94 119.5 -131t156.5 -37v-221l-51 -53q-131 0 -221 62t-185 217l-57 96q-59 96 -116 135t-144 39q-106 0 -210.5 -56.5t-104.5 -105.5
q0 -26 30 -39.5t115 -28.5l143 -26q148 -27 202 -69t54 -140q0 -172 -49 -334q-91 -122 -292.5 -209.5t-407.5 -87.5z" />
    <glyph glyph-name="uniFE98FB8B.rlig" unicode="&#xfe98;&#xfb8b;" horiz-adv-x="1314" 
d="M238 1272l133 137h18l137 -137l-133 -135h-20zM674 1159l147 152h21l125 -125l120 125h21l152 -152l-148 -149h-20l-125 123l-121 -123h-21zM96 1004l148 151h20l125 -125l121 125h20l152 -151l-147 -150h-21l-125 123l-121 -123h-20zM-102 -338v74q622 165 622 416
q0 128 -227 321l100 229h72q120 -153 240 -153q69 0 118.5 50t94.5 181l26 78h70l55 -334q26 -146 78 -198t168 -52v-221l-51 -53q-110 0 -175 37.5t-105.5 126.5t-70.5 258l-18 96q-28 -127 -85.5 -185.5t-143.5 -58.5q-24 0 -56 7q-3 -367 -305 -773z" />
    <glyph glyph-name="uniFC73.rlig" unicode="&#xfe98;&#xfee6;" horiz-adv-x="1921" 
d="M1255 1159l148 152h20l125 -125l121 125h21l151 -152l-147 -149h-21l-125 123l-121 -123h-20zM557 -391q-223 0 -347 122.5t-124 340.5q0 181 82 399l65 -20q-34 -112 -34 -222q0 -161 98.5 -243t286.5 -82q143 0 274.5 46t226.5 126q-28 152 -186 397l100 229h70
q122 -153 244 -153q71 0 117 48.5t92 182.5l26 78h72l55 -334q25 -145 77 -197.5t169 -52.5v-221l-53 -53q-83 0 -137 19t-95.5 69t-67.5 128t-50 206l-17 96q-27 -128 -83 -186t-144 -58q-51 0 -103 25q7 -61 7 -102q0 -182 -54 -355q-103 -109 -253 -171t-314 -62z
M408 588l147 151h20l152 -151l-147 -150h-21z" />
    <glyph glyph-name="uniFC70.rlig" unicode="&#xfe98;&#xfeae;" horiz-adv-x="1314" 
d="M674 1159l147 152h21l125 -125l120 125h21l152 -152l-148 -149h-20l-125 123l-121 -123h-21zM-102 -338v74q622 165 622 416q0 128 -227 321l100 229h72q120 -153 240 -153q69 0 118.5 50t94.5 181l26 78h70l55 -334q26 -146 78 -198t168 -52v-221l-51 -53
q-110 0 -175 37.5t-105.5 126.5t-70.5 258l-18 96q-28 -127 -85.5 -185.5t-143.5 -58.5q-24 0 -56 7q-3 -367 -305 -773z" />
    <glyph glyph-name="uniFE98FB8D.rlig" unicode="&#xfe98;&#xfb8d;" horiz-adv-x="1314" 
d="M70 977v20h131q17 28 55 76l-20 195q-62 95 47 168h39v-70l43 -63v-3l-43 -28v-125q82 82 159 82q63 0 105.5 -43t42.5 -101q0 -64 -41 -157q-109 -51 -291 -51h-80zM674 1159l147 152h21l125 -125l120 125h21l152 -152l-148 -149h-20l-125 123l-121 -123h-21zM449 1104
q-91 0 -177 -107h33q158 0 260 31q-10 37 -42 56.5t-74 19.5zM-102 -338v74q622 165 622 416q0 128 -227 321l100 229h72q120 -153 240 -153q69 0 118.5 50t94.5 181l26 78h70l55 -334q26 -146 78 -198t168 -52v-221l-51 -53q-110 0 -175 37.5t-105.5 126.5t-70.5 258
l-18 96q-28 -127 -85.5 -185.5t-143.5 -58.5q-24 0 -56 7q-3 -367 -305 -773z" />
    <glyph glyph-name="uniFC75.rlig" unicode="&#xfe98;&#xfef2;" horiz-adv-x="1923" 
d="M934 1112l147 152h21l125 -125l121 125h20l152 -152l-148 -149h-20l-125 122l-121 -122h-21zM629 -547q-143 0 -250 41t-169.5 114t-93 165.5t-30.5 203.5q0 204 88 447l74 -23q-47 -161 -47 -282q0 -176 113 -273.5t352 -97.5q186 0 361.5 64t266.5 153q-24 17 -71 29.5
t-146 30.5l-143 26q-119 22 -172 75.5t-53 154.5q0 91 46 187.5t118 171.5t166.5 123t185.5 48q104 0 188.5 -62t175.5 -210l58 -97q59 -94 119.5 -131t156.5 -37v-221l-51 -53q-131 0 -221 62t-185 217l-57 96q-59 96 -116 135t-144 39q-106 0 -210.5 -56.5t-104.5 -105.5
q0 -26 30 -39.5t115 -28.5l143 -26q148 -27 202 -69t54 -140q0 -172 -49 -334q-91 -122 -292.5 -209.5t-407.5 -87.5zM446 -858l148 151h20l125 -124l121 124h21l151 -151l-147 -150h-21l-125 123l-121 -123h-20z" />
    <glyph glyph-name="uniFE98FE8A.rlig" unicode="&#xfe98;&#xfe8a;" horiz-adv-x="1923" 
d="M934 1112l147 152h21l125 -125l121 125h20l152 -152l-148 -149h-20l-125 122l-121 -122h-21zM33 588l106 76q-65 54 -65 118q0 75 72 149.5t147 74.5q52 0 79 -26t27 -62q0 -57 -24 -95l-133 51q-40 -8 -71.5 -27.5t-31.5 -37.5q0 -36 81.5 -53.5t170.5 -5.5l66 10l6 -8
l-27 -144l-403 -67v47zM629 -547q-143 0 -250 41t-169.5 114t-93 165.5t-30.5 203.5q0 204 88 447l74 -23q-47 -161 -47 -282q0 -176 113 -273.5t352 -97.5q186 0 361.5 64t266.5 153q-24 17 -71 29.5t-146 30.5l-143 26q-119 22 -172 75.5t-53 154.5q0 91 46 187.5
t118 171.5t166.5 123t185.5 48q104 0 188.5 -62t175.5 -210l58 -97q59 -94 119.5 -131t156.5 -37v-221l-51 -53q-131 0 -221 62t-185 217l-57 96q-59 96 -116 135t-144 39q-106 0 -210.5 -56.5t-104.5 -105.5q0 -26 30 -39.5t115 -28.5l143 -26q148 -27 202 -69t54 -140
q0 -172 -49 -334q-91 -122 -292.5 -209.5t-407.5 -87.5z" />
    <glyph glyph-name="uniFC71.rlig" unicode="&#xfe98;&#xfeb0;" horiz-adv-x="1314" 
d="M674 1159l147 152h21l125 -125l120 125h21l152 -152l-148 -149h-20l-125 123l-121 -123h-21zM223 1004l148 151h20l152 -151l-148 -150h-20zM-102 -338v74q622 165 622 416q0 128 -227 321l100 229h72q120 -153 240 -153q69 0 118.5 50t94.5 181l26 78h70l55 -334
q26 -146 78 -198t168 -52v-221l-51 -53q-110 0 -175 37.5t-105.5 126.5t-70.5 258l-18 96q-28 -127 -85.5 -185.5t-143.5 -58.5q-24 0 -56 7q-3 -367 -305 -773z" />
    <glyph glyph-name="uniFC7A.rlig" unicode="&#xfe9c;&#xfef0;" horiz-adv-x="1923" 
d="M1083 1380l134 138h18l137 -138l-133 -135h-20zM942 1112l148 152h20l125 -125l121 125h20l152 -152l-148 -149h-20l-125 122l-121 -122h-20zM629 -547q-143 0 -250 41t-169.5 114t-93 165.5t-30.5 203.5q0 204 88 447l74 -23q-47 -161 -47 -282q0 -176 113 -273.5
t352 -97.5q186 0 361.5 64t266.5 153q-24 17 -71 29.5t-146 30.5l-143 26q-119 22 -172 75.5t-53 154.5q0 91 46 187.5t118 171.5t166.5 123t185.5 48q104 0 188.5 -62t175.5 -210l58 -97q59 -94 119.5 -131t156.5 -37v-221l-51 -53q-131 0 -221 62t-185 217l-57 96
q-59 96 -116 135t-144 39q-106 0 -210.5 -56.5t-104.5 -105.5q0 -26 30 -39.5t115 -28.5l143 -26q148 -27 202 -69t54 -140q0 -172 -49 -334q-91 -122 -292.5 -209.5t-407.5 -87.5z" />
    <glyph glyph-name="uniFE9CFB8B.rlig" unicode="&#xfe9c;&#xfb8b;" horiz-adv-x="1314" 
d="M823 1427l133 138h19l137 -138l-133 -135h-21zM238 1272l133 137h18l137 -137l-133 -135h-20zM682 1159l147 152h21l125 -125l121 125h20l152 -152l-148 -149h-20l-125 123l-121 -123h-20zM96 1004l148 151h20l125 -125l121 125h20l152 -151l-147 -150h-21l-125 123
l-121 -123h-20zM-102 -338v74q622 165 622 416q0 128 -227 321l100 229h72q120 -153 240 -153q69 0 118.5 50t94.5 181l26 78h70l55 -334q26 -146 78 -198t168 -52v-221l-51 -53q-110 0 -175 37.5t-105.5 126.5t-70.5 258l-18 96q-28 -127 -85.5 -185.5t-143.5 -58.5
q-24 0 -56 7q-3 -367 -305 -773z" />
    <glyph glyph-name="uniFC79.rlig" unicode="&#xfe9c;&#xfee6;" horiz-adv-x="1921" 
d="M1405 1427l133 138h18l138 -138l-133 -135h-21zM1264 1159l147 152h21l124 -125l121 125h21l151 -152l-147 -149h-21l-125 123l-120 -123h-21zM557 -391q-223 0 -347 122.5t-124 340.5q0 181 82 399l65 -20q-34 -112 -34 -222q0 -161 98.5 -243t286.5 -82q143 0 274.5 46
t226.5 126q-28 152 -186 397l100 229h70q122 -153 244 -153q71 0 117 48.5t92 182.5l26 78h72l55 -334q25 -145 77 -197.5t169 -52.5v-221l-53 -53q-83 0 -137 19t-95.5 69t-67.5 128t-50 206l-17 96q-27 -128 -83 -186t-144 -58q-51 0 -103 25q7 -61 7 -102
q0 -182 -54 -355q-103 -109 -253 -171t-314 -62zM408 588l147 151h20l152 -151l-147 -150h-21z" />
    <glyph glyph-name="uniFC76.rlig" unicode="&#xfe9c;&#xfeae;" horiz-adv-x="1314" 
d="M823 1427l133 138h19l137 -138l-133 -135h-21zM682 1159l147 152h21l125 -125l121 125h20l152 -152l-148 -149h-20l-125 123l-121 -123h-20zM-102 -338v74q622 165 622 416q0 128 -227 321l100 229h72q120 -153 240 -153q69 0 118.5 50t94.5 181l26 78h70l55 -334
q26 -146 78 -198t168 -52v-221l-51 -53q-110 0 -175 37.5t-105.5 126.5t-70.5 258l-18 96q-28 -127 -85.5 -185.5t-143.5 -58.5q-24 0 -56 7q-3 -367 -305 -773z" />
    <glyph glyph-name="uniFE9CFB8D.rlig" unicode="&#xfe9c;&#xfb8d;" horiz-adv-x="1314" 
d="M823 1427l133 138h19l137 -138l-133 -135h-21zM70 977v20h131q17 28 55 76l-20 195q-62 95 47 168h39v-70l43 -63v-3l-43 -28v-125q82 82 159 82q63 0 105.5 -43t42.5 -101q0 -64 -41 -157q-109 -51 -291 -51h-80zM682 1159l147 152h21l125 -125l121 125h20l152 -152
l-148 -149h-20l-125 123l-121 -123h-20zM449 1104q-91 0 -177 -107h33q158 0 260 31q-10 37 -42 56.5t-74 19.5zM-102 -338v74q622 165 622 416q0 128 -227 321l100 229h72q120 -153 240 -153q69 0 118.5 50t94.5 181l26 78h70l55 -334q26 -146 78 -198t168 -52v-221
l-51 -53q-110 0 -175 37.5t-105.5 126.5t-70.5 258l-18 96q-28 -127 -85.5 -185.5t-143.5 -58.5q-24 0 -56 7q-3 -367 -305 -773z" />
    <glyph glyph-name="uniFC7B.rlig" unicode="&#xfe9c;&#xfef2;" horiz-adv-x="1923" 
d="M1083 1380l134 138h18l137 -138l-133 -135h-20zM942 1112l148 152h20l125 -125l121 125h20l152 -152l-148 -149h-20l-125 122l-121 -122h-20zM629 -547q-143 0 -250 41t-169.5 114t-93 165.5t-30.5 203.5q0 204 88 447l74 -23q-47 -161 -47 -282q0 -176 113 -273.5
t352 -97.5q186 0 361.5 64t266.5 153q-24 17 -71 29.5t-146 30.5l-143 26q-119 22 -172 75.5t-53 154.5q0 91 46 187.5t118 171.5t166.5 123t185.5 48q104 0 188.5 -62t175.5 -210l58 -97q59 -94 119.5 -131t156.5 -37v-221l-51 -53q-131 0 -221 62t-185 217l-57 96
q-59 96 -116 135t-144 39q-106 0 -210.5 -56.5t-104.5 -105.5q0 -26 30 -39.5t115 -28.5l143 -26q148 -27 202 -69t54 -140q0 -172 -49 -334q-91 -122 -292.5 -209.5t-407.5 -87.5zM446 -858l148 151h20l125 -124l121 124h21l151 -151l-147 -150h-21l-125 123l-121 -123h-20
z" />
    <glyph glyph-name="uniFE9CFE8A.rlig" unicode="&#xfe9c;&#xfe8a;" horiz-adv-x="1923" 
d="M1083 1380l134 138h18l137 -138l-133 -135h-20zM942 1112l148 152h20l125 -125l121 125h20l152 -152l-148 -149h-20l-125 122l-121 -122h-20zM33 588l106 76q-65 54 -65 118q0 75 72 149.5t147 74.5q52 0 79 -26t27 -62q0 -57 -24 -95l-133 51q-40 -8 -71.5 -27.5
t-31.5 -37.5q0 -36 81.5 -53.5t170.5 -5.5l66 10l6 -8l-27 -144l-403 -67v47zM629 -547q-143 0 -250 41t-169.5 114t-93 165.5t-30.5 203.5q0 204 88 447l74 -23q-47 -161 -47 -282q0 -176 113 -273.5t352 -97.5q186 0 361.5 64t266.5 153q-24 17 -71 29.5t-146 30.5
l-143 26q-119 22 -172 75.5t-53 154.5q0 91 46 187.5t118 171.5t166.5 123t185.5 48q104 0 188.5 -62t175.5 -210l58 -97q59 -94 119.5 -131t156.5 -37v-221l-51 -53q-131 0 -221 62t-185 217l-57 96q-59 96 -116 135t-144 39q-106 0 -210.5 -56.5t-104.5 -105.5
q0 -26 30 -39.5t115 -28.5l143 -26q148 -27 202 -69t54 -140q0 -172 -49 -334q-91 -122 -292.5 -209.5t-407.5 -87.5z" />
    <glyph glyph-name="uniFC77.rlig" unicode="&#xfe9c;&#xfeb0;" horiz-adv-x="1314" 
d="M823 1427l133 138h19l137 -138l-133 -135h-21zM682 1159l147 152h21l125 -125l121 125h20l152 -152l-148 -149h-20l-125 123l-121 -123h-20zM223 1004l148 151h20l152 -151l-148 -150h-20zM-102 -338v74q622 165 622 416q0 128 -227 321l100 229h72q120 -153 240 -153
q69 0 118.5 50t94.5 181l26 78h70l55 -334q26 -146 78 -198t168 -52v-221l-51 -53q-110 0 -175 37.5t-105.5 126.5t-70.5 258l-18 96q-28 -127 -85.5 -185.5t-143.5 -58.5q-24 0 -56 7q-3 -367 -305 -773z" />
    <glyph glyph-name="uniFB69FEF0.rlig" unicode="&#xfb69;&#xfef0;" horiz-adv-x="1923" 
d="M913 1085v21h131q13 21 56 76l-21 194q-62 95 47 168h39v-69l43 -64v-2l-43 -29v-125q82 82 160 82q63 0 105.5 -42.5t42.5 -100.5q0 -65 -41 -158q-109 -51 -291 -51h-80zM1292 1212q-48 0 -89.5 -24.5t-86.5 -81.5h33q158 0 260 31q-10 37 -42.5 56t-74.5 19zM629 -547
q-143 0 -250 41t-169.5 114t-93 165.5t-30.5 203.5q0 204 88 447l74 -23q-47 -161 -47 -282q0 -176 113 -273.5t352 -97.5q186 0 361.5 64t266.5 153q-24 17 -71 29.5t-146 30.5l-143 26q-119 22 -172 75.5t-53 154.5q0 91 46 187.5t118 171.5t166.5 123t185.5 48
q104 0 188.5 -62t175.5 -210l58 -97q59 -94 119.5 -131t156.5 -37v-221l-51 -53q-131 0 -221 62t-185 217l-57 96q-59 96 -116 135t-144 39q-106 0 -210.5 -56.5t-104.5 -105.5q0 -26 30 -39.5t115 -28.5l143 -26q148 -27 202 -69t54 -140q0 -172 -49 -334
q-91 -122 -292.5 -209.5t-407.5 -87.5z" />
    <glyph glyph-name="uniFB69FB8B.rlig" unicode="&#xfb69;&#xfb8b;" horiz-adv-x="1314" 
d="M655 1133v20h131q13 21 56 76l-21 194q-62 95 47 168h39v-69l43 -64v-2l-43 -29v-124q81 81 160 81q63 0 105 -42.5t42 -100.5q0 -67 -40 -158q-109 -51 -291 -51h-80zM238 1272l133 137h18l137 -137l-133 -135h-20zM1034 1260q-47 0 -88.5 -25t-87.5 -82h33
q158 0 260 31q-10 37 -42.5 56.5t-74.5 19.5zM96 1004l148 151h20l125 -125l121 125h20l152 -151l-147 -150h-21l-125 123l-121 -123h-20zM-102 -338v74q622 165 622 416q0 128 -227 321l100 229h72q120 -153 240 -153q69 0 118.5 50t94.5 181l26 78h70l55 -334
q26 -146 78 -198t168 -52v-221l-51 -53q-110 0 -175 37.5t-105.5 126.5t-70.5 258l-18 96q-28 -127 -85.5 -185.5t-143.5 -58.5q-24 0 -56 7q-3 -367 -305 -773z" />
    <glyph glyph-name="uniFB69FEE6.rlig" unicode="&#xfb69;&#xfee6;" horiz-adv-x="1921" 
d="M1237 1133v20h131q17 28 55 76l-20 194q-62 95 47 168h39v-69l43 -64v-2l-43 -29v-124q81 81 160 81q63 0 105 -42.5t42 -100.5q0 -65 -41 -158q-109 -51 -291 -51h-80zM1616 1260q-47 0 -88.5 -25t-87.5 -82h33q158 0 260 31q-10 37 -42.5 56.5t-74.5 19.5zM557 -391
q-223 0 -347 122.5t-124 340.5q0 181 82 399l65 -20q-34 -112 -34 -222q0 -161 98.5 -243t286.5 -82q143 0 274.5 46t226.5 126q-28 152 -186 397l100 229h70q122 -153 244 -153q71 0 117 48.5t92 182.5l26 78h72l55 -334q25 -145 77 -197.5t169 -52.5v-221l-53 -53
q-83 0 -137 19t-95.5 69t-67.5 128t-50 206l-17 96q-27 -128 -83 -186t-144 -58q-51 0 -103 25q7 -61 7 -102q0 -182 -54 -355q-103 -109 -253 -171t-314 -62zM408 588l147 151h20l152 -151l-147 -150h-21z" />
    <glyph glyph-name="uniFB69FEAE.rlig" unicode="&#xfb69;&#xfeae;" horiz-adv-x="1314" 
d="M655 1133v20h131q13 21 56 76l-21 194q-62 95 47 168h39v-69l43 -64v-2l-43 -29v-124q81 81 160 81q63 0 105 -42.5t42 -100.5q0 -67 -40 -158q-109 -51 -291 -51h-80zM1034 1260q-47 0 -88.5 -25t-87.5 -82h33q158 0 260 31q-10 37 -42.5 56.5t-74.5 19.5zM-102 -338v74
q622 165 622 416q0 128 -227 321l100 229h72q120 -153 240 -153q69 0 118.5 50t94.5 181l26 78h70l55 -334q26 -146 78 -198t168 -52v-221l-51 -53q-110 0 -175 37.5t-105.5 126.5t-70.5 258l-18 96q-28 -127 -85.5 -185.5t-143.5 -58.5q-24 0 -56 7q-3 -367 -305 -773z" />
    <glyph glyph-name="uniFB69FB8D.rlig" unicode="&#xfb69;&#xfb8d;" horiz-adv-x="1314" 
d="M655 1133v20h131q13 21 56 76l-21 194q-62 95 47 168h39v-69l43 -64v-2l-43 -29v-124q81 81 160 81q63 0 105 -42.5t42 -100.5q0 -67 -40 -158q-109 -51 -291 -51h-80zM70 977v20h131q17 28 55 76l-20 195q-62 95 47 168h39v-70l43 -63v-3l-43 -28v-125q82 82 159 82
q63 0 105.5 -43t42.5 -101q0 -64 -41 -157q-109 -51 -291 -51h-80zM1034 1260q-47 0 -88.5 -25t-87.5 -82h33q158 0 260 31q-10 37 -42.5 56.5t-74.5 19.5zM449 1104q-91 0 -177 -107h33q158 0 260 31q-10 37 -42 56.5t-74 19.5zM-102 -338v74q622 165 622 416
q0 128 -227 321l100 229h72q120 -153 240 -153q69 0 118.5 50t94.5 181l26 78h70l55 -334q26 -146 78 -198t168 -52v-221l-51 -53q-110 0 -175 37.5t-105.5 126.5t-70.5 258l-18 96q-28 -127 -85.5 -185.5t-143.5 -58.5q-24 0 -56 7q-3 -367 -305 -773z" />
    <glyph glyph-name="uniFB69FEF2.rlig" unicode="&#xfb69;&#xfef2;" horiz-adv-x="1923" 
d="M913 1085v21h131q13 21 56 76l-21 194q-62 95 47 168h39v-69l43 -64v-2l-43 -29v-125q82 82 160 82q63 0 105.5 -42.5t42.5 -100.5q0 -65 -41 -158q-109 -51 -291 -51h-80zM1292 1212q-48 0 -89.5 -24.5t-86.5 -81.5h33q158 0 260 31q-10 37 -42.5 56t-74.5 19zM629 -547
q-143 0 -250 41t-169.5 114t-93 165.5t-30.5 203.5q0 204 88 447l74 -23q-47 -161 -47 -282q0 -176 113 -273.5t352 -97.5q186 0 361.5 64t266.5 153q-24 17 -71 29.5t-146 30.5l-143 26q-119 22 -172 75.5t-53 154.5q0 91 46 187.5t118 171.5t166.5 123t185.5 48
q104 0 188.5 -62t175.5 -210l58 -97q59 -94 119.5 -131t156.5 -37v-221l-51 -53q-131 0 -221 62t-185 217l-57 96q-59 96 -116 135t-144 39q-106 0 -210.5 -56.5t-104.5 -105.5q0 -26 30 -39.5t115 -28.5l143 -26q148 -27 202 -69t54 -140q0 -172 -49 -334
q-91 -122 -292.5 -209.5t-407.5 -87.5zM446 -858l148 151h20l125 -124l121 124h21l151 -151l-147 -150h-21l-125 123l-121 -123h-20z" />
    <glyph glyph-name="uniFB69FE8A.rlig" unicode="&#xfb69;&#xfe8a;" horiz-adv-x="1923" 
d="M913 1085v21h131q13 21 56 76l-21 194q-62 95 47 168h39v-69l43 -64v-2l-43 -29v-125q82 82 160 82q63 0 105.5 -42.5t42.5 -100.5q0 -65 -41 -158q-109 -51 -291 -51h-80zM1292 1212q-48 0 -89.5 -24.5t-86.5 -81.5h33q158 0 260 31q-10 37 -42.5 56t-74.5 19zM33 588
l106 76q-65 54 -65 118q0 75 72 149.5t147 74.5q52 0 79 -26t27 -62q0 -57 -24 -95l-133 51q-40 -8 -71.5 -27.5t-31.5 -37.5q0 -36 81.5 -53.5t170.5 -5.5l66 10l6 -8l-27 -144l-403 -67v47zM629 -547q-143 0 -250 41t-169.5 114t-93 165.5t-30.5 203.5q0 204 88 447
l74 -23q-47 -161 -47 -282q0 -176 113 -273.5t352 -97.5q186 0 361.5 64t266.5 153q-24 17 -71 29.5t-146 30.5l-143 26q-119 22 -172 75.5t-53 154.5q0 91 46 187.5t118 171.5t166.5 123t185.5 48q104 0 188.5 -62t175.5 -210l58 -97q59 -94 119.5 -131t156.5 -37v-221
l-51 -53q-131 0 -221 62t-185 217l-57 96q-59 96 -116 135t-144 39q-106 0 -210.5 -56.5t-104.5 -105.5q0 -26 30 -39.5t115 -28.5l143 -26q148 -27 202 -69t54 -140q0 -172 -49 -334q-91 -122 -292.5 -209.5t-407.5 -87.5z" />
    <glyph glyph-name="uniFB69FEB0.rlig" unicode="&#xfb69;&#xfeb0;" horiz-adv-x="1314" 
d="M655 1133v20h131q13 21 56 76l-21 194q-62 95 47 168h39v-69l43 -64v-2l-43 -29v-124q81 81 160 81q63 0 105 -42.5t42 -100.5q0 -67 -40 -158q-109 -51 -291 -51h-80zM1034 1260q-47 0 -88.5 -25t-87.5 -82h33q158 0 260 31q-10 37 -42.5 56.5t-74.5 19.5zM223 1004
l148 151h20l152 -151l-148 -150h-20zM-102 -338v74q622 165 622 416q0 128 -227 321l100 229h72q120 -153 240 -153q69 0 118.5 50t94.5 181l26 78h70l55 -334q26 -146 78 -198t168 -52v-221l-51 -53q-110 0 -175 37.5t-105.5 126.5t-70.5 258l-18 96q-28 -127 -85.5 -185.5
t-143.5 -58.5q-24 0 -56 7q-3 -367 -305 -773z" />
    <glyph glyph-name="uniFC68.rlig" unicode="&#xfe8c;&#xfef0;" horiz-adv-x="1923" 
d="M1010 997l106 76q-65 54 -65 119q0 75 72 149t147 74q52 0 79 -26t27 -62q0 -56 -24 -94l-133 51q-40 -8 -71.5 -27.5t-31.5 -37.5q0 -36 81.5 -54t170.5 -6l66 10l6 -8l-27 -143l-403 -68v47zM629 -547q-143 0 -250 41t-169.5 114t-93 165.5t-30.5 203.5q0 204 88 447
l74 -23q-47 -161 -47 -282q0 -176 113 -273.5t352 -97.5q186 0 361.5 64t266.5 153q-24 17 -71 29.5t-146 30.5l-143 26q-119 22 -172 75.5t-53 154.5q0 91 46 187.5t118 171.5t166.5 123t185.5 48q104 0 188.5 -62t175.5 -210l58 -97q59 -94 119.5 -131t156.5 -37v-221
l-51 -53q-131 0 -221 62t-185 217l-57 96q-59 96 -116 135t-144 39q-106 0 -210.5 -56.5t-104.5 -105.5q0 -26 30 -39.5t115 -28.5l143 -26q148 -27 202 -69t54 -140q0 -172 -49 -334q-91 -122 -292.5 -209.5t-407.5 -87.5z" />
    <glyph glyph-name="uniFE8CFB8B.rlig" unicode="&#xfe8c;&#xfb8b;" horiz-adv-x="1314" 
d="M752 1044l106 76q-65 54 -65 119q0 75 72 149t147 74q52 0 79 -26t27 -62q0 -56 -24 -94l-133 51q-40 -8 -71.5 -27.5t-31.5 -37.5q0 -36 81.5 -54t170.5 -6l66 11l6 -9l-27 -143l-403 -68v47zM238 1272l133 137h18l137 -137l-133 -135h-20zM96 1004l148 151h20l125 -125
l121 125h20l152 -151l-147 -150h-21l-125 123l-121 -123h-20zM-102 -338v74q622 165 622 416q0 128 -227 321l100 229h72q120 -153 240 -153q69 0 118.5 50t94.5 181l26 78h70l55 -334q26 -146 78 -198t168 -52v-221l-51 -53q-110 0 -175 37.5t-105.5 126.5t-70.5 258
l-18 96q-28 -127 -85.5 -185.5t-143.5 -58.5q-24 0 -56 7q-3 -367 -305 -773z" />
    <glyph glyph-name="uniFC67.rlig" unicode="&#xfe8c;&#xfee6;" horiz-adv-x="1921" 
d="M1333 1044l107 76q-66 55 -66 119q0 75 72 149t147 74q52 0 79.5 -26t27.5 -62q0 -54 -25 -94l-133 51q-40 -8 -71 -27t-31 -38q0 -36 81.5 -54t170.5 -6l65 11l6 -9l-26 -143l-404 -68v47zM557 -391q-223 0 -347 122.5t-124 340.5q0 181 82 399l65 -20
q-34 -112 -34 -222q0 -161 98.5 -243t286.5 -82q143 0 274.5 46t226.5 126q-28 152 -186 397l100 229h70q122 -153 244 -153q71 0 117 48.5t92 182.5l26 78h72l55 -334q25 -145 77 -197.5t169 -52.5v-221l-53 -53q-83 0 -137 19t-95.5 69t-67.5 128t-50 206l-17 96
q-27 -128 -83 -186t-144 -58q-51 0 -103 25q7 -61 7 -102q0 -182 -54 -355q-103 -109 -253 -171t-314 -62zM408 588l147 151h20l152 -151l-147 -150h-21z" />
    <glyph glyph-name="uniFC64.rlig" unicode="&#xfe8c;&#xfeae;" horiz-adv-x="1314" 
d="M752 1044l106 76q-65 54 -65 119q0 75 72 149t147 74q52 0 79 -26t27 -62q0 -56 -24 -94l-133 51q-40 -8 -71.5 -27.5t-31.5 -37.5q0 -36 81.5 -54t170.5 -6l66 11l6 -9l-27 -143l-403 -68v47zM-102 -338v74q622 165 622 416q0 128 -227 321l100 229h72
q120 -153 240 -153q69 0 118.5 50t94.5 181l26 78h70l55 -334q26 -146 78 -198t168 -52v-221l-51 -53q-110 0 -175 37.5t-105.5 126.5t-70.5 258l-18 96q-28 -127 -85.5 -185.5t-143.5 -58.5q-24 0 -56 7q-3 -367 -305 -773z" />
    <glyph glyph-name="uniFE8CFB8D.rlig" unicode="&#xfe8c;&#xfb8d;" horiz-adv-x="1314" 
d="M752 1044l106 76q-65 54 -65 119q0 75 72 149t147 74q52 0 79 -26t27 -62q0 -56 -24 -94l-133 51q-40 -8 -71.5 -27.5t-31.5 -37.5q0 -36 81.5 -54t170.5 -6l66 11l6 -9l-27 -143l-403 -68v47zM70 977v20h131q17 28 55 76l-20 195q-62 95 47 168h39v-70l43 -63v-3
l-43 -28v-125q82 82 159 82q63 0 105.5 -43t42.5 -101q0 -64 -41 -157q-109 -51 -291 -51h-80zM449 1104q-91 0 -177 -107h33q158 0 260 31q-10 37 -42 56.5t-74 19.5zM-102 -338v74q622 165 622 416q0 128 -227 321l100 229h72q120 -153 240 -153q69 0 118.5 50t94.5 181
l26 78h70l55 -334q26 -146 78 -198t168 -52v-221l-51 -53q-110 0 -175 37.5t-105.5 126.5t-70.5 258l-18 96q-28 -127 -85.5 -185.5t-143.5 -58.5q-24 0 -56 7q-3 -367 -305 -773z" />
    <glyph glyph-name="uniFC69.rlig" unicode="&#xfe8c;&#xfef2;" horiz-adv-x="1923" 
d="M1010 997l106 76q-65 54 -65 119q0 75 72 149t147 74q52 0 79 -26t27 -62q0 -56 -24 -94l-133 51q-40 -8 -71.5 -27.5t-31.5 -37.5q0 -36 81.5 -54t170.5 -6l66 10l6 -8l-27 -143l-403 -68v47zM629 -547q-143 0 -250 41t-169.5 114t-93 165.5t-30.5 203.5q0 204 88 447
l74 -23q-47 -161 -47 -282q0 -176 113 -273.5t352 -97.5q186 0 361.5 64t266.5 153q-24 17 -71 29.5t-146 30.5l-143 26q-119 22 -172 75.5t-53 154.5q0 91 46 187.5t118 171.5t166.5 123t185.5 48q104 0 188.5 -62t175.5 -210l58 -97q59 -94 119.5 -131t156.5 -37v-221
l-51 -53q-131 0 -221 62t-185 217l-57 96q-59 96 -116 135t-144 39q-106 0 -210.5 -56.5t-104.5 -105.5q0 -26 30 -39.5t115 -28.5l143 -26q148 -27 202 -69t54 -140q0 -172 -49 -334q-91 -122 -292.5 -209.5t-407.5 -87.5zM446 -858l148 151h20l125 -124l121 124h21
l151 -151l-147 -150h-21l-125 123l-121 -123h-20z" />
    <glyph glyph-name="uniFE8CFE8A.rlig" unicode="&#xfe8c;&#xfe8a;" horiz-adv-x="1923" 
d="M1010 997l106 76q-65 54 -65 119q0 75 72 149t147 74q52 0 79 -26t27 -62q0 -56 -24 -94l-133 51q-40 -8 -71.5 -27.5t-31.5 -37.5q0 -36 81.5 -54t170.5 -6l66 10l6 -8l-27 -143l-403 -68v47zM33 588l106 76q-65 54 -65 118q0 75 72 149.5t147 74.5q52 0 79 -26t27 -62
q0 -57 -24 -95l-133 51q-40 -8 -71.5 -27.5t-31.5 -37.5q0 -36 81.5 -53.5t170.5 -5.5l66 10l6 -8l-27 -144l-403 -67v47zM629 -547q-143 0 -250 41t-169.5 114t-93 165.5t-30.5 203.5q0 204 88 447l74 -23q-47 -161 -47 -282q0 -176 113 -273.5t352 -97.5q186 0 361.5 64
t266.5 153q-24 17 -71 29.5t-146 30.5l-143 26q-119 22 -172 75.5t-53 154.5q0 91 46 187.5t118 171.5t166.5 123t185.5 48q104 0 188.5 -62t175.5 -210l58 -97q59 -94 119.5 -131t156.5 -37v-221l-51 -53q-131 0 -221 62t-185 217l-57 96q-59 96 -116 135t-144 39
q-106 0 -210.5 -56.5t-104.5 -105.5q0 -26 30 -39.5t115 -28.5l143 -26q148 -27 202 -69t54 -140q0 -172 -49 -334q-91 -122 -292.5 -209.5t-407.5 -87.5z" />
    <glyph glyph-name="uniFC65.rlig" unicode="&#xfe8c;&#xfeb0;" horiz-adv-x="1314" 
d="M752 1044l106 76q-65 54 -65 119q0 75 72 149t147 74q52 0 79 -26t27 -62q0 -56 -24 -94l-133 51q-40 -8 -71.5 -27.5t-31.5 -37.5q0 -36 81.5 -54t170.5 -6l66 11l6 -9l-27 -143l-403 -68v47zM223 1004l148 151h20l152 -151l-148 -150h-20zM-102 -338v74
q622 165 622 416q0 128 -227 321l100 229h72q120 -153 240 -153q69 0 118.5 50t94.5 181l26 78h70l55 -334q26 -146 78 -198t168 -52v-221l-51 -53q-110 0 -175 37.5t-105.5 126.5t-70.5 258l-18 96q-28 -127 -85.5 -185.5t-143.5 -58.5q-24 0 -56 7q-3 -367 -305 -773z" />
    <glyph glyph-name="uniFC95.rlig" unicode="&#xfbff;&#xfbfd;" horiz-adv-x="1923" 
d="M629 -547q-143 0 -250 41t-169.5 114t-93 165.5t-30.5 203.5q0 204 88 447l74 -23q-47 -161 -47 -282q0 -176 113 -273.5t352 -97.5q186 0 361.5 64t266.5 153q-24 17 -71 29.5t-146 30.5l-143 26q-119 22 -172 75.5t-53 154.5q0 91 46 187.5t118 171.5t166.5 123
t185.5 48q104 0 188.5 -62t175.5 -210l58 -97q59 -94 119.5 -131t156.5 -37v-221l-51 -53q-131 0 -221 62t-185 217l-57 96q-59 96 -116 135t-144 39q-106 0 -210.5 -56.5t-104.5 -105.5q0 -26 30 -39.5t115 -28.5l143 -26q148 -27 202 -69t54 -140q0 -172 -49 -334
q-91 -122 -292.5 -209.5t-407.5 -87.5zM1100 -702l147 151h21l125 -125l120 125h21l152 -151l-148 -150h-20l-125 123l-121 -123h-21z" />
    <glyph glyph-name="uniFEF4FB8B.rlig" unicode="&#xfbff;&#xfb8b;" horiz-adv-x="1314" 
d="M238 1272l133 137h18l137 -137l-133 -135h-20zM96 1004l148 151h20l125 -125l121 125h20l152 -151l-147 -150h-21l-125 123l-121 -123h-20zM-102 -338v74q622 165 622 416q0 128 -227 321l100 229h72q120 -153 240 -153q69 0 118.5 50t94.5 181l26 78h70l55 -334
q26 -146 78 -198t168 -52v-221l-51 -53q-110 0 -175 37.5t-105.5 126.5t-70.5 258l-18 96q-28 -127 -85.5 -185.5t-143.5 -58.5q-24 0 -56 7q-3 -367 -305 -773zM590 -311l147 151h21l125 -125l121 125h20l152 -151l-148 -150h-20l-125 123l-121 -123h-21z" />
    <glyph glyph-name="uniFC94.rlig" unicode="&#xfef4;&#xfee6;" horiz-adv-x="1921" 
d="M557 -391q-223 0 -347 122.5t-124 340.5q0 181 82 399l65 -20q-34 -112 -34 -222q0 -161 98.5 -243t286.5 -82q143 0 274.5 46t226.5 126q-28 152 -186 397l100 229h70q122 -153 244 -153q71 0 117 48.5t92 182.5l26 78h72l55 -334q25 -145 77 -197.5t169 -52.5v-221
l-53 -53q-83 0 -137 19t-95.5 69t-67.5 128t-50 206l-17 96q-27 -128 -83 -186t-144 -58q-51 0 -103 25q7 -61 7 -102q0 -182 -54 -355q-103 -109 -253 -171t-314 -62zM408 588l147 151h20l152 -151l-147 -150h-21zM1255 -311l148 151h20l125 -125l121 125h21l151 -151
l-147 -150h-21l-125 123l-121 -123h-20z" />
    <glyph glyph-name="uniFBFFFEE6.rlig" unicode="&#xfbff;&#xfee6;" horiz-adv-x="1921" 
d="M557 -391q-223 0 -347 122.5t-124 340.5q0 181 82 399l65 -20q-34 -112 -34 -222q0 -161 98.5 -243t286.5 -82q143 0 274.5 46t226.5 126q-28 152 -186 397l100 229h70q122 -153 244 -153q71 0 117 48.5t92 182.5l26 78h72l55 -334q25 -145 77 -197.5t169 -52.5v-221
l-53 -53q-83 0 -137 19t-95.5 69t-67.5 128t-50 206l-17 96q-27 -128 -83 -186t-144 -58q-51 0 -103 25q7 -61 7 -102q0 -182 -54 -355q-103 -109 -253 -171t-314 -62zM408 588l147 151h20l152 -151l-147 -150h-21zM1255 -311l148 151h20l125 -125l121 125h21l151 -151
l-147 -150h-21l-125 123l-121 -123h-20z" />
    <glyph glyph-name="uniFBFFFB9F.rlig" unicode="&#xfbff;&#xfb9f;" horiz-adv-x="1921" 
d="M557 -391q-223 0 -347 122.5t-124 340.5q0 181 82 399l65 -20q-34 -112 -34 -222q0 -161 98.5 -243t286.5 -82q143 0 274.5 46t226.5 126q-28 152 -186 397l100 229h70q122 -153 244 -153q71 0 117 48.5t92 182.5l26 78h72l55 -334q25 -145 77 -197.5t169 -52.5v-221
l-53 -53q-83 0 -137 19t-95.5 69t-67.5 128t-50 206l-17 96q-27 -128 -83 -186t-144 -58q-51 0 -103 25q7 -61 7 -102q0 -182 -54 -355q-103 -109 -253 -171t-314 -62zM1255 -311l148 151h20l125 -125l121 125h21l151 -151l-147 -150h-21l-125 123l-121 -123h-20z" />
    <glyph glyph-name="uniFC91.rlig" unicode="&#xfbff;&#xfeae;" horiz-adv-x="1314" 
d="M-102 -338v74q622 165 622 416q0 128 -227 321l100 229h72q120 -153 240 -153q69 0 118.5 50t94.5 181l26 78h70l55 -334q26 -146 78 -198t168 -52v-221l-51 -53q-110 0 -175 37.5t-105.5 126.5t-70.5 258l-18 96q-28 -127 -85.5 -185.5t-143.5 -58.5q-24 0 -56 7
q-3 -367 -305 -773zM590 -311l147 151h21l125 -125l121 125h20l152 -151l-148 -150h-20l-125 123l-121 -123h-21z" />
    <glyph glyph-name="uniFEF4FB8D.rlig" unicode="&#xfbff;&#xfb8d;" horiz-adv-x="1314" 
d="M70 977v20h131q17 28 55 76l-20 195q-62 95 47 168h39v-70l43 -63v-3l-43 -28v-125q82 82 159 82q63 0 105.5 -43t42.5 -101q0 -64 -41 -157q-109 -51 -291 -51h-80zM449 1104q-91 0 -177 -107h33q158 0 260 31q-10 37 -42 56.5t-74 19.5zM-102 -338v74q622 165 622 416
q0 128 -227 321l100 229h72q120 -153 240 -153q69 0 118.5 50t94.5 181l26 78h70l55 -334q26 -146 78 -198t168 -52v-221l-51 -53q-110 0 -175 37.5t-105.5 126.5t-70.5 258l-18 96q-28 -127 -85.5 -185.5t-143.5 -58.5q-24 0 -56 7q-3 -367 -305 -773zM590 -311l147 151h21
l125 -125l121 125h20l152 -151l-148 -150h-20l-125 123l-121 -123h-21z" />
    <glyph glyph-name="uniFC96.rlig" unicode="&#xfef4;&#xfef2;" horiz-adv-x="1923" 
d="M629 -547q-143 0 -250 41t-169.5 114t-93 165.5t-30.5 203.5q0 204 88 447l74 -23q-47 -161 -47 -282q0 -176 113 -273.5t352 -97.5q186 0 361.5 64t266.5 153q-24 17 -71 29.5t-146 30.5l-143 26q-119 22 -172 75.5t-53 154.5q0 91 46 187.5t118 171.5t166.5 123
t185.5 48q104 0 188.5 -62t175.5 -210l58 -97q59 -94 119.5 -131t156.5 -37v-221l-51 -53q-131 0 -221 62t-185 217l-57 96q-59 96 -116 135t-144 39q-106 0 -210.5 -56.5t-104.5 -105.5q0 -26 30 -39.5t115 -28.5l143 -26q148 -27 202 -69t54 -140q0 -172 -49 -334
q-91 -122 -292.5 -209.5t-407.5 -87.5zM1100 -702l147 151h21l125 -125l120 125h21l152 -151l-148 -150h-20l-125 123l-121 -123h-21zM446 -858l148 151h20l125 -124l121 124h21l151 -151l-147 -150h-21l-125 123l-121 -123h-20z" />
    <glyph glyph-name="uniFEF4FE8A.rlig" unicode="&#xfef4;&#xfe8a;" horiz-adv-x="1923" 
d="M33 588l106 76q-65 54 -65 118q0 75 72 149.5t147 74.5q52 0 79 -26t27 -62q0 -57 -24 -95l-133 51q-40 -8 -71.5 -27.5t-31.5 -37.5q0 -36 81.5 -53.5t170.5 -5.5l66 10l6 -8l-27 -144l-403 -67v47zM629 -547q-143 0 -250 41t-169.5 114t-93 165.5t-30.5 203.5
q0 204 88 447l74 -23q-47 -161 -47 -282q0 -176 113 -273.5t352 -97.5q186 0 361.5 64t266.5 153q-24 17 -71 29.5t-146 30.5l-143 26q-119 22 -172 75.5t-53 154.5q0 91 46 187.5t118 171.5t166.5 123t185.5 48q104 0 188.5 -62t175.5 -210l58 -97q59 -94 119.5 -131
t156.5 -37v-221l-51 -53q-131 0 -221 62t-185 217l-57 96q-59 96 -116 135t-144 39q-106 0 -210.5 -56.5t-104.5 -105.5q0 -26 30 -39.5t115 -28.5l143 -26q148 -27 202 -69t54 -140q0 -172 -49 -334q-91 -122 -292.5 -209.5t-407.5 -87.5zM1100 -702l147 151h21l125 -125
l120 125h21l152 -151l-148 -150h-20l-125 123l-121 -123h-21z" />
    <glyph glyph-name="uniFC92.rlig" unicode="&#xfbff;&#xfeb0;" horiz-adv-x="1314" 
d="M223 1004l148 151h20l152 -151l-148 -150h-20zM-102 -338v74q622 165 622 416q0 128 -227 321l100 229h72q120 -153 240 -153q69 0 118.5 50t94.5 181l26 78h70l55 -334q26 -146 78 -198t168 -52v-221l-51 -53q-110 0 -175 37.5t-105.5 126.5t-70.5 258l-18 96
q-28 -127 -85.5 -185.5t-143.5 -58.5q-24 0 -56 7q-3 -367 -305 -773zM590 -311l147 151h21l125 -125l121 125h20l152 -151l-148 -150h-20l-125 123l-121 -123h-21z" />
    <glyph glyph-name="uniFCF7.rlig" unicode="&#xfecb;&#xfef0;" horiz-adv-x="2097" 
d="M637 -547q-146 0 -254.5 41t-172 114t-94 165t-30.5 204q0 204 88 447l74 -23q-47 -161 -47 -282q0 -176 112.5 -273.5t350.5 -97.5q187 0 364 52t283 137q-53 56 -236 90l-211 34l-6 11l66 260l389 55q-64 54 -99.5 131t-35.5 162q0 119 55 227t145 172t189 64
q112 0 199 -81.5t147 -225.5l-39 -50q-165 82 -332 82q-53 0 -100.5 -8.5t-88.5 -26t-64.5 -49t-22.5 -73.5q0 -76 87 -124.5t216 -53.5t278 28l160 41l10 -10l-65 -279l-613 -145q47 -50 47 -121q0 -178 -49 -332q-104 -115 -294.5 -188.5t-405.5 -73.5z" />
    <glyph glyph-name="uniFCF8.rlig" unicode="&#xfecb;&#xfef2;" horiz-adv-x="2097" 
d="M637 -547q-146 0 -254.5 41t-172 114t-94 165t-30.5 204q0 204 88 447l74 -23q-47 -161 -47 -282q0 -176 112.5 -273.5t350.5 -97.5q187 0 364 52t283 137q-53 56 -236 90l-211 34l-6 11l66 260l389 55q-64 54 -99.5 131t-35.5 162q0 119 55 227t145 172t189 64
q112 0 199 -81.5t147 -225.5l-39 -50q-165 82 -332 82q-53 0 -100.5 -8.5t-88.5 -26t-64.5 -49t-22.5 -73.5q0 -76 87 -124.5t216 -53.5t278 28l160 41l10 -10l-65 -279l-613 -145q47 -50 47 -121q0 -178 -49 -332q-104 -115 -294.5 -188.5t-405.5 -73.5zM436 -829l148 151
h20l125 -125l121 125h20l152 -151l-148 -150h-20l-125 123l-121 -123h-20z" />
    <glyph glyph-name="uniFECBFBFD.rlig" unicode="&#xfecb;&#xfbfd;" horiz-adv-x="2084" 
d="M637 -547q-146 0 -254.5 41t-172 114t-94 165t-30.5 204q0 204 88 447l74 -23q-47 -161 -47 -282q0 -176 112.5 -273.5t350.5 -97.5q187 0 364 52t283 137q-53 56 -236 90l-211 34l-6 11l66 260l389 55q-64 54 -99.5 131t-35.5 162q0 119 55 227t145 172t189 64
q112 0 199 -81.5t147 -225.5l-39 -50q-165 82 -332 82q-53 0 -100.5 -8.5t-88.5 -26t-64.5 -49t-22.5 -73.5q0 -76 83.5 -124t209.5 -54.5t276 22.5l162 35l8 -10l-66 -267l-630 -118q77 -56 77 -148q0 -178 -49 -332q-104 -115 -294.5 -188.5t-405.5 -73.5z" />
    <glyph glyph-name="uniFECBFE8A.rlig" unicode="&#xfecb;&#xfe8a;" horiz-adv-x="2097" 
d="M637 -547q-146 0 -254.5 41t-172 114t-94 165t-30.5 204q0 204 88 447l74 -23q-47 -161 -47 -282q0 -176 112.5 -273.5t350.5 -97.5q187 0 364 52t283 137q-53 56 -236 90l-211 34l-6 11l66 260l389 55q-64 54 -99.5 131t-35.5 162q0 119 55 227t145 172t189 64
q112 0 199 -81.5t147 -225.5l-39 -50q-165 82 -332 82q-53 0 -100.5 -8.5t-88.5 -26t-64.5 -49t-22.5 -73.5q0 -76 87 -124.5t216 -53.5t278 28l160 41l10 -10l-65 -279l-613 -145q47 -50 47 -121q0 -178 -49 -332q-104 -115 -294.5 -188.5t-405.5 -73.5zM33 588l106 76
q-65 54 -65 118q0 75 72 149.5t147 74.5q52 0 79 -26t27 -62q0 -57 -24 -95l-133 51q-40 -8 -71.5 -27.5t-31.5 -37.5q0 -36 81.5 -53.5t170.5 -5.5l66 10l6 -8l-27 -144l-403 -67v47z" />
    <glyph glyph-name="uniFC09.rlig" unicode="&#xfe91;&#xfef0;" horiz-adv-x="1447" 
d="M616 -391q-139 0 -243 41t-165.5 114t-91.5 165.5t-30 203.5q0 205 88 445l74 -23q-47 -161 -47 -281q0 -176 110 -273t334 -97q186 0 373 49.5t293 128.5q-49 40 -236 74l-317 51l-6 12l67 270q224 0 363 54q-48 134 -187 293l101 229h69q50 -90 79.5 -204t29.5 -216
q0 -131 -39 -246q-43 -29 -59 -37q117 -26 163.5 -67.5t46.5 -116.5q0 -164 -49 -307q-96 -107 -297 -184.5t-424 -77.5zM1096 -571l147 151h21l151 -151l-147 -150h-21z" />
    <glyph glyph-name="uniFC0A.rlig" unicode="&#xfe91;&#xfef2;" horiz-adv-x="1447" 
d="M616 -391q-139 0 -243 41t-165.5 114t-91.5 165.5t-30 203.5q0 205 88 445l74 -23q-47 -161 -47 -281q0 -176 110 -273t334 -97q186 0 373 49.5t293 128.5q-49 40 -236 74l-317 51l-6 12l67 270q224 0 363 54q-48 134 -187 293l101 229h69q50 -90 79.5 -204t29.5 -216
q0 -131 -39 -246q-43 -29 -59 -37q117 -26 163.5 -67.5t46.5 -116.5q0 -164 -49 -307q-96 -107 -297 -184.5t-424 -77.5zM1096 -571l147 151h21l151 -151l-147 -150h-21zM446 -676l148 152h20l125 -125l121 125h21l151 -152l-147 -149h-21l-125 123l-121 -123h-20z" />
    <glyph glyph-name="uniFE91FE8A.rlig" unicode="&#xfe91;&#xfe8a;" horiz-adv-x="1447" 
d="M33 741l106 76q-65 54 -65 119q0 75 72 149t147 74q52 0 79 -26t27 -62q0 -56 -24 -94l-133 51q-40 -8 -71.5 -27.5t-31.5 -37.5q0 -36 81.5 -54t170.5 -6l66 10l6 -8l-27 -143l-403 -68v47zM616 -391q-139 0 -243 41t-165.5 114t-91.5 165.5t-30 203.5q0 205 88 445
l74 -23q-47 -161 -47 -281q0 -176 110 -273t334 -97q186 0 373 49.5t293 128.5q-49 40 -236 74l-317 51l-6 12l67 270q224 0 363 54q-48 134 -187 293l101 229h69q50 -90 79.5 -204t29.5 -216q0 -131 -39 -246q-43 -29 -59 -37q117 -26 163.5 -67.5t46.5 -116.5
q0 -164 -49 -307q-96 -107 -297 -184.5t-424 -77.5zM1096 -571l147 151h21l151 -151l-147 -150h-21z" />
    <glyph glyph-name="uniFD07.rlig" unicode="&#xfebf;&#xfef0;" horiz-adv-x="2871" 
d="M1974 1159l148 152h20l152 -152l-148 -149h-20zM629 -547q-143 0 -250 41t-169.5 114t-93 165.5t-30.5 203.5q0 204 88 447l74 -23q-47 -161 -47 -282q0 -176 113 -273.5t352 -97.5q186 0 361.5 64t266.5 153q-24 17 -71 29.5t-146 30.5l-133 24q-126 23 -180.5 76.5
t-54.5 155.5q0 91 46 187.5t118 171.5t166.5 123t185.5 48q105 0 189 -62t175 -210l58 -97q58 -92 104 -133q206 294 365.5 421.5t318.5 127.5q151 0 253.5 -104.5t102.5 -249.5q0 -155 -98 -367q-120 -78 -324.5 -125t-424.5 -47q-77 0 -135.5 12t-103 33.5t-86.5 62.5
t-75 86.5t-78 119.5l-57 96q-59 96 -116 135t-144 39q-106 0 -210.5 -56.5t-104.5 -105.5q0 -26 30 -39.5t115 -28.5l143 -26q148 -27 202 -69t54 -140q0 -172 -49 -334q-91 -122 -292.5 -209.5t-407.5 -87.5zM2337 584q-135 0 -256 -74.5t-262 -243.5q56 -26 161 -26
q191 0 384.5 33t330.5 89q-39 94 -143.5 158t-214.5 64z" />
    <glyph glyph-name="uniFEBFFB8B.rlig" unicode="&#xfebf;&#xfb8b;" horiz-adv-x="2258" 
d="M1395 1167l147 152h21l151 -152l-147 -149h-21zM356 1085l133 138h19l137 -138l-133 -135h-20zM215 817l147 152h21l125 -125l121 125h20l152 -152l-148 -149h-20l-125 123l-121 -123h-20zM-102 -338v74q622 165 622 438l-96 113l100 229l447 84l14 -6v-244
q49 -53 127 -76q219 319 383.5 455.5t327.5 136.5q152 0 254 -103.5t102 -248.5q0 -157 -98 -369q-115 -85 -301 -132.5t-400 -47.5q-235 0 -358 75t-184 257l-228 -43q-16 -356 -305 -746zM1735 592q-139 0 -264 -78.5t-275 -259.5q77 -14 201 -14q189 0 369.5 32.5
t318.5 96.5q-38 95 -140 159t-210 64z" />
    <glyph glyph-name="uniFD10.rlig" unicode="&#xfebf;&#xfeae;" horiz-adv-x="2258" 
d="M1395 1167l147 152h21l151 -152l-147 -149h-21zM-102 -338v74q622 165 622 438l-96 113l100 229l447 84l14 -6v-244q49 -53 127 -76q219 319 383.5 455.5t327.5 136.5q152 0 254 -103.5t102 -248.5q0 -157 -98 -369q-115 -85 -301 -132.5t-400 -47.5q-235 0 -358 75
t-184 257l-228 -43q-16 -356 -305 -746zM1735 592q-139 0 -264 -78.5t-275 -259.5q77 -14 201 -14q189 0 369.5 32.5t318.5 96.5q-38 95 -140 159t-210 64z" />
    <glyph glyph-name="uniFEBFFB8D.rlig" unicode="&#xfebf;&#xfb8d;" horiz-adv-x="2258" 
d="M1395 1167l147 152h21l151 -152l-147 -149h-21zM188 791v20h131q13 21 56 76l-21 194q-62 95 47 168h39v-69l43 -64v-2l-43 -29v-124q81 81 160 81q63 0 105.5 -42.5t42.5 -100.5q0 -65 -41 -158q-109 -51 -291 -51h-80zM567 918q-47 0 -88.5 -25t-87.5 -82h33
q158 0 260 31q-10 37 -42.5 56.5t-74.5 19.5zM-102 -338v74q622 165 622 438l-96 113l100 229l447 84l14 -6v-244q49 -53 127 -76q219 319 383.5 455.5t327.5 136.5q152 0 254 -103.5t102 -248.5q0 -157 -98 -369q-115 -85 -301 -132.5t-400 -47.5q-235 0 -358 75t-184 257
l-228 -43q-16 -356 -305 -746zM1735 592q-139 0 -264 -78.5t-275 -259.5q77 -14 201 -14q189 0 369.5 32.5t318.5 96.5q-38 95 -140 159t-210 64z" />
    <glyph glyph-name="uniFD08.rlig" unicode="&#xfebf;&#xfef2;" horiz-adv-x="2871" 
d="M1974 1159l148 152h20l152 -152l-148 -149h-20zM629 -547q-143 0 -250 41t-169.5 114t-93 165.5t-30.5 203.5q0 204 88 447l74 -23q-47 -161 -47 -282q0 -176 113 -273.5t352 -97.5q186 0 361.5 64t266.5 153q-24 17 -71 29.5t-146 30.5l-133 24q-126 23 -180.5 76.5
t-54.5 155.5q0 91 46 187.5t118 171.5t166.5 123t185.5 48q105 0 189 -62t175 -210l58 -97q58 -92 104 -133q206 294 365.5 421.5t318.5 127.5q151 0 253.5 -104.5t102.5 -249.5q0 -155 -98 -367q-120 -78 -324.5 -125t-424.5 -47q-77 0 -135.5 12t-103 33.5t-86.5 62.5
t-75 86.5t-78 119.5l-57 96q-59 96 -116 135t-144 39q-106 0 -210.5 -56.5t-104.5 -105.5q0 -26 30 -39.5t115 -28.5l143 -26q148 -27 202 -69t54 -140q0 -172 -49 -334q-91 -122 -292.5 -209.5t-407.5 -87.5zM2337 584q-135 0 -256 -74.5t-262 -243.5q56 -26 161 -26
q191 0 384.5 33t330.5 89q-39 94 -143.5 158t-214.5 64zM446 -829l148 151h20l125 -125l121 125h21l151 -151l-147 -150h-21l-125 123l-121 -123h-20z" />
    <glyph glyph-name="uniFEBFFE8A.rlig" unicode="&#xfebf;&#xfe8a;" horiz-adv-x="2871" 
d="M1974 1159l148 152h20l152 -152l-148 -149h-20zM33 588l106 76q-65 54 -65 118q0 75 72 149.5t147 74.5q52 0 79 -26t27 -62q0 -57 -24 -95l-133 51q-40 -8 -71.5 -27.5t-31.5 -37.5q0 -36 81.5 -53.5t170.5 -5.5l66 10l6 -8l-27 -144l-403 -67v47zM629 -547
q-143 0 -250 41t-169.5 114t-93 165.5t-30.5 203.5q0 204 88 447l74 -23q-47 -161 -47 -282q0 -176 113 -273.5t352 -97.5q186 0 361.5 64t266.5 153q-24 17 -71 29.5t-146 30.5l-133 24q-126 23 -180.5 76.5t-54.5 155.5q0 91 46 187.5t118 171.5t166.5 123t185.5 48
q105 0 189 -62t175 -210l58 -97q58 -92 104 -133q206 294 365.5 421.5t318.5 127.5q151 0 253.5 -104.5t102.5 -249.5q0 -155 -98 -367q-120 -78 -324.5 -125t-424.5 -47q-77 0 -135.5 12t-103 33.5t-86.5 62.5t-75 86.5t-78 119.5l-57 96q-59 96 -116 135t-144 39
q-106 0 -210.5 -56.5t-104.5 -105.5q0 -26 30 -39.5t115 -28.5l143 -26q148 -27 202 -69t54 -140q0 -172 -49 -334q-91 -122 -292.5 -209.5t-407.5 -87.5zM2337 584q-135 0 -256 -74.5t-262 -243.5q56 -26 161 -26q191 0 384.5 33t330.5 89q-39 94 -143.5 158t-214.5 64z
" />
    <glyph glyph-name="uniFEBFFEB0.rlig" unicode="&#xfebf;&#xfeb0;" horiz-adv-x="2258" 
d="M1395 1167l147 152h21l151 -152l-147 -149h-21zM342 817l147 152h21l152 -152l-148 -149h-20zM-102 -338v74q622 165 622 438l-96 113l100 229l447 84l14 -6v-244q49 -53 127 -76q219 319 383.5 455.5t327.5 136.5q152 0 254 -103.5t102 -248.5q0 -157 -98 -369
q-115 -85 -301 -132.5t-400 -47.5q-235 0 -358 75t-184 257l-228 -43q-16 -356 -305 -746zM1735 592q-139 0 -264 -78.5t-275 -259.5q77 -14 201 -14q189 0 369.5 32.5t318.5 96.5q-38 95 -140 159t-210 64z" />
    <glyph glyph-name="uniFC31.rlig" unicode="&#xfed3;&#xfef0;" horiz-adv-x="1472" 
d="M803 1579l147 152h21l151 -152l-147 -149h-21zM627 -391q-142 0 -248.5 41t-169 114t-93 165.5t-30.5 203.5q0 205 88 445l74 -23q-47 -161 -47 -281q0 -177 110.5 -273.5t341.5 -96.5q192 0 366.5 47.5t285.5 136.5q-56 43 -230 66l-317 41l-6 12l67 237q248 0 389 66
q4 18 4 57q0 126 -41 232l-61 -164q-88 -49 -205 -49q-134 0 -209 71.5t-75 198.5q0 113 48 221.5t126 176t161 67.5q97 0 176.5 -80.5t125 -219t45.5 -304.5q0 -188 -52 -330q-29 -20 -65 -39q110 -26 155 -65t45 -105q0 -164 -49 -307q-104 -116 -296 -189t-414 -73z
M711 915q0 -84 204 -84q125 0 230 25q-45 92 -115.5 146.5t-150.5 54.5q-66 0 -117 -42.5t-51 -99.5z" />
    <glyph glyph-name="uniFC32.rlig" unicode="&#xfed3;&#xfef2;" horiz-adv-x="1472" 
d="M803 1579l147 152h21l151 -152l-147 -149h-21zM627 -391q-142 0 -248.5 41t-169 114t-93 165.5t-30.5 203.5q0 205 88 445l74 -23q-47 -161 -47 -281q0 -177 110.5 -273.5t341.5 -96.5q192 0 366.5 47.5t285.5 136.5q-56 43 -230 66l-317 41l-6 12l67 237q248 0 389 66
q4 18 4 57q0 126 -41 232l-61 -164q-88 -49 -205 -49q-134 0 -209 71.5t-75 198.5q0 113 48 221.5t126 176t161 67.5q97 0 176.5 -80.5t125 -219t45.5 -304.5q0 -188 -52 -330q-29 -20 -65 -39q110 -26 155 -65t45 -105q0 -164 -49 -307q-104 -116 -296 -189t-414 -73z
M711 915q0 -84 204 -84q125 0 230 25q-45 92 -115.5 146.5t-150.5 54.5q-66 0 -117 -42.5t-51 -99.5zM446 -676l148 152h20l125 -125l121 125h21l151 -152l-147 -149h-21l-125 123l-121 -123h-20z" />
    <glyph glyph-name="uniFED3FE8A.rlig" unicode="&#xfed3;&#xfe8a;" horiz-adv-x="1472" 
d="M803 1579l147 152h21l151 -152l-147 -149h-21zM627 -391q-142 0 -248.5 41t-169 114t-93 165.5t-30.5 203.5q0 205 88 445l74 -23q-47 -161 -47 -281q0 -177 110.5 -273.5t341.5 -96.5q192 0 366.5 47.5t285.5 136.5q-56 43 -230 66l-317 41l-6 12l67 237q248 0 389 66
q4 18 4 57q0 126 -41 232l-61 -164q-88 -49 -205 -49q-134 0 -209 71.5t-75 198.5q0 113 48 221.5t126 176t161 67.5q97 0 176.5 -80.5t125 -219t45.5 -304.5q0 -188 -52 -330q-29 -20 -65 -39q110 -26 155 -65t45 -105q0 -164 -49 -307q-104 -116 -296 -189t-414 -73z
M33 741l106 76q-65 54 -65 119q0 75 72 149t147 74q52 0 79 -26t27 -62q0 -56 -24 -94l-133 51q-40 -8 -71.5 -27.5t-31.5 -37.5q0 -36 81.5 -54t170.5 -6l66 10l6 -8l-27 -143l-403 -68v47zM711 915q0 -84 204 -84q125 0 230 25q-45 92 -115.5 146.5t-150.5 54.5
q-66 0 -117 -42.5t-51 -99.5z" />
    <glyph glyph-name="uniFB94FEF0.rlig" unicode="&#xfb94;&#xfef0;" horiz-adv-x="1517" 
d="M784 1350l72 145l664 274l43 -106l-770 -320zM629 -547q-143 0 -250 41t-169.5 114t-93 165.5t-30.5 203.5q0 204 88 447l74 -23q-47 -161 -47 -282q0 -175 112 -273t344 -98q176 0 361.5 52.5t292.5 136.5q-33 31 -101 50.5t-194 32.5l-246 27l-6 10l67 273
q295 12 445 102q-34 92 -144 172.5t-305 169.5l-57 -96h-12l-193 188l158 328l881 367l28 -70l-112 -178l-650 -266q257 -152 371.5 -279.5t114.5 -255.5q0 -99 -49 -244q-46 -29 -90 -47q82 -29 125.5 -78.5t43.5 -95.5q0 -178 -49 -332q-96 -107 -294.5 -184.5
t-413.5 -77.5z" />
    <glyph glyph-name="uniFB94FEF2.rlig" unicode="&#xfb94;&#xfef2;" horiz-adv-x="1517" 
d="M784 1350l72 145l664 274l43 -106l-770 -320zM629 -547q-143 0 -250 41t-169.5 114t-93 165.5t-30.5 203.5q0 204 88 447l74 -23q-47 -161 -47 -282q0 -175 112 -273t344 -98q176 0 361.5 52.5t292.5 136.5q-33 31 -101 50.5t-194 32.5l-246 27l-6 10l67 273
q295 12 445 102q-34 92 -144 172.5t-305 169.5l-57 -96h-12l-193 188l158 328l881 367l28 -70l-112 -178l-650 -266q257 -152 371.5 -279.5t114.5 -255.5q0 -99 -49 -244q-46 -29 -90 -47q82 -29 125.5 -78.5t43.5 -95.5q0 -178 -49 -332q-96 -107 -294.5 -184.5
t-413.5 -77.5zM446 -829l148 151h20l125 -125l121 125h21l151 -151l-147 -150h-21l-125 123l-121 -123h-20z" />
    <glyph glyph-name="uniFB94FE8A.rlig" unicode="&#xfb94;&#xfe8a;" horiz-adv-x="1517" 
d="M784 1350l72 145l664 274l43 -106l-770 -320zM629 -547q-143 0 -250 41t-169.5 114t-93 165.5t-30.5 203.5q0 204 88 447l74 -23q-47 -161 -47 -282q0 -175 112 -273t344 -98q176 0 361.5 52.5t292.5 136.5q-33 31 -101 50.5t-194 32.5l-246 27l-6 10l67 273
q295 12 445 102q-34 92 -144 172.5t-305 169.5l-57 -96h-12l-193 188l158 328l881 367l28 -70l-112 -178l-650 -266q257 -152 371.5 -279.5t114.5 -255.5q0 -99 -49 -244q-46 -29 -90 -47q82 -29 125.5 -78.5t43.5 -95.5q0 -178 -49 -332q-96 -107 -294.5 -184.5
t-413.5 -77.5zM33 588l106 76q-65 54 -65 118q0 75 72 149.5t147 74.5q52 0 79 -26t27 -62q0 -57 -24 -95l-133 51q-40 -8 -71.5 -27.5t-31.5 -37.5q0 -36 81.5 -53.5t170.5 -5.5l66 10l6 -8l-27 -144l-403 -67v47z" />
    <glyph glyph-name="uniFCF9.rlig" unicode="&#xfecf;&#xfef0;" horiz-adv-x="2097" 
d="M1366 1444l147 151h21l152 -151l-148 -150h-20zM637 -547q-146 0 -254.5 41t-172 114t-94 165t-30.5 204q0 204 88 447l74 -23q-47 -161 -47 -282q0 -176 112.5 -273.5t350.5 -97.5q187 0 364 52t283 137q-53 56 -236 90l-211 34l-6 11l66 260l389 55q-64 54 -99.5 131
t-35.5 162q0 119 55 227t145 172t189 64q112 0 199 -81.5t147 -225.5l-39 -50q-165 82 -332 82q-53 0 -100.5 -8.5t-88.5 -26t-64.5 -49t-22.5 -73.5q0 -76 87 -124.5t216 -53.5t278 28l160 41l10 -10l-65 -279l-613 -145q47 -50 47 -121q0 -178 -49 -332
q-104 -115 -294.5 -188.5t-405.5 -73.5z" />
    <glyph glyph-name="uniFCFA.rlig" unicode="&#xfecf;&#xfef2;" horiz-adv-x="2097" 
d="M1366 1444l147 151h21l152 -151l-148 -150h-20zM637 -547q-146 0 -254.5 41t-172 114t-94 165t-30.5 204q0 204 88 447l74 -23q-47 -161 -47 -282q0 -176 112.5 -273.5t350.5 -97.5q187 0 364 52t283 137q-53 56 -236 90l-211 34l-6 11l66 260l389 55q-64 54 -99.5 131
t-35.5 162q0 119 55 227t145 172t189 64q112 0 199 -81.5t147 -225.5l-39 -50q-165 82 -332 82q-53 0 -100.5 -8.5t-88.5 -26t-64.5 -49t-22.5 -73.5q0 -76 87 -124.5t216 -53.5t278 28l160 41l10 -10l-65 -279l-613 -145q47 -50 47 -121q0 -178 -49 -332
q-104 -115 -294.5 -188.5t-405.5 -73.5zM436 -829l148 151h20l125 -125l121 125h20l152 -151l-148 -150h-20l-125 123l-121 -123h-20z" />
    <glyph glyph-name="uniFECFFE8A.rlig" unicode="&#xfecf;&#xfe8a;" horiz-adv-x="2097" 
d="M1366 1444l147 151h21l152 -151l-148 -150h-20zM637 -547q-146 0 -254.5 41t-172 114t-94 165t-30.5 204q0 204 88 447l74 -23q-47 -161 -47 -282q0 -176 112.5 -273.5t350.5 -97.5q187 0 364 52t283 137q-53 56 -236 90l-211 34l-6 11l66 260l389 55q-64 54 -99.5 131
t-35.5 162q0 119 55 227t145 172t189 64q112 0 199 -81.5t147 -225.5l-39 -50q-165 82 -332 82q-53 0 -100.5 -8.5t-88.5 -26t-64.5 -49t-22.5 -73.5q0 -76 87 -124.5t216 -53.5t278 28l160 41l10 -10l-65 -279l-613 -145q47 -50 47 -121q0 -178 -49 -332
q-104 -115 -294.5 -188.5t-405.5 -73.5zM33 588l106 76q-65 54 -65 118q0 75 72 149.5t147 74.5q52 0 79 -26t27 -62q0 -57 -24 -95l-133 51q-40 -8 -71.5 -27.5t-31.5 -37.5q0 -36 81.5 -53.5t170.5 -5.5l66 10l6 -8l-27 -144l-403 -67v47z" />
    <glyph glyph-name="uniFCFF.rlig" unicode="&#xfea3;&#xfef0;" horiz-adv-x="2093" 
d="M629 -547q-143 0 -250 41t-169.5 114t-93 165.5t-30.5 203.5q0 204 88 447l74 -23q-47 -161 -47 -282q0 -175 112 -273t344 -98q176 0 363.5 55t290.5 134q-60 57 -246 90l-211 34l-4 11l61 250q355 105 707 157q-63 11 -234 58q-237 69 -294 69q-60 0 -88.5 -29
t-34.5 -98h-78q-6 73 -6 131q0 131 54 195.5t155 64.5q55 0 127.5 -18.5t255.5 -77.5q204 -67 292 -88.5t187 -21.5h84l6 -9l-72 -239q-153 -10 -356 -57.5t-410 -118.5q180 -58 180 -193q0 -178 -49 -332q-96 -107 -294.5 -184.5t-413.5 -77.5z" />
    <glyph glyph-name="uniFD00.rlig" unicode="&#xfea3;&#xfef2;" horiz-adv-x="2093" 
d="M629 -547q-143 0 -250 41t-169.5 114t-93 165.5t-30.5 203.5q0 204 88 447l74 -23q-47 -161 -47 -282q0 -175 112 -273t344 -98q176 0 363.5 55t290.5 134q-60 57 -246 90l-211 34l-4 11l61 250q355 105 707 157q-63 11 -234 58q-237 69 -294 69q-60 0 -88.5 -29
t-34.5 -98h-78q-6 73 -6 131q0 131 54 195.5t155 64.5q55 0 127.5 -18.5t255.5 -77.5q204 -67 292 -88.5t187 -21.5h84l6 -9l-72 -239q-153 -10 -356 -57.5t-410 -118.5q180 -58 180 -193q0 -178 -49 -332q-96 -107 -294.5 -184.5t-413.5 -77.5zM436 -829l148 151h20
l125 -125l121 125h20l152 -151l-148 -150h-20l-125 123l-121 -123h-20z" />
    <glyph glyph-name="uniFEA3FE8A.rlig" unicode="&#xfea3;&#xfe8a;" horiz-adv-x="2093" 
d="M33 588l106 76q-65 54 -65 118q0 75 72 149.5t147 74.5q52 0 79 -26t27 -62q0 -57 -24 -95l-133 51q-40 -8 -71.5 -27.5t-31.5 -37.5q0 -36 81.5 -53.5t170.5 -5.5l66 10l6 -8l-27 -144l-403 -67v47zM629 -547q-143 0 -250 41t-169.5 114t-93 165.5t-30.5 203.5
q0 204 88 447l74 -23q-47 -161 -47 -282q0 -175 112 -273t344 -98q176 0 363.5 55t290.5 134q-60 57 -246 90l-211 34l-4 11l61 250q355 105 707 157q-63 11 -234 58q-237 69 -294 69q-60 0 -88.5 -29t-34.5 -98h-78q-6 73 -6 131q0 131 54 195.5t155 64.5q55 0 127.5 -18.5
t255.5 -77.5q204 -67 292 -88.5t187 -21.5h84l6 -9l-72 -239q-153 -10 -356 -57.5t-410 -118.5q180 -58 180 -193q0 -178 -49 -332q-96 -107 -294.5 -184.5t-413.5 -77.5z" />
    <glyph glyph-name="uniFC53.rlig" unicode="&#xfeeb;&#xfef0;" horiz-adv-x="2265" 
d="M637 -547q-146 0 -254.5 41t-172 114t-94 165t-30.5 204q0 204 88 447l74 -23q-47 -161 -47 -282q0 -176 112.5 -273.5t350.5 -97.5q189 0 366 52.5t283 138.5q-30 36 -86 56t-152 32l-219 28l-6 13l63 254q263 3 453 38q-92 112 -92 250q0 99 57.5 204t141.5 161v176
l10 6l293 -151q218 -119 320 -239.5t102 -264.5q0 -148 -68 -334q-74 -35 -191 -35q-230 0 -403 92q-87 -55 -182 -84q32 -49 32 -116q0 -63 -14 -151.5t-35 -158.5q-104 -115 -294.5 -188.5t-405.5 -73.5zM1362 688q0 -71 80 -132.5t215 -100.5q108 61 108 141t-76 144.5
t-171 64.5q-64 0 -110 -33.5t-46 -83.5zM1997 408q65 0 121 6q-34 128 -265 260q-12 -124 -94 -244q116 -22 238 -22z" />
    <glyph glyph-name="uniFC54.rlig" unicode="&#xfeeb;&#xfef2;" horiz-adv-x="2265" 
d="M637 -547q-146 0 -254.5 41t-172 114t-94 165t-30.5 204q0 204 88 447l74 -23q-47 -161 -47 -282q0 -176 112.5 -273.5t350.5 -97.5q189 0 366 52.5t283 138.5q-30 36 -86 56t-152 32l-219 28l-6 13l63 254q263 3 453 38q-92 112 -92 250q0 99 57.5 204t141.5 161v176
l10 6l293 -151q218 -119 320 -239.5t102 -264.5q0 -148 -68 -334q-74 -35 -191 -35q-230 0 -403 92q-87 -55 -182 -84q32 -49 32 -116q0 -63 -14 -151.5t-35 -158.5q-104 -115 -294.5 -188.5t-405.5 -73.5zM1362 688q0 -71 80 -132.5t215 -100.5q108 61 108 141t-76 144.5
t-171 64.5q-64 0 -110 -33.5t-46 -83.5zM1997 408q65 0 121 6q-34 128 -265 260q-12 -124 -94 -244q116 -22 238 -22zM436 -829l148 151h20l125 -125l121 125h20l152 -151l-148 -150h-20l-125 123l-121 -123h-20z" />
    <glyph glyph-name="uniFEEBFE8A.rlig" unicode="&#xfeeb;&#xfe8a;" horiz-adv-x="2265" 
d="M637 -547q-146 0 -254.5 41t-172 114t-94 165t-30.5 204q0 204 88 447l74 -23q-47 -161 -47 -282q0 -176 112.5 -273.5t350.5 -97.5q189 0 366 52.5t283 138.5q-30 36 -86 56t-152 32l-219 28l-6 13l63 254q263 3 453 38q-92 112 -92 250q0 99 57.5 204t141.5 161v176
l10 6l293 -151q218 -119 320 -239.5t102 -264.5q0 -148 -68 -334q-74 -35 -191 -35q-230 0 -403 92q-87 -55 -182 -84q32 -49 32 -116q0 -63 -14 -151.5t-35 -158.5q-104 -115 -294.5 -188.5t-405.5 -73.5zM33 588l106 76q-65 54 -65 118q0 75 72 149.5t147 74.5
q52 0 79 -26t27 -62q0 -57 -24 -95l-133 51q-40 -8 -71.5 -27.5t-31.5 -37.5q0 -36 81.5 -53.5t170.5 -5.5l66 10l6 -8l-27 -144l-403 -67v47zM1362 688q0 -71 80 -132.5t215 -100.5q108 61 108 141t-76 144.5t-171 64.5q-64 0 -110 -33.5t-46 -83.5zM1997 408q65 0 121 6
q-34 128 -265 260q-12 -124 -94 -244q116 -22 238 -22z" />
    <glyph glyph-name="uniFD01.rlig" unicode="&#xfe9f;&#xfef0;" horiz-adv-x="2093" 
d="M629 -547q-143 0 -250 41t-169.5 114t-93 165.5t-30.5 203.5q0 204 88 447l74 -23q-47 -161 -47 -282q0 -175 112 -273t344 -98q176 0 363.5 55t290.5 134q-60 57 -246 90l-211 34l-4 11l61 250q355 105 707 157q-63 11 -234 58q-237 69 -294 69q-60 0 -88.5 -29
t-34.5 -98h-78q-6 73 -6 131q0 131 54 195.5t155 64.5q55 0 127.5 -18.5t255.5 -77.5q204 -67 292 -88.5t187 -21.5h84l6 -9l-72 -239q-153 -10 -356 -57.5t-410 -118.5q180 -58 180 -193q0 -178 -49 -332q-96 -107 -294.5 -184.5t-413.5 -77.5zM1604 39l147 151h21
l151 -151l-147 -150h-21z" />
    <glyph glyph-name="uniFD02.rlig" unicode="&#xfe9f;&#xfef2;" horiz-adv-x="2093" 
d="M629 -547q-143 0 -250 41t-169.5 114t-93 165.5t-30.5 203.5q0 204 88 447l74 -23q-47 -161 -47 -282q0 -175 112 -273t344 -98q176 0 363.5 55t290.5 134q-60 57 -246 90l-211 34l-4 11l61 250q355 105 707 157q-63 11 -234 58q-237 69 -294 69q-60 0 -88.5 -29
t-34.5 -98h-78q-6 73 -6 131q0 131 54 195.5t155 64.5q55 0 127.5 -18.5t255.5 -77.5q204 -67 292 -88.5t187 -21.5h84l6 -9l-72 -239q-153 -10 -356 -57.5t-410 -118.5q180 -58 180 -193q0 -178 -49 -332q-96 -107 -294.5 -184.5t-413.5 -77.5zM1604 39l147 151h21
l151 -151l-147 -150h-21zM436 -829l148 151h20l125 -125l121 125h20l152 -151l-148 -150h-20l-125 123l-121 -123h-20z" />
    <glyph glyph-name="uniFE9FFE8A.rlig" unicode="&#xfe9f;&#xfe8a;" horiz-adv-x="2093" 
d="M33 588l106 76q-65 54 -65 118q0 75 72 149.5t147 74.5q52 0 79 -26t27 -62q0 -57 -24 -95l-133 51q-40 -8 -71.5 -27.5t-31.5 -37.5q0 -36 81.5 -53.5t170.5 -5.5l66 10l6 -8l-27 -144l-403 -67v47zM629 -547q-143 0 -250 41t-169.5 114t-93 165.5t-30.5 203.5
q0 204 88 447l74 -23q-47 -161 -47 -282q0 -175 112 -273t344 -98q176 0 363.5 55t290.5 134q-60 57 -246 90l-211 34l-4 11l61 250q355 105 707 157q-63 11 -234 58q-237 69 -294 69q-60 0 -88.5 -29t-34.5 -98h-78q-6 73 -6 131q0 131 54 195.5t155 64.5q55 0 127.5 -18.5
t255.5 -77.5q204 -67 292 -88.5t187 -21.5h84l6 -9l-72 -239q-153 -10 -356 -57.5t-410 -118.5q180 -58 180 -193q0 -178 -49 -332q-96 -107 -294.5 -184.5t-413.5 -77.5zM1604 39l147 151h21l151 -151l-147 -150h-21z" />
    <glyph glyph-name="uniFC3D.rlig" unicode="&#xfb90;&#xfef0;" horiz-adv-x="1517" 
d="M629 -547q-143 0 -250 41t-169.5 114t-93 165.5t-30.5 203.5q0 204 88 447l74 -23q-47 -161 -47 -282q0 -175 112 -273t344 -98q176 0 361.5 52.5t292.5 136.5q-33 31 -101 50.5t-194 32.5l-246 27l-6 10l67 273q295 12 445 102q-34 92 -144 172.5t-305 169.5l-57 -96
h-12l-193 188l158 328l881 367l28 -70l-112 -178l-650 -266q257 -152 371.5 -279.5t114.5 -255.5q0 -99 -49 -244q-46 -29 -90 -47q82 -29 125.5 -78.5t43.5 -95.5q0 -178 -49 -332q-96 -107 -294.5 -184.5t-413.5 -77.5z" />
    <glyph glyph-name="uniFC3E.rlig" unicode="&#xfb90;&#xfef2;" horiz-adv-x="1517" 
d="M629 -547q-143 0 -250 41t-169.5 114t-93 165.5t-30.5 203.5q0 204 88 447l74 -23q-47 -161 -47 -282q0 -175 112 -273t344 -98q176 0 361.5 52.5t292.5 136.5q-33 31 -101 50.5t-194 32.5l-246 27l-6 10l67 273q295 12 445 102q-34 92 -144 172.5t-305 169.5l-57 -96
h-12l-193 188l158 328l881 367l28 -70l-112 -178l-650 -266q257 -152 371.5 -279.5t114.5 -255.5q0 -99 -49 -244q-46 -29 -90 -47q82 -29 125.5 -78.5t43.5 -95.5q0 -178 -49 -332q-96 -107 -294.5 -184.5t-413.5 -77.5zM446 -829l148 151h20l125 -125l121 125h21l151 -151
l-147 -150h-21l-125 123l-121 -123h-20z" />
    <glyph glyph-name="uniFEDBFE8A.rlig" unicode="&#xfb90;&#xfe8a;" horiz-adv-x="1517" 
d="M629 -547q-143 0 -250 41t-169.5 114t-93 165.5t-30.5 203.5q0 204 88 447l74 -23q-47 -161 -47 -282q0 -175 112 -273t344 -98q176 0 361.5 52.5t292.5 136.5q-33 31 -101 50.5t-194 32.5l-246 27l-6 10l67 273q295 12 445 102q-34 92 -144 172.5t-305 169.5l-57 -96
h-12l-193 188l158 328l881 367l28 -70l-112 -178l-650 -266q257 -152 371.5 -279.5t114.5 -255.5q0 -99 -49 -244q-46 -29 -90 -47q82 -29 125.5 -78.5t43.5 -95.5q0 -178 -49 -332q-96 -107 -294.5 -184.5t-413.5 -77.5zM33 588l106 76q-65 54 -65 118q0 75 72 149.5
t147 74.5q52 0 79 -26t27 -62q0 -57 -24 -95l-133 51q-40 -8 -71.5 -27.5t-31.5 -37.5q0 -36 81.5 -53.5t170.5 -5.5l66 10l6 -8l-27 -144l-403 -67v47z" />
    <glyph glyph-name="uniFD03.rlig" unicode="&#xfea7;&#xfef0;" horiz-adv-x="2093" 
d="M1231 1169l147 152h21l151 -152l-147 -149h-21zM629 -547q-143 0 -250 41t-169.5 114t-93 165.5t-30.5 203.5q0 204 88 447l74 -23q-47 -161 -47 -282q0 -175 112 -273t344 -98q176 0 363.5 55t290.5 134q-60 57 -246 90l-211 34l-4 11l61 250q355 105 707 157
q-63 11 -234 58q-237 69 -294 69q-60 0 -88.5 -29t-34.5 -98h-78q-6 73 -6 131q0 131 54 195.5t155 64.5q55 0 127.5 -18.5t255.5 -77.5q204 -67 292 -88.5t187 -21.5h84l6 -9l-72 -239q-153 -10 -356 -57.5t-410 -118.5q180 -58 180 -193q0 -178 -49 -332
q-96 -107 -294.5 -184.5t-413.5 -77.5z" />
    <glyph glyph-name="uniFD04.rlig" unicode="&#xfea7;&#xfef2;" horiz-adv-x="2093" 
d="M1231 1169l147 152h21l151 -152l-147 -149h-21zM629 -547q-143 0 -250 41t-169.5 114t-93 165.5t-30.5 203.5q0 204 88 447l74 -23q-47 -161 -47 -282q0 -175 112 -273t344 -98q176 0 363.5 55t290.5 134q-60 57 -246 90l-211 34l-4 11l61 250q355 105 707 157
q-63 11 -234 58q-237 69 -294 69q-60 0 -88.5 -29t-34.5 -98h-78q-6 73 -6 131q0 131 54 195.5t155 64.5q55 0 127.5 -18.5t255.5 -77.5q204 -67 292 -88.5t187 -21.5h84l6 -9l-72 -239q-153 -10 -356 -57.5t-410 -118.5q180 -58 180 -193q0 -178 -49 -332
q-96 -107 -294.5 -184.5t-413.5 -77.5zM436 -829l148 151h20l125 -125l121 125h20l152 -151l-148 -150h-20l-125 123l-121 -123h-20z" />
    <glyph glyph-name="uniFEA7FE8A.rlig" unicode="&#xfea7;&#xfe8a;" horiz-adv-x="2093" 
d="M1231 1169l147 152h21l151 -152l-147 -149h-21zM33 588l106 76q-65 54 -65 118q0 75 72 149.5t147 74.5q52 0 79 -26t27 -62q0 -57 -24 -95l-133 51q-40 -8 -71.5 -27.5t-31.5 -37.5q0 -36 81.5 -53.5t170.5 -5.5l66 10l6 -8l-27 -144l-403 -67v47zM629 -547
q-143 0 -250 41t-169.5 114t-93 165.5t-30.5 203.5q0 204 88 447l74 -23q-47 -161 -47 -282q0 -175 112 -273t344 -98q176 0 363.5 55t290.5 134q-60 57 -246 90l-211 34l-4 11l61 250q355 105 707 157q-63 11 -234 58q-237 69 -294 69q-60 0 -88.5 -29t-34.5 -98h-78
q-6 73 -6 131q0 131 54 195.5t155 64.5q55 0 127.5 -18.5t255.5 -77.5q204 -67 292 -88.5t187 -21.5h84l6 -9l-72 -239q-153 -10 -356 -57.5t-410 -118.5q180 -58 180 -193q0 -178 -49 -332q-96 -107 -294.5 -184.5t-413.5 -77.5z" />
    <glyph glyph-name="uniFC43.rlig" unicode="&#xfedf;&#xfef0;" horiz-adv-x="1492" 
d="M627 -547q-142 0 -248.5 41t-169 114t-93 165.5t-30.5 203.5q0 204 88 447l74 -23q-47 -161 -47 -282q0 -176 111 -273.5t341 -97.5q195 0 370.5 49.5t287.5 139.5q-54 56 -236 90l-272 47l-6 10l65 262q189 10 281 43l-37 789q-65 93 -38.5 186t142.5 164h70v-170
l111 -139v-13l-111 -88v-522q0 -217 -45 -328q-41 -30 -57 -39q115 -26 161.5 -67.5t46.5 -114.5q0 -178 -49 -332q-104 -116 -296 -189t-414 -73z" />
    <glyph glyph-name="uniFC44.rlig" unicode="&#xfedf;&#xfef2;" horiz-adv-x="1492" 
d="M627 -547q-142 0 -248.5 41t-169 114t-93 165.5t-30.5 203.5q0 204 88 447l74 -23q-47 -161 -47 -282q0 -176 111 -273.5t341 -97.5q195 0 370.5 49.5t287.5 139.5q-54 56 -236 90l-272 47l-6 10l65 262q189 10 281 43l-37 789q-65 93 -38.5 186t142.5 164h70v-170
l111 -139v-13l-111 -88v-522q0 -217 -45 -328q-41 -30 -57 -39q115 -26 161.5 -67.5t46.5 -114.5q0 -178 -49 -332q-104 -116 -296 -189t-414 -73zM446 -829l148 151h20l125 -125l121 125h21l151 -151l-147 -150h-21l-125 123l-121 -123h-20z" />
    <glyph glyph-name="uniFEDFFE8A.rlig" unicode="&#xfedf;&#xfe8a;" horiz-adv-x="1492" 
d="M627 -547q-142 0 -248.5 41t-169 114t-93 165.5t-30.5 203.5q0 204 88 447l74 -23q-47 -161 -47 -282q0 -176 111 -273.5t341 -97.5q195 0 370.5 49.5t287.5 139.5q-54 56 -236 90l-272 47l-6 10l65 262q189 10 281 43l-37 789q-65 93 -38.5 186t142.5 164h70v-170
l111 -139v-13l-111 -88v-522q0 -217 -45 -328q-41 -30 -57 -39q115 -26 161.5 -67.5t46.5 -114.5q0 -178 -49 -332q-104 -116 -296 -189t-414 -73zM33 588l106 76q-65 54 -65 118q0 75 72 149.5t147 74.5q52 0 79 -26t27 -62q0 -57 -24 -95l-133 51q-40 -8 -71.5 -27.5
t-31.5 -37.5q0 -36 81.5 -53.5t170.5 -5.5l66 10l6 -8l-27 -144l-403 -67v47z" />
    <glyph glyph-name="uniFC4F.rlig" unicode="&#xfee7;&#xfef0;" horiz-adv-x="1447" 
d="M946 1346l148 151h20l152 -151l-148 -150h-20zM616 -391q-139 0 -243 41t-165.5 114t-91.5 165.5t-30 203.5q0 205 88 445l74 -23q-47 -161 -47 -281q0 -176 110 -273t334 -97q186 0 373 49.5t293 128.5q-49 40 -236 74l-317 51l-6 12l67 270q224 0 363 54
q-48 134 -187 293l101 229h69q50 -90 79.5 -204t29.5 -216q0 -131 -39 -246q-43 -29 -59 -37q117 -26 163.5 -67.5t46.5 -116.5q0 -164 -49 -307q-96 -107 -297 -184.5t-424 -77.5z" />
    <glyph glyph-name="uniFC50.rlig" unicode="&#xfee7;&#xfef2;" horiz-adv-x="1447" 
d="M946 1346l148 151h20l152 -151l-148 -150h-20zM616 -391q-139 0 -243 41t-165.5 114t-91.5 165.5t-30 203.5q0 205 88 445l74 -23q-47 -161 -47 -281q0 -176 110 -273t334 -97q186 0 373 49.5t293 128.5q-49 40 -236 74l-317 51l-6 12l67 270q224 0 363 54
q-48 134 -187 293l101 229h69q50 -90 79.5 -204t29.5 -216q0 -131 -39 -246q-43 -29 -59 -37q117 -26 163.5 -67.5t46.5 -116.5q0 -164 -49 -307q-96 -107 -297 -184.5t-424 -77.5zM446 -676l148 152h20l125 -125l121 125h21l151 -152l-147 -149h-21l-125 123l-121 -123h-20
z" />
    <glyph glyph-name="uniFEE7FE8A.rlig" unicode="&#xfee7;&#xfe8a;" horiz-adv-x="1447" 
d="M946 1346l148 151h20l152 -151l-148 -150h-20zM33 741l106 76q-65 54 -65 119q0 75 72 149t147 74q52 0 79 -26t27 -62q0 -56 -24 -94l-133 51q-40 -8 -71.5 -27.5t-31.5 -37.5q0 -36 81.5 -54t170.5 -6l66 10l6 -8l-27 -143l-403 -68v47zM616 -391q-139 0 -243 41
t-165.5 114t-91.5 165.5t-30 203.5q0 205 88 445l74 -23q-47 -161 -47 -281q0 -176 110 -273t334 -97q186 0 373 49.5t293 128.5q-49 40 -236 74l-317 51l-6 12l67 270q224 0 363 54q-48 134 -187 293l101 229h69q50 -90 79.5 -204t29.5 -216q0 -131 -39 -246
q-43 -29 -59 -37q117 -26 163.5 -67.5t46.5 -116.5q0 -164 -49 -307q-96 -107 -297 -184.5t-424 -77.5z" />
    <glyph glyph-name="uniFB58FEF0.rlig" unicode="&#xfb58;&#xfef0;" horiz-adv-x="1447" 
d="M616 -391q-139 0 -243 41t-165.5 114t-91.5 165.5t-30 203.5q0 205 88 445l74 -23q-47 -161 -47 -281q0 -176 110 -273t334 -97q186 0 373 49.5t293 128.5q-49 40 -236 74l-317 51l-6 12l67 270q224 0 363 54q-48 134 -187 293l101 229h69q50 -90 79.5 -204t29.5 -216
q0 -131 -39 -246q-43 -29 -59 -37q117 -26 163.5 -67.5t46.5 -116.5q0 -164 -49 -307q-96 -107 -297 -184.5t-424 -77.5zM963 -571l147 151h20l125 -125l121 125h21l151 -151l-147 -150h-21l-125 123l-120 -123h-21zM1112 -829l135 137h21l133 -137l-135 -136h-19z" />
    <glyph glyph-name="uniFB58FEF2.rlig" unicode="&#xfb58;&#xfef2;" horiz-adv-x="1447" 
d="M616 -391q-139 0 -243 41t-165.5 114t-91.5 165.5t-30 203.5q0 205 88 445l74 -23q-47 -161 -47 -281q0 -176 110 -273t334 -97q186 0 373 49.5t293 128.5q-49 40 -236 74l-317 51l-6 12l67 270q224 0 363 54q-48 134 -187 293l101 229h69q50 -90 79.5 -204t29.5 -216
q0 -131 -39 -246q-43 -29 -59 -37q117 -26 163.5 -67.5t46.5 -116.5q0 -164 -49 -307q-96 -107 -297 -184.5t-424 -77.5zM991 -541l133 138h19l112 -113l109 113h18l138 -138l-134 -133h-18l-113 111l-108 -111h-19zM430 -645l133 137h19l112 -113l109 113h18l137 -137
l-133 -133h-18l-113 110l-108 -110h-19zM1126 -772l121 123h19l120 -123l-120 -121h-19z" />
    <glyph glyph-name="uniFB58FE8A.rlig" unicode="&#xfb58;&#xfe8a;" horiz-adv-x="1447" 
d="M33 741l106 76q-65 54 -65 119q0 75 72 149t147 74q52 0 79 -26t27 -62q0 -56 -24 -94l-133 51q-40 -8 -71.5 -27.5t-31.5 -37.5q0 -36 81.5 -54t170.5 -6l66 10l6 -8l-27 -143l-403 -68v47zM616 -391q-139 0 -243 41t-165.5 114t-91.5 165.5t-30 203.5q0 205 88 445
l74 -23q-47 -161 -47 -281q0 -176 110 -273t334 -97q186 0 373 49.5t293 128.5q-49 40 -236 74l-317 51l-6 12l67 270q224 0 363 54q-48 134 -187 293l101 229h69q50 -90 79.5 -204t29.5 -216q0 -131 -39 -246q-43 -29 -59 -37q117 -26 163.5 -67.5t46.5 -116.5
q0 -164 -49 -307q-96 -107 -297 -184.5t-424 -77.5zM963 -571l147 151h20l125 -125l121 125h21l151 -151l-147 -150h-21l-125 123l-120 -123h-21zM1112 -829l135 137h21l133 -137l-135 -136h-19z" />
    <glyph glyph-name="uniFC35.rlig" unicode="&#xfed7;&#xfef0;" horiz-adv-x="1472" 
d="M670 1579l147 152h21l125 -125l120 125h21l151 -152l-147 -149h-21l-124 122l-121 -122h-21zM627 -391q-142 0 -248.5 41t-169 114t-93 165.5t-30.5 203.5q0 205 88 445l74 -23q-47 -161 -47 -281q0 -177 110.5 -273.5t341.5 -96.5q192 0 366.5 47.5t285.5 136.5
q-56 43 -230 66l-317 41l-6 12l67 237q248 0 389 66q4 18 4 57q0 126 -41 232l-61 -164q-88 -49 -205 -49q-134 0 -209 71.5t-75 198.5q0 113 48 221.5t126 176t161 67.5q97 0 176.5 -80.5t125 -219t45.5 -304.5q0 -188 -52 -330q-29 -20 -65 -39q110 -26 155 -65t45 -105
q0 -164 -49 -307q-104 -116 -296 -189t-414 -73zM711 915q0 -84 204 -84q125 0 230 25q-45 92 -115.5 146.5t-150.5 54.5q-66 0 -117 -42.5t-51 -99.5z" />
    <glyph glyph-name="uniFC36.rlig" unicode="&#xfed7;&#xfef2;" horiz-adv-x="1472" 
d="M670 1579l147 152h21l125 -125l120 125h21l151 -152l-147 -149h-21l-124 122l-121 -122h-21zM627 -391q-142 0 -248.5 41t-169 114t-93 165.5t-30.5 203.5q0 205 88 445l74 -23q-47 -161 -47 -281q0 -177 110.5 -273.5t341.5 -96.5q192 0 366.5 47.5t285.5 136.5
q-56 43 -230 66l-317 41l-6 12l67 237q248 0 389 66q4 18 4 57q0 126 -41 232l-61 -164q-88 -49 -205 -49q-134 0 -209 71.5t-75 198.5q0 113 48 221.5t126 176t161 67.5q97 0 176.5 -80.5t125 -219t45.5 -304.5q0 -188 -52 -330q-29 -20 -65 -39q110 -26 155 -65t45 -105
q0 -164 -49 -307q-104 -116 -296 -189t-414 -73zM711 915q0 -84 204 -84q125 0 230 25q-45 92 -115.5 146.5t-150.5 54.5q-66 0 -117 -42.5t-51 -99.5zM446 -676l148 152h20l125 -125l121 125h21l151 -152l-147 -149h-21l-125 123l-121 -123h-20z" />
    <glyph glyph-name="uniFED7FE8A.rlig" unicode="&#xfed7;&#xfe8a;" horiz-adv-x="1472" 
d="M670 1579l147 152h21l125 -125l120 125h21l151 -152l-147 -149h-21l-124 122l-121 -122h-21zM627 -391q-142 0 -248.5 41t-169 114t-93 165.5t-30.5 203.5q0 205 88 445l74 -23q-47 -161 -47 -281q0 -177 110.5 -273.5t341.5 -96.5q192 0 366.5 47.5t285.5 136.5
q-56 43 -230 66l-317 41l-6 12l67 237q248 0 389 66q4 18 4 57q0 126 -41 232l-61 -164q-88 -49 -205 -49q-134 0 -209 71.5t-75 198.5q0 113 48 221.5t126 176t161 67.5q97 0 176.5 -80.5t125 -219t45.5 -304.5q0 -188 -52 -330q-29 -20 -65 -39q110 -26 155 -65t45 -105
q0 -164 -49 -307q-104 -116 -296 -189t-414 -73zM33 741l106 76q-65 54 -65 119q0 75 72 149t147 74q52 0 79 -26t27 -62q0 -56 -24 -94l-133 51q-40 -8 -71.5 -27.5t-31.5 -37.5q0 -36 81.5 -54t170.5 -6l66 10l6 -8l-27 -143l-403 -68v47zM711 915q0 -84 204 -84
q125 0 230 25q-45 92 -115.5 146.5t-150.5 54.5q-66 0 -117 -42.5t-51 -99.5z" />
    <glyph glyph-name="uniFD05.rlig" unicode="&#xfebb;&#xfef0;" horiz-adv-x="2871" 
d="M629 -547q-143 0 -250 41t-169.5 114t-93 165.5t-30.5 203.5q0 204 88 447l74 -23q-47 -161 -47 -282q0 -176 113 -273.5t352 -97.5q186 0 361.5 64t266.5 153q-24 17 -71 29.5t-146 30.5l-133 24q-126 23 -180.5 76.5t-54.5 155.5q0 91 46 187.5t118 171.5t166.5 123
t185.5 48q105 0 189 -62t175 -210l58 -97q58 -92 104 -133q206 294 365.5 421.5t318.5 127.5q151 0 253.5 -104.5t102.5 -249.5q0 -155 -98 -367q-120 -78 -324.5 -125t-424.5 -47q-77 0 -135.5 12t-103 33.5t-86.5 62.5t-75 86.5t-78 119.5l-57 96q-59 96 -116 135t-144 39
q-106 0 -210.5 -56.5t-104.5 -105.5q0 -26 30 -39.5t115 -28.5l143 -26q148 -27 202 -69t54 -140q0 -172 -49 -334q-91 -122 -292.5 -209.5t-407.5 -87.5zM2337 584q-135 0 -256 -74.5t-262 -243.5q56 -26 161 -26q191 0 384.5 33t330.5 89q-39 94 -143.5 158t-214.5 64z
" />
    <glyph glyph-name="uniFEBBFB8B.rlig" unicode="&#xfebb;&#xfb8b;" horiz-adv-x="2258" 
d="M356 1085l133 138h19l137 -138l-133 -135h-20zM215 817l147 152h21l125 -125l121 125h20l152 -152l-148 -149h-20l-125 123l-121 -123h-20zM-102 -338v74q622 165 622 438l-96 113l100 229l447 84l14 -6v-244q49 -53 127 -76q219 319 383.5 455.5t327.5 136.5
q152 0 254 -103.5t102 -248.5q0 -157 -98 -369q-115 -85 -301 -132.5t-400 -47.5q-235 0 -358 75t-184 257l-228 -43q-16 -356 -305 -746zM1735 592q-139 0 -264 -78.5t-275 -259.5q77 -14 201 -14q189 0 369.5 32.5t318.5 96.5q-38 95 -140 159t-210 64z" />
    <glyph glyph-name="uniFD0F.rlig" unicode="&#xfebb;&#xfeae;" horiz-adv-x="2258" 
d="M-102 -338v74q622 165 622 438l-96 113l100 229l447 84l14 -6v-244q49 -53 127 -76q219 319 383.5 455.5t327.5 136.5q152 0 254 -103.5t102 -248.5q0 -157 -98 -369q-115 -85 -301 -132.5t-400 -47.5q-235 0 -358 75t-184 257l-228 -43q-16 -356 -305 -746zM1735 592
q-139 0 -264 -78.5t-275 -259.5q77 -14 201 -14q189 0 369.5 32.5t318.5 96.5q-38 95 -140 159t-210 64z" />
    <glyph glyph-name="uniFEBBFB8D.rlig" unicode="&#xfebb;&#xfb8d;" horiz-adv-x="2258" 
d="M188 791v20h131q13 21 56 76l-21 194q-62 95 47 168h39v-69l43 -64v-2l-43 -29v-124q81 81 160 81q63 0 105.5 -42.5t42.5 -100.5q0 -65 -41 -158q-109 -51 -291 -51h-80zM567 918q-47 0 -88.5 -25t-87.5 -82h33q158 0 260 31q-10 37 -42.5 56.5t-74.5 19.5zM-102 -338
v74q622 165 622 438l-96 113l100 229l447 84l14 -6v-244q49 -53 127 -76q219 319 383.5 455.5t327.5 136.5q152 0 254 -103.5t102 -248.5q0 -157 -98 -369q-115 -85 -301 -132.5t-400 -47.5q-235 0 -358 75t-184 257l-228 -43q-16 -356 -305 -746zM1735 592
q-139 0 -264 -78.5t-275 -259.5q77 -14 201 -14q189 0 369.5 32.5t318.5 96.5q-38 95 -140 159t-210 64z" />
    <glyph glyph-name="uniFD06.rlig" unicode="&#xfebb;&#xfef2;" horiz-adv-x="2871" 
d="M629 -547q-143 0 -250 41t-169.5 114t-93 165.5t-30.5 203.5q0 204 88 447l74 -23q-47 -161 -47 -282q0 -176 113 -273.5t352 -97.5q186 0 361.5 64t266.5 153q-24 17 -71 29.5t-146 30.5l-133 24q-126 23 -180.5 76.5t-54.5 155.5q0 91 46 187.5t118 171.5t166.5 123
t185.5 48q105 0 189 -62t175 -210l58 -97q58 -92 104 -133q206 294 365.5 421.5t318.5 127.5q151 0 253.5 -104.5t102.5 -249.5q0 -155 -98 -367q-120 -78 -324.5 -125t-424.5 -47q-77 0 -135.5 12t-103 33.5t-86.5 62.5t-75 86.5t-78 119.5l-57 96q-59 96 -116 135t-144 39
q-106 0 -210.5 -56.5t-104.5 -105.5q0 -26 30 -39.5t115 -28.5l143 -26q148 -27 202 -69t54 -140q0 -172 -49 -334q-91 -122 -292.5 -209.5t-407.5 -87.5zM2337 584q-135 0 -256 -74.5t-262 -243.5q56 -26 161 -26q191 0 384.5 33t330.5 89q-39 94 -143.5 158t-214.5 64z
M446 -829l148 151h20l125 -125l121 125h21l151 -151l-147 -150h-21l-125 123l-121 -123h-20z" />
    <glyph glyph-name="uniFEBBFE8A.rlig" unicode="&#xfebb;&#xfe8a;" horiz-adv-x="2871" 
d="M33 588l106 76q-65 54 -65 118q0 75 72 149.5t147 74.5q52 0 79 -26t27 -62q0 -57 -24 -95l-133 51q-40 -8 -71.5 -27.5t-31.5 -37.5q0 -36 81.5 -53.5t170.5 -5.5l66 10l6 -8l-27 -144l-403 -67v47zM629 -547q-143 0 -250 41t-169.5 114t-93 165.5t-30.5 203.5
q0 204 88 447l74 -23q-47 -161 -47 -282q0 -176 113 -273.5t352 -97.5q186 0 361.5 64t266.5 153q-24 17 -71 29.5t-146 30.5l-133 24q-126 23 -180.5 76.5t-54.5 155.5q0 91 46 187.5t118 171.5t166.5 123t185.5 48q105 0 189 -62t175 -210l58 -97q58 -92 104 -133
q206 294 365.5 421.5t318.5 127.5q151 0 253.5 -104.5t102.5 -249.5q0 -155 -98 -367q-120 -78 -324.5 -125t-424.5 -47q-77 0 -135.5 12t-103 33.5t-86.5 62.5t-75 86.5t-78 119.5l-57 96q-59 96 -116 135t-144 39q-106 0 -210.5 -56.5t-104.5 -105.5q0 -26 30 -39.5
t115 -28.5l143 -26q148 -27 202 -69t54 -140q0 -172 -49 -334q-91 -122 -292.5 -209.5t-407.5 -87.5zM2337 584q-135 0 -256 -74.5t-262 -243.5q56 -26 161 -26q191 0 384.5 33t330.5 89q-39 94 -143.5 158t-214.5 64z" />
    <glyph glyph-name="uniFEBBFEB0.rlig" unicode="&#xfebb;&#xfeb0;" horiz-adv-x="2258" 
d="M342 817l147 152h21l152 -152l-148 -149h-20zM-102 -338v74q622 165 622 438l-96 113l100 229l447 84l14 -6v-244q49 -53 127 -76q219 319 383.5 455.5t327.5 136.5q152 0 254 -103.5t102 -248.5q0 -157 -98 -369q-115 -85 -301 -132.5t-400 -47.5q-235 0 -358 75
t-184 257l-228 -43q-16 -356 -305 -746zM1735 592q-139 0 -264 -78.5t-275 -259.5q77 -14 201 -14q189 0 369.5 32.5t318.5 96.5q-38 95 -140 159t-210 64z" />
    <glyph glyph-name="uniFCFB.rlig" unicode="&#xfeb3;&#xfef0;" horiz-adv-x="2625" 
d="M629 -547q-143 0 -250 41t-169.5 114t-93 165.5t-30.5 203.5q0 204 88 447l74 -23q-47 -161 -47 -282q0 -176 113 -273.5t352 -97.5q186 0 361.5 64t266.5 153q-12 10 -26.5 17.5t-38 13.5t-39 9t-54.5 9.5t-59 10.5l-143 26q-119 22 -172 75.5t-53 154.5q0 122 76 246
t198.5 204t245.5 80q104 0 181 -56.5t169 -201.5l41 -64q57 -88 106.5 -122.5t118.5 -34.5q153 0 183 180l22 113h74v-156q80 -50 170.5 -82t159.5 -37q-43 96 -162 223l82 207h69q90 -180 90 -313q0 -202 -143 -373q-92 3 -195 40.5t-190 103.5l-4 -15q-59 -166 -221 -166
q-90 0 -163.5 60t-174.5 211l-43 63q-64 92 -115.5 125t-134.5 33q-106 0 -210.5 -56.5t-104.5 -105.5q0 -26 30 -39.5t115 -28.5l143 -26q148 -27 202 -69t54 -140q0 -172 -49 -334q-91 -122 -292.5 -209.5t-407.5 -87.5z" />
    <glyph glyph-name="uniFEB3FB8B.rlig" unicode="&#xfeb3;&#xfb8b;" horiz-adv-x="1990" 
d="M356 1085l133 138h19l137 -138l-133 -135h-20zM215 817l147 152h21l125 -125l121 125h20l152 -152l-148 -149h-20l-125 123l-121 -123h-20zM-102 -338v74q622 165 622 438l-96 113l100 229l447 84l14 -6v-223q92 -117 244 -117q71 0 106.5 39t55.5 143l20 113h70v-158
q80 -50 170 -82t159 -37q-45 100 -161 224l82 206h69q90 -176 90 -313q0 -202 -141 -371q-93 3 -197.5 41.5t-191.5 104.5l-12 -37q-25 -71 -73 -109t-114 -38q-46 0 -89 14.5t-88 48.5t-85 98t-68 154l-221 -41q-16 -356 -305 -746z" />
    <glyph glyph-name="uniFD0E.rlig" unicode="&#xfeb3;&#xfeae;" horiz-adv-x="1990" 
d="M-102 -338v74q622 165 622 438l-96 113l100 229l447 84l14 -6v-223q92 -117 244 -117q71 0 106.5 39t55.5 143l20 113h70v-158q80 -50 170 -82t159 -37q-45 100 -161 224l82 206h69q90 -176 90 -313q0 -202 -141 -371q-93 3 -197.5 41.5t-191.5 104.5l-12 -37
q-25 -71 -73 -109t-114 -38q-46 0 -89 14.5t-88 48.5t-85 98t-68 154l-221 -41q-16 -356 -305 -746z" />
    <glyph glyph-name="uniFEB3FB8D.rlig" unicode="&#xfeb3;&#xfb8d;" horiz-adv-x="1990" 
d="M188 791v20h131q13 21 56 76l-21 194q-62 95 47 168h39v-69l43 -64v-2l-43 -29v-124q81 81 160 81q63 0 105.5 -42.5t42.5 -100.5q0 -65 -41 -158q-109 -51 -291 -51h-80zM567 918q-47 0 -88.5 -25t-87.5 -82h33q158 0 260 31q-10 37 -42.5 56.5t-74.5 19.5zM-102 -338
v74q622 165 622 438l-96 113l100 229l447 84l14 -6v-223q92 -117 244 -117q71 0 106.5 39t55.5 143l20 113h70v-158q80 -50 170 -82t159 -37q-45 100 -161 224l82 206h69q90 -176 90 -313q0 -202 -141 -371q-93 3 -197.5 41.5t-191.5 104.5l-12 -37q-25 -71 -73 -109
t-114 -38q-46 0 -89 14.5t-88 48.5t-85 98t-68 154l-221 -41q-16 -356 -305 -746z" />
    <glyph glyph-name="uniFCFC.rlig" unicode="&#xfeb3;&#xfef2;" horiz-adv-x="2625" 
d="M629 -547q-143 0 -250 41t-169.5 114t-93 165.5t-30.5 203.5q0 204 88 447l74 -23q-47 -161 -47 -282q0 -176 113 -273.5t352 -97.5q186 0 361.5 64t266.5 153q-12 10 -26.5 17.5t-38 13.5t-39 9t-54.5 9.5t-59 10.5l-143 26q-119 22 -172 75.5t-53 154.5q0 122 76 246
t198.5 204t245.5 80q104 0 181 -56.5t169 -201.5l41 -64q57 -88 106.5 -122.5t118.5 -34.5q153 0 183 180l22 113h74v-156q80 -50 170.5 -82t159.5 -37q-43 96 -162 223l82 207h69q90 -180 90 -313q0 -202 -143 -373q-92 3 -195 40.5t-190 103.5l-4 -15q-59 -166 -221 -166
q-90 0 -163.5 60t-174.5 211l-43 63q-64 92 -115.5 125t-134.5 33q-106 0 -210.5 -56.5t-104.5 -105.5q0 -26 30 -39.5t115 -28.5l143 -26q148 -27 202 -69t54 -140q0 -172 -49 -334q-91 -122 -292.5 -209.5t-407.5 -87.5zM446 -829l148 151h20l125 -125l121 125h21
l151 -151l-147 -150h-21l-125 123l-121 -123h-20z" />
    <glyph glyph-name="uniFEB3FE8A.rlig" unicode="&#xfeb3;&#xfe8a;" horiz-adv-x="2625" 
d="M33 588l106 76q-65 54 -65 118q0 75 72 149.5t147 74.5q52 0 79 -26t27 -62q0 -57 -24 -95l-133 51q-40 -8 -71.5 -27.5t-31.5 -37.5q0 -36 81.5 -53.5t170.5 -5.5l66 10l6 -8l-27 -144l-403 -67v47zM629 -547q-143 0 -250 41t-169.5 114t-93 165.5t-30.5 203.5
q0 204 88 447l74 -23q-47 -161 -47 -282q0 -176 113 -273.5t352 -97.5q186 0 361.5 64t266.5 153q-12 10 -26.5 17.5t-38 13.5t-39 9t-54.5 9.5t-59 10.5l-143 26q-119 22 -172 75.5t-53 154.5q0 122 76 246t198.5 204t245.5 80q104 0 181 -56.5t169 -201.5l41 -64
q57 -88 106.5 -122.5t118.5 -34.5q153 0 183 180l22 113h74v-156q80 -50 170.5 -82t159.5 -37q-43 96 -162 223l82 207h69q90 -180 90 -313q0 -202 -143 -373q-92 3 -195 40.5t-190 103.5l-4 -15q-59 -166 -221 -166q-90 0 -163.5 60t-174.5 211l-43 63q-64 92 -115.5 125
t-134.5 33q-106 0 -210.5 -56.5t-104.5 -105.5q0 -26 30 -39.5t115 -28.5l143 -26q148 -27 202 -69t54 -140q0 -172 -49 -334q-91 -122 -292.5 -209.5t-407.5 -87.5z" />
    <glyph glyph-name="uniFEB3FEB0.rlig" unicode="&#xfeb3;&#xfeb0;" horiz-adv-x="1990" 
d="M342 817l147 152h21l152 -152l-148 -149h-20zM-102 -338v74q622 165 622 438l-96 113l100 229l447 84l14 -6v-223q92 -117 244 -117q71 0 106.5 39t55.5 143l20 113h70v-158q80 -50 170 -82t159 -37q-45 100 -161 224l82 206h69q90 -176 90 -313q0 -202 -141 -371
q-93 3 -197.5 41.5t-191.5 104.5l-12 -37q-25 -71 -73 -109t-114 -38q-46 0 -89 14.5t-88 48.5t-85 98t-68 154l-221 -41q-16 -356 -305 -746z" />
    <glyph glyph-name="uniFCFD.rlig" unicode="&#xfeb7;&#xfef0;" horiz-adv-x="2625" 
d="M1839 1194l133 137h19l137 -137l-133 -135h-21zM1698 926l147 151h21l125 -125l120 125h21l152 -151l-148 -150h-20l-125 123l-121 -123h-21zM629 -547q-143 0 -250 41t-169.5 114t-93 165.5t-30.5 203.5q0 204 88 447l74 -23q-47 -161 -47 -282q0 -176 113 -273.5
t352 -97.5q186 0 361.5 64t266.5 153q-12 10 -26.5 17.5t-38 13.5t-39 9t-54.5 9.5t-59 10.5l-143 26q-119 22 -172 75.5t-53 154.5q0 122 76 246t198.5 204t245.5 80q104 0 181 -56.5t169 -201.5l41 -64q57 -88 106.5 -122.5t118.5 -34.5q153 0 183 180l22 113h74v-156
q80 -50 170.5 -82t159.5 -37q-43 96 -162 223l82 207h69q90 -180 90 -313q0 -202 -143 -373q-92 3 -195 40.5t-190 103.5l-4 -15q-59 -166 -221 -166q-90 0 -163.5 60t-174.5 211l-43 63q-64 92 -115.5 125t-134.5 33q-106 0 -210.5 -56.5t-104.5 -105.5q0 -26 30 -39.5
t115 -28.5l143 -26q148 -27 202 -69t54 -140q0 -172 -49 -334q-91 -122 -292.5 -209.5t-407.5 -87.5z" />
    <glyph glyph-name="uniFEB7FB8B.rlig" unicode="&#xfeb7;&#xfb8b;" horiz-adv-x="1990" 
d="M1198 1118l133 137h19l137 -137l-133 -135h-21zM356 1085l133 138h19l137 -138l-133 -135h-20zM1057 850l147 151h21l125 -124l120 124h21l151 -151l-147 -150h-20l-125 123l-121 -123h-21zM215 817l147 152h21l125 -125l121 125h20l152 -152l-148 -149h-20l-125 123
l-121 -123h-20zM-102 -338v74q622 165 622 438l-96 113l100 229l447 84l14 -6v-223q92 -117 244 -117q71 0 106.5 39t55.5 143l20 113h70v-158q80 -50 170 -82t159 -37q-45 100 -161 224l82 206h69q90 -176 90 -313q0 -202 -141 -371q-93 3 -197.5 41.5t-191.5 104.5
l-12 -37q-25 -71 -73 -109t-114 -38q-46 0 -89 14.5t-88 48.5t-85 98t-68 154l-221 -41q-16 -356 -305 -746z" />
    <glyph glyph-name="uniFD0D.rlig" unicode="&#xfeb7;&#xfeae;" horiz-adv-x="1990" 
d="M1198 1118l133 137h19l137 -137l-133 -135h-21zM1057 850l147 151h21l125 -124l120 124h21l151 -151l-147 -150h-20l-125 123l-121 -123h-21zM-102 -338v74q622 165 622 438l-96 113l100 229l447 84l14 -6v-223q92 -117 244 -117q71 0 106.5 39t55.5 143l20 113h70v-158
q80 -50 170 -82t159 -37q-45 100 -161 224l82 206h69q90 -176 90 -313q0 -202 -141 -371q-93 3 -197.5 41.5t-191.5 104.5l-12 -37q-25 -71 -73 -109t-114 -38q-46 0 -89 14.5t-88 48.5t-85 98t-68 154l-221 -41q-16 -356 -305 -746z" />
    <glyph glyph-name="uniFEB7FB8D.rlig" unicode="&#xfeb7;&#xfb8d;" horiz-adv-x="1990" 
d="M1198 1118l133 137h19l137 -137l-133 -135h-21zM188 791v20h131q13 21 56 76l-21 194q-62 95 47 168h39v-69l43 -64v-2l-43 -29v-124q81 81 160 81q63 0 105.5 -42.5t42.5 -100.5q0 -65 -41 -158q-109 -51 -291 -51h-80zM1057 850l147 151h21l125 -124l120 124h21
l151 -151l-147 -150h-20l-125 123l-121 -123h-21zM567 918q-47 0 -88.5 -25t-87.5 -82h33q158 0 260 31q-10 37 -42.5 56.5t-74.5 19.5zM-102 -338v74q622 165 622 438l-96 113l100 229l447 84l14 -6v-223q92 -117 244 -117q71 0 106.5 39t55.5 143l20 113h70v-158
q80 -50 170 -82t159 -37q-45 100 -161 224l82 206h69q90 -176 90 -313q0 -202 -141 -371q-93 3 -197.5 41.5t-191.5 104.5l-12 -37q-25 -71 -73 -109t-114 -38q-46 0 -89 14.5t-88 48.5t-85 98t-68 154l-221 -41q-16 -356 -305 -746z" />
    <glyph glyph-name="uniFCFE.rlig" unicode="&#xfeb7;&#xfef2;" horiz-adv-x="2625" 
d="M1839 1194l133 137h19l137 -137l-133 -135h-21zM1698 926l147 151h21l125 -125l120 125h21l152 -151l-148 -150h-20l-125 123l-121 -123h-21zM629 -547q-143 0 -250 41t-169.5 114t-93 165.5t-30.5 203.5q0 204 88 447l74 -23q-47 -161 -47 -282q0 -176 113 -273.5
t352 -97.5q186 0 361.5 64t266.5 153q-12 10 -26.5 17.5t-38 13.5t-39 9t-54.5 9.5t-59 10.5l-143 26q-119 22 -172 75.5t-53 154.5q0 122 76 246t198.5 204t245.5 80q104 0 181 -56.5t169 -201.5l41 -64q57 -88 106.5 -122.5t118.5 -34.5q153 0 183 180l22 113h74v-156
q80 -50 170.5 -82t159.5 -37q-43 96 -162 223l82 207h69q90 -180 90 -313q0 -202 -143 -373q-92 3 -195 40.5t-190 103.5l-4 -15q-59 -166 -221 -166q-90 0 -163.5 60t-174.5 211l-43 63q-64 92 -115.5 125t-134.5 33q-106 0 -210.5 -56.5t-104.5 -105.5q0 -26 30 -39.5
t115 -28.5l143 -26q148 -27 202 -69t54 -140q0 -172 -49 -334q-91 -122 -292.5 -209.5t-407.5 -87.5zM446 -829l148 151h20l125 -125l121 125h21l151 -151l-147 -150h-21l-125 123l-121 -123h-20z" />
    <glyph glyph-name="uniFEB7FE8A.rlig" unicode="&#xfeb7;&#xfe8a;" horiz-adv-x="2625" 
d="M1839 1194l133 137h19l137 -137l-133 -135h-21zM1698 926l147 151h21l125 -125l120 125h21l152 -151l-148 -150h-20l-125 123l-121 -123h-21zM33 588l106 76q-65 54 -65 118q0 75 72 149.5t147 74.5q52 0 79 -26t27 -62q0 -57 -24 -95l-133 51q-40 -8 -71.5 -27.5
t-31.5 -37.5q0 -36 81.5 -53.5t170.5 -5.5l66 10l6 -8l-27 -144l-403 -67v47zM629 -547q-143 0 -250 41t-169.5 114t-93 165.5t-30.5 203.5q0 204 88 447l74 -23q-47 -161 -47 -282q0 -176 113 -273.5t352 -97.5q186 0 361.5 64t266.5 153q-12 10 -26.5 17.5t-38 13.5t-39 9
t-54.5 9.5t-59 10.5l-143 26q-119 22 -172 75.5t-53 154.5q0 122 76 246t198.5 204t245.5 80q104 0 181 -56.5t169 -201.5l41 -64q57 -88 106.5 -122.5t118.5 -34.5q153 0 183 180l22 113h74v-156q80 -50 170.5 -82t159.5 -37q-43 96 -162 223l82 207h69q90 -180 90 -313
q0 -202 -143 -373q-92 3 -195 40.5t-190 103.5l-4 -15q-59 -166 -221 -166q-90 0 -163.5 60t-174.5 211l-43 63q-64 92 -115.5 125t-134.5 33q-106 0 -210.5 -56.5t-104.5 -105.5q0 -26 30 -39.5t115 -28.5l143 -26q148 -27 202 -69t54 -140q0 -172 -49 -334
q-91 -122 -292.5 -209.5t-407.5 -87.5z" />
    <glyph glyph-name="uniFEB7FEB0.rlig" unicode="&#xfeb7;&#xfeb0;" horiz-adv-x="1990" 
d="M1198 1118l133 137h19l137 -137l-133 -135h-21zM1057 850l147 151h21l125 -124l120 124h21l151 -151l-147 -150h-20l-125 123l-121 -123h-21zM342 817l147 152h21l152 -152l-148 -149h-20zM-102 -338v74q622 165 622 438l-96 113l100 229l447 84l14 -6v-223
q92 -117 244 -117q71 0 106.5 39t55.5 143l20 113h70v-158q80 -50 170 -82t159 -37q-45 100 -161 224l82 206h69q90 -176 90 -313q0 -202 -141 -371q-93 3 -197.5 41.5t-191.5 104.5l-12 -37q-25 -71 -73 -109t-114 -38q-46 0 -89 14.5t-88 48.5t-85 98t-68 154l-221 -41
q-16 -356 -305 -746z" />
    <glyph glyph-name="uniFB7CFEF0.rlig" unicode="&#xfb7c;&#xfef0;" horiz-adv-x="2093" 
d="M629 -547q-143 0 -250 41t-169.5 114t-93 165.5t-30.5 203.5q0 204 88 447l74 -23q-47 -161 -47 -282q0 -175 112 -273t344 -98q176 0 363.5 55t290.5 134q-60 57 -246 90l-211 34l-4 11l61 250q355 105 707 157q-63 11 -234 58q-237 69 -294 69q-60 0 -88.5 -29
t-34.5 -98h-78q-6 73 -6 131q0 131 54 195.5t155 64.5q55 0 127.5 -18.5t255.5 -77.5q204 -67 292 -88.5t187 -21.5h84l6 -9l-72 -239q-153 -10 -356 -57.5t-410 -118.5q180 -58 180 -193q0 -178 -49 -332q-96 -107 -294.5 -184.5t-413.5 -77.5zM1487 55l139 144h19
l118 -119l115 119h18l144 -144l-139 -141h-21l-117 117l-114 -117h-19zM1628 -188l127 129h21l125 -129l-127 -129h-19z" />
    <glyph glyph-name="uniFB7CFEF2.rlig" unicode="&#xfb7c;&#xfef2;" horiz-adv-x="2093" 
d="M629 -547q-143 0 -250 41t-169.5 114t-93 165.5t-30.5 203.5q0 204 88 447l74 -23q-47 -161 -47 -282q0 -175 112 -273t344 -98q176 0 363.5 55t290.5 134q-60 57 -246 90l-211 34l-4 11l61 250q355 105 707 157q-63 11 -234 58q-237 69 -294 69q-60 0 -88.5 -29
t-34.5 -98h-78q-6 73 -6 131q0 131 54 195.5t155 64.5q55 0 127.5 -18.5t255.5 -77.5q204 -67 292 -88.5t187 -21.5h84l6 -9l-72 -239q-153 -10 -356 -57.5t-410 -118.5q180 -58 180 -193q0 -178 -49 -332q-96 -107 -294.5 -184.5t-413.5 -77.5zM1487 55l139 144h19
l118 -119l115 119h18l144 -144l-139 -141h-21l-117 117l-114 -117h-19zM1628 -188l127 129h21l125 -129l-127 -129h-19zM436 -829l148 151h20l125 -125l121 125h20l152 -151l-148 -150h-20l-125 123l-121 -123h-20z" />
    <glyph glyph-name="uniFB7CFE8A.rlig" unicode="&#xfb7c;&#xfe8a;" horiz-adv-x="2093" 
d="M33 588l106 76q-65 54 -65 118q0 75 72 149.5t147 74.5q52 0 79 -26t27 -62q0 -57 -24 -95l-133 51q-40 -8 -71.5 -27.5t-31.5 -37.5q0 -36 81.5 -53.5t170.5 -5.5l66 10l6 -8l-27 -144l-403 -67v47zM629 -547q-143 0 -250 41t-169.5 114t-93 165.5t-30.5 203.5
q0 204 88 447l74 -23q-47 -161 -47 -282q0 -175 112 -273t344 -98q176 0 363.5 55t290.5 134q-60 57 -246 90l-211 34l-4 11l61 250q355 105 707 157q-63 11 -234 58q-237 69 -294 69q-60 0 -88.5 -29t-34.5 -98h-78q-6 73 -6 131q0 131 54 195.5t155 64.5q55 0 127.5 -18.5
t255.5 -77.5q204 -67 292 -88.5t187 -21.5h84l6 -9l-72 -239q-153 -10 -356 -57.5t-410 -118.5q180 -58 180 -193q0 -178 -49 -332q-96 -107 -294.5 -184.5t-413.5 -77.5zM1487 55l139 144h19l118 -119l115 119h18l144 -144l-139 -141h-21l-117 117l-114 -117h-19z
M1628 -188l127 129h21l125 -129l-127 -129h-19z" />
    <glyph glyph-name="uniFC0F.rlig" unicode="&#xfe97;&#xfef0;" horiz-adv-x="1447" 
d="M813 1346l148 151h20l125 -125l121 125h20l152 -151l-148 -150h-20l-125 123l-121 -123h-20zM616 -391q-139 0 -243 41t-165.5 114t-91.5 165.5t-30 203.5q0 205 88 445l74 -23q-47 -161 -47 -281q0 -176 110 -273t334 -97q186 0 373 49.5t293 128.5q-49 40 -236 74
l-317 51l-6 12l67 270q224 0 363 54q-48 134 -187 293l101 229h69q50 -90 79.5 -204t29.5 -216q0 -131 -39 -246q-43 -29 -59 -37q117 -26 163.5 -67.5t46.5 -116.5q0 -164 -49 -307q-96 -107 -297 -184.5t-424 -77.5z" />
    <glyph glyph-name="uniFC10.rlig" unicode="&#xfe97;&#xfef2;" horiz-adv-x="1447" 
d="M813 1346l148 151h20l125 -125l121 125h20l152 -151l-148 -150h-20l-125 123l-121 -123h-20zM616 -391q-139 0 -243 41t-165.5 114t-91.5 165.5t-30 203.5q0 205 88 445l74 -23q-47 -161 -47 -281q0 -176 110 -273t334 -97q186 0 373 49.5t293 128.5q-49 40 -236 74
l-317 51l-6 12l67 270q224 0 363 54q-48 134 -187 293l101 229h69q50 -90 79.5 -204t29.5 -216q0 -131 -39 -246q-43 -29 -59 -37q117 -26 163.5 -67.5t46.5 -116.5q0 -164 -49 -307q-96 -107 -297 -184.5t-424 -77.5zM446 -676l148 152h20l125 -125l121 125h21l151 -152
l-147 -149h-21l-125 123l-121 -123h-20z" />
    <glyph glyph-name="uniFE97FE8A.rlig" unicode="&#xfe97;&#xfe8a;" horiz-adv-x="1447" 
d="M813 1346l148 151h20l125 -125l121 125h20l152 -151l-148 -150h-20l-125 123l-121 -123h-20zM33 741l106 76q-65 54 -65 119q0 75 72 149t147 74q52 0 79 -26t27 -62q0 -56 -24 -94l-133 51q-40 -8 -71.5 -27.5t-31.5 -37.5q0 -36 81.5 -54t170.5 -6l66 10l6 -8l-27 -143
l-403 -68v47zM616 -391q-139 0 -243 41t-165.5 114t-91.5 165.5t-30 203.5q0 205 88 445l74 -23q-47 -161 -47 -281q0 -176 110 -273t334 -97q186 0 373 49.5t293 128.5q-49 40 -236 74l-317 51l-6 12l67 270q224 0 363 54q-48 134 -187 293l101 229h69q50 -90 79.5 -204
t29.5 -216q0 -131 -39 -246q-43 -29 -59 -37q117 -26 163.5 -67.5t46.5 -116.5q0 -164 -49 -307q-96 -107 -297 -184.5t-424 -77.5z" />
    <glyph glyph-name="uniFC13.rlig" unicode="&#xfe9b;&#xfef0;" horiz-adv-x="1447" 
d="M963 1614l133 137h18l137 -137l-133 -135h-20zM821 1346l148 151h20l125 -125l121 125h20l152 -151l-147 -150h-21l-125 123l-121 -123h-20zM616 -391q-139 0 -243 41t-165.5 114t-91.5 165.5t-30 203.5q0 205 88 445l74 -23q-47 -161 -47 -281q0 -176 110 -273t334 -97
q186 0 373 49.5t293 128.5q-49 40 -236 74l-317 51l-6 12l67 270q224 0 363 54q-48 134 -187 293l101 229h69q50 -90 79.5 -204t29.5 -216q0 -131 -39 -246q-43 -29 -59 -37q117 -26 163.5 -67.5t46.5 -116.5q0 -164 -49 -307q-96 -107 -297 -184.5t-424 -77.5z" />
    <glyph glyph-name="uniFC14.rlig" unicode="&#xfe9b;&#xfef2;" horiz-adv-x="1447" 
d="M963 1614l133 137h18l137 -137l-133 -135h-20zM821 1346l148 151h20l125 -125l121 125h20l152 -151l-147 -150h-21l-125 123l-121 -123h-20zM616 -391q-139 0 -243 41t-165.5 114t-91.5 165.5t-30 203.5q0 205 88 445l74 -23q-47 -161 -47 -281q0 -176 110 -273t334 -97
q186 0 373 49.5t293 128.5q-49 40 -236 74l-317 51l-6 12l67 270q224 0 363 54q-48 134 -187 293l101 229h69q50 -90 79.5 -204t29.5 -216q0 -131 -39 -246q-43 -29 -59 -37q117 -26 163.5 -67.5t46.5 -116.5q0 -164 -49 -307q-96 -107 -297 -184.5t-424 -77.5zM446 -676
l148 152h20l125 -125l121 125h21l151 -152l-147 -149h-21l-125 123l-121 -123h-20z" />
    <glyph glyph-name="uniFE9BFE8A.rlig" unicode="&#xfe9b;&#xfe8a;" horiz-adv-x="1447" 
d="M963 1614l133 137h18l137 -137l-133 -135h-20zM821 1346l148 151h20l125 -125l121 125h20l152 -151l-147 -150h-21l-125 123l-121 -123h-20zM33 741l106 76q-65 54 -65 119q0 75 72 149t147 74q52 0 79 -26t27 -62q0 -56 -24 -94l-133 51q-40 -8 -71.5 -27.5t-31.5 -37.5
q0 -36 81.5 -54t170.5 -6l66 10l6 -8l-27 -143l-403 -68v47zM616 -391q-139 0 -243 41t-165.5 114t-91.5 165.5t-30 203.5q0 205 88 445l74 -23q-47 -161 -47 -281q0 -176 110 -273t334 -97q186 0 373 49.5t293 128.5q-49 40 -236 74l-317 51l-6 12l67 270q224 0 363 54
q-48 134 -187 293l101 229h69q50 -90 79.5 -204t29.5 -216q0 -131 -39 -246q-43 -29 -59 -37q117 -26 163.5 -67.5t46.5 -116.5q0 -164 -49 -307q-96 -107 -297 -184.5t-424 -77.5z" />
    <glyph glyph-name="uniFB68FEF0.rlig" unicode="&#xfb68;&#xfef0;" horiz-adv-x="1447" 
d="M795 1319v20h131q17 28 55 76l-20 195q-62 95 47 168h39v-70l43 -63v-3l-43 -28v-125q82 82 159 82q63 0 105.5 -43t42.5 -101q0 -64 -41 -157q-109 -51 -291 -51h-80zM1174 1446q-91 0 -177 -107h33q158 0 260 31q-10 37 -42 56.5t-74 19.5zM616 -391q-139 0 -243 41
t-165.5 114t-91.5 165.5t-30 203.5q0 205 88 445l74 -23q-47 -161 -47 -281q0 -176 110 -273t334 -97q186 0 373 49.5t293 128.5q-49 40 -236 74l-317 51l-6 12l67 270q224 0 363 54q-48 134 -187 293l101 229h69q50 -90 79.5 -204t29.5 -216q0 -131 -39 -246
q-43 -29 -59 -37q117 -26 163.5 -67.5t46.5 -116.5q0 -164 -49 -307q-96 -107 -297 -184.5t-424 -77.5z" />
    <glyph glyph-name="uniFB68FEF2.rlig" unicode="&#xfb68;&#xfef2;" horiz-adv-x="1447" 
d="M795 1319v20h131q17 28 55 76l-20 195q-62 95 47 168h39v-70l43 -63v-3l-43 -28v-125q82 82 159 82q63 0 105.5 -43t42.5 -101q0 -64 -41 -157q-109 -51 -291 -51h-80zM1174 1446q-91 0 -177 -107h33q158 0 260 31q-10 37 -42 56.5t-74 19.5zM616 -391q-139 0 -243 41
t-165.5 114t-91.5 165.5t-30 203.5q0 205 88 445l74 -23q-47 -161 -47 -281q0 -176 110 -273t334 -97q186 0 373 49.5t293 128.5q-49 40 -236 74l-317 51l-6 12l67 270q224 0 363 54q-48 134 -187 293l101 229h69q50 -90 79.5 -204t29.5 -216q0 -131 -39 -246
q-43 -29 -59 -37q117 -26 163.5 -67.5t46.5 -116.5q0 -164 -49 -307q-96 -107 -297 -184.5t-424 -77.5zM446 -676l148 152h20l125 -125l121 125h21l151 -152l-147 -149h-21l-125 123l-121 -123h-20z" />
    <glyph glyph-name="uniFB68FE8A.rlig" unicode="&#xfb68;&#xfe8a;" horiz-adv-x="1447" 
d="M795 1319v20h131q17 28 55 76l-20 195q-62 95 47 168h39v-70l43 -63v-3l-43 -28v-125q82 82 159 82q63 0 105.5 -43t42.5 -101q0 -64 -41 -157q-109 -51 -291 -51h-80zM1174 1446q-91 0 -177 -107h33q158 0 260 31q-10 37 -42 56.5t-74 19.5zM33 741l106 76
q-65 54 -65 119q0 75 72 149t147 74q52 0 79 -26t27 -62q0 -56 -24 -94l-133 51q-40 -8 -71.5 -27.5t-31.5 -37.5q0 -36 81.5 -54t170.5 -6l66 10l6 -8l-27 -143l-403 -68v47zM616 -391q-139 0 -243 41t-165.5 114t-91.5 165.5t-30 203.5q0 205 88 445l74 -23
q-47 -161 -47 -281q0 -176 110 -273t334 -97q186 0 373 49.5t293 128.5q-49 40 -236 74l-317 51l-6 12l67 270q224 0 363 54q-48 134 -187 293l101 229h69q50 -90 79.5 -204t29.5 -216q0 -131 -39 -246q-43 -29 -59 -37q117 -26 163.5 -67.5t46.5 -116.5q0 -164 -49 -307
q-96 -107 -297 -184.5t-424 -77.5z" />
    <glyph glyph-name="uniFB6CFEF0.rlig" unicode="&#xfb6c;&#xfef0;" horiz-adv-x="1472" 
d="M819 1847l133 138h19l137 -138l-133 -135h-21zM678 1579l147 152h21l125 -125l121 125h20l152 -152l-148 -149h-20l-125 122l-121 -122h-21zM627 -391q-142 0 -248.5 41t-169 114t-93 165.5t-30.5 203.5q0 205 88 445l74 -23q-47 -161 -47 -281q0 -177 110.5 -273.5
t341.5 -96.5q192 0 366.5 47.5t285.5 136.5q-56 43 -230 66l-317 41l-6 12l67 237q248 0 389 66q4 18 4 57q0 126 -41 232l-61 -164q-88 -49 -205 -49q-134 0 -209 71.5t-75 198.5q0 113 48 221.5t126 176t161 67.5q97 0 176.5 -80.5t125 -219t45.5 -304.5q0 -188 -52 -330
q-29 -20 -65 -39q110 -26 155 -65t45 -105q0 -164 -49 -307q-104 -116 -296 -189t-414 -73zM711 915q0 -84 204 -84q125 0 230 25q-45 92 -115.5 146.5t-150.5 54.5q-66 0 -117 -42.5t-51 -99.5z" />
    <glyph glyph-name="uniFB6CFEF2.rlig" unicode="&#xfb6c;&#xfef2;" horiz-adv-x="1472" 
d="M819 1847l133 138h19l137 -138l-133 -135h-21zM678 1579l147 152h21l125 -125l121 125h20l152 -152l-148 -149h-20l-125 122l-121 -122h-21zM627 -391q-142 0 -248.5 41t-169 114t-93 165.5t-30.5 203.5q0 205 88 445l74 -23q-47 -161 -47 -281q0 -177 110.5 -273.5
t341.5 -96.5q192 0 366.5 47.5t285.5 136.5q-56 43 -230 66l-317 41l-6 12l67 237q248 0 389 66q4 18 4 57q0 126 -41 232l-61 -164q-88 -49 -205 -49q-134 0 -209 71.5t-75 198.5q0 113 48 221.5t126 176t161 67.5q97 0 176.5 -80.5t125 -219t45.5 -304.5q0 -188 -52 -330
q-29 -20 -65 -39q110 -26 155 -65t45 -105q0 -164 -49 -307q-104 -116 -296 -189t-414 -73zM711 915q0 -84 204 -84q125 0 230 25q-45 92 -115.5 146.5t-150.5 54.5q-66 0 -117 -42.5t-51 -99.5zM446 -676l148 152h20l125 -125l121 125h21l151 -152l-147 -149h-21l-125 123
l-121 -123h-20z" />
    <glyph glyph-name="uniFB6CFE8A.rlig" unicode="&#xfb6c;&#xfe8a;" horiz-adv-x="1472" 
d="M819 1847l133 138h19l137 -138l-133 -135h-21zM678 1579l147 152h21l125 -125l121 125h20l152 -152l-148 -149h-20l-125 122l-121 -122h-21zM627 -391q-142 0 -248.5 41t-169 114t-93 165.5t-30.5 203.5q0 205 88 445l74 -23q-47 -161 -47 -281q0 -177 110.5 -273.5
t341.5 -96.5q192 0 366.5 47.5t285.5 136.5q-56 43 -230 66l-317 41l-6 12l67 237q248 0 389 66q4 18 4 57q0 126 -41 232l-61 -164q-88 -49 -205 -49q-134 0 -209 71.5t-75 198.5q0 113 48 221.5t126 176t161 67.5q97 0 176.5 -80.5t125 -219t45.5 -304.5q0 -188 -52 -330
q-29 -20 -65 -39q110 -26 155 -65t45 -105q0 -164 -49 -307q-104 -116 -296 -189t-414 -73zM33 741l106 76q-65 54 -65 119q0 75 72 149t147 74q52 0 79 -26t27 -62q0 -56 -24 -94l-133 51q-40 -8 -71.5 -27.5t-31.5 -37.5q0 -36 81.5 -54t170.5 -6l66 10l6 -8l-27 -143
l-403 -68v47zM711 915q0 -84 204 -84q125 0 230 25q-45 92 -115.5 146.5t-150.5 54.5q-66 0 -117 -42.5t-51 -99.5z" />
    <glyph glyph-name="uniFC03.rlig" unicode="&#xfe8b;&#xfef0;" horiz-adv-x="1447" 
d="M891 1231l106 76q-65 54 -65 118q0 75 72 149.5t147 74.5q52 0 79 -26t27 -62q0 -57 -24 -95l-133 52q-40 -8 -71.5 -27.5t-31.5 -38.5q0 -36 81.5 -53.5t170.5 -5.5l66 10l6 -8l-27 -144l-403 -67v47zM616 -391q-139 0 -243 41t-165.5 114t-91.5 165.5t-30 203.5
q0 205 88 445l74 -23q-47 -161 -47 -281q0 -176 110 -273t334 -97q186 0 373 49.5t293 128.5q-49 40 -236 74l-317 51l-6 12l67 270q224 0 363 54q-48 134 -187 293l101 229h69q50 -90 79.5 -204t29.5 -216q0 -131 -39 -246q-43 -29 -59 -37q117 -26 163.5 -67.5
t46.5 -116.5q0 -164 -49 -307q-96 -107 -297 -184.5t-424 -77.5z" />
    <glyph glyph-name="uniFC04.rlig" unicode="&#xfe8b;&#xfef2;" horiz-adv-x="1447" 
d="M891 1231l106 76q-65 54 -65 118q0 75 72 149.5t147 74.5q52 0 79 -26t27 -62q0 -57 -24 -95l-133 52q-40 -8 -71.5 -27.5t-31.5 -38.5q0 -36 81.5 -53.5t170.5 -5.5l66 10l6 -8l-27 -144l-403 -67v47zM616 -391q-139 0 -243 41t-165.5 114t-91.5 165.5t-30 203.5
q0 205 88 445l74 -23q-47 -161 -47 -281q0 -176 110 -273t334 -97q186 0 373 49.5t293 128.5q-49 40 -236 74l-317 51l-6 12l67 270q224 0 363 54q-48 134 -187 293l101 229h69q50 -90 79.5 -204t29.5 -216q0 -131 -39 -246q-43 -29 -59 -37q117 -26 163.5 -67.5
t46.5 -116.5q0 -164 -49 -307q-96 -107 -297 -184.5t-424 -77.5zM446 -676l148 152h20l125 -125l121 125h21l151 -152l-147 -149h-21l-125 123l-121 -123h-20z" />
    <glyph glyph-name="uniFE8BFE8A.rlig" unicode="&#xfe8b;&#xfe8a;" horiz-adv-x="1447" 
d="M891 1231l106 76q-65 54 -65 118q0 75 72 149.5t147 74.5q52 0 79 -26t27 -62q0 -57 -24 -95l-133 52q-40 -8 -71.5 -27.5t-31.5 -38.5q0 -36 81.5 -53.5t170.5 -5.5l66 10l6 -8l-27 -144l-403 -67v47zM33 741l106 76q-65 54 -65 119q0 75 72 149t147 74q52 0 79 -26
t27 -62q0 -56 -24 -94l-133 51q-40 -8 -71.5 -27.5t-31.5 -37.5q0 -36 81.5 -54t170.5 -6l66 10l6 -8l-27 -143l-403 -68v47zM616 -391q-139 0 -243 41t-165.5 114t-91.5 165.5t-30 203.5q0 205 88 445l74 -23q-47 -161 -47 -281q0 -176 110 -273t334 -97q186 0 373 49.5
t293 128.5q-49 40 -236 74l-317 51l-6 12l67 270q224 0 363 54q-48 134 -187 293l101 229h69q50 -90 79.5 -204t29.5 -216q0 -131 -39 -246q-43 -29 -59 -37q117 -26 163.5 -67.5t46.5 -116.5q0 -164 -49 -307q-96 -107 -297 -184.5t-424 -77.5z" />
    <glyph glyph-name="uniFBFEFBFD.rlig" unicode="&#xfbfe;&#xfbfd;" horiz-adv-x="1447" 
d="M616 -391q-139 0 -243 41t-165.5 114t-91.5 165.5t-30 203.5q0 205 88 445l74 -23q-47 -161 -47 -281q0 -176 110 -273t334 -97q186 0 373 49.5t293 128.5q-49 40 -236 74l-317 51l-6 12l67 270q224 0 363 54q-48 134 -187 293l101 229h69q50 -90 79.5 -204t29.5 -216
q0 -131 -39 -246q-43 -29 -59 -37q117 -26 163.5 -67.5t46.5 -116.5q0 -164 -49 -307q-96 -107 -297 -184.5t-424 -77.5zM963 -571l147 151h20l125 -125l121 125h21l151 -151l-147 -150h-21l-125 123l-120 -123h-21z" />
    <glyph glyph-name="uniFEE0FB51" unicode="&#xfee0;&#xfb51;" horiz-adv-x="1218" 
d="M176 1298l39 226l12 8l107 -23q65 106 120 151.5t119 45.5q60 0 102 -42t44 -101q0 -67 -41 -160q-112 -74 -307 -37l-95 18l-47 -102zM539 1581q-74 0 -140 -86q163 -32 254 4q-9 39 -41 60.5t-73 21.5zM90 76q364 135 514 233q-6 140 -57 238.5t-176 204.5l-117 102
h-184v340l67 39l242 -221q171 -154 238.5 -296t66.5 -343q90 81 127 183t29 249l-25 481l115 242h69v-1075q0 -100 48.5 -139.5t171.5 -39.5v-221l-52 -53q-171 0 -240 88.5t-77 302.5l-2 51h-4q-27 -112 -85.5 -228t-140.5 -214h-528v76z" />
    <glyph glyph-name="uni066E.init" unicode="&#x66e;" horiz-adv-x="567" 
d="M-51 221l53 53q227 0 365 58q-47 90 -185 219l99 229h71q52 -72 83.5 -165.5t31.5 -178.5q0 -179 -57 -338q-76 -44 -203 -71t-258 -27v221z" />
    <glyph glyph-name="uni066E.medi" unicode="&#x66e;" horiz-adv-x="608" 
d="M-53 221l53 53q165 0 240 41l51 310h76v-168q0 -111 49 -147t192 -36v-229l-51 -45q-125 0 -207 60.5t-104 162.5h-6q-8 -41 -41 -149q-102 -74 -252 -74v221z" />
    <glyph glyph-name="uni066E.fina" unicode="&#x66e;" horiz-adv-x="1884" 
d="M739 -35q-339 0 -494 104t-155 326q0 180 90 389l66 -22q-35 -118 -35 -219q0 -166 132.5 -234.5t424.5 -68.5q374 0 550 40.5t247 141.5l63 88l66 -41l-70 -113q94 -82 260 -82v-229l-51 -45q-96 0 -185.5 41.5t-156.5 126.5q-110 -115 -279 -159t-473 -44z" />
    <glyph glyph-name="uni066F.fina" unicode="&#x66f;" horiz-adv-x="1374" 
d="M596 -547q-241 0 -375.5 122.5t-134.5 342.5q0 178 82 399l65 -22q-34 -112 -34 -219q0 -162 109 -245t317 -83q155 0 301.5 44t244.5 118q6 46 9 90h-234q-169 0 -261.5 81t-92.5 222q0 117 48 228.5t126.5 180t161.5 68.5q134 0 230.5 -144.5t111.5 -361.5h104v-221
l-51 -53h-61q-16 -185 -56 -324q-98 -99 -265 -161t-345 -62zM940 274h201q-44 105 -121.5 168.5t-169.5 63.5q-66 0 -118 -42t-52 -97q0 -93 260 -93z" />
    <glyph glyph-name="uni06A1.init" unicode="&#x6a1;" horiz-adv-x="819" 
d="M-53 221l53 53q198 0 368 25t281 70q2 14 2 34q0 117 -39 215l-63 -178q-89 -47 -205 -47q-134 0 -209.5 74.5t-75.5 204.5q0 114 48 222.5t126.5 175.5t161.5 67q96 0 175 -76.5t124 -208.5t45 -291q0 -225 -77 -432q-124 -61 -313 -95t-402 -34v221zM150 733
q0 -84 204 -84q131 0 234 27q-47 91 -118 144.5t-153 53.5q-66 0 -116.5 -42.5t-50.5 -98.5z" />
    <glyph glyph-name="uni06A1.medi" unicode="&#x6a1;" horiz-adv-x="874" 
d="M-53 221l53 53q42 0 180 5q-53 80 -53 178q0 106 48.5 217t129.5 185.5t166 74.5q106 0 191.5 -114.5t85.5 -256.5q0 -141 -107 -270q117 -19 233 -19v-221l-51 -53q-246 0 -438 100q-205 -100 -438 -100v221zM215 539q0 -66 83 -124t220 -96q139 43 139 125
q0 83 -82.5 149t-185.5 66q-72 0 -123 -33.5t-51 -86.5z" />
    <glyph glyph-name="uni06A1.fina" unicode="&#x6a1;" horiz-adv-x="1875" 
d="M698 -35q-319 0 -463.5 103.5t-144.5 326.5q0 180 90 389l66 -22q-35 -118 -35 -219q0 -166 131 -234.5t420 -68.5q269 0 446 24q-59 86 -59 193q0 105 49 216.5t130 186t165 74.5q107 0 193 -114t86 -257q0 -138 -103 -272q112 -17 207 -17v-221l-53 -53
q-242 0 -428 100q-314 -135 -697 -135zM1239 539q0 -66 81 -125t216 -97q145 39 145 127q0 83 -83 149t-187 66q-72 0 -122 -33.5t-50 -86.5z" />
    <glyph glyph-name="uni06C2.fina" unicode="&#x6c2;" horiz-adv-x="1230" 
d="M418 889l106 76q-65 54 -65 118q0 75 72 149.5t147 74.5q52 0 79 -26t27 -62q0 -57 -24 -95l-133 52q-40 -8 -71.5 -27.5t-31.5 -38.5q0 -36 81.5 -53.5t170.5 -5.5l66 10l6 -8l-27 -144l-403 -67v47zM1180 0q-103 0 -179 54.5t-186 207.5q-65 90 -117 128t-110 38
q-77 0 -176 -59.5t-273 -216.5l-49 38l100 244q132 133 246 200.5t199 67.5q89 0 161 -56t187 -212q66 -93 118 -126.5t130 -33.5v-221z" />
    <glyph glyph-name="uni06C3.fina" unicode="&#x6c3;" horiz-adv-x="1230" 
d="M342 1004l147 151h21l125 -125l121 125h20l152 -151l-148 -150h-20l-125 123l-121 -123h-20zM1180 0q-103 0 -179 54.5t-186 207.5q-65 90 -117 128t-110 38q-77 0 -176 -59.5t-273 -216.5l-49 38l100 244q132 133 246 200.5t199 67.5q89 0 161 -56t187 -212
q66 -93 118 -126.5t130 -33.5v-221z" />
    <glyph glyph-name="uniFB51" unicode="&#x671;" horiz-adv-x="589" arabic-form="final" 
d="M-18 1333l38 226l13 8l106 -23q65 106 120.5 151.5t119.5 45.5q59 0 101 -42.5t44 -101.5q0 -66 -41 -159q-112 -74 -307 -37l-94 18l-47 -102zM344 1616q-73 0 -139 -86q163 -32 254 4q-9 39 -41.5 60.5t-73.5 21.5zM539 0q-99 0 -163 22t-104.5 76.5t-59.5 135
t-26 208.5l-28 607l114 241h76v-837q0 -100 53.5 -139.5t188.5 -39.5v-221z" />
    <glyph glyph-name="uniFB57" unicode="&#x67e;" horiz-adv-x="1884" arabic-form="final" 
d="M739 -35q-339 0 -494 104t-155 326q0 180 90 389l66 -22q-35 -118 -35 -219q0 -166 132.5 -234.5t424.5 -68.5q374 0 550 40.5t247 141.5l63 88l66 -41l-70 -113q94 -82 260 -82v-229l-51 -45q-96 0 -185.5 41.5t-156.5 126.5q-110 -115 -279 -159t-473 -44zM555 -311
l147 151h21l125 -125l121 125h20l152 -151l-148 -150h-20l-125 123l-121 -123h-20zM705 -569l135 137h20l133 -137l-135 -136h-18z" />
    <glyph glyph-name="uniFB58" unicode="&#x67e;" horiz-adv-x="567" arabic-form="initial" 
d="M-51 221l53 53q227 0 365 58q-47 90 -185 219l99 229h71q52 -72 83.5 -165.5t31.5 -178.5q0 -179 -57 -338q-76 -44 -203 -71t-258 -27v221zM-23 -311l148 151h20l125 -125l121 125h21l151 -151l-147 -150h-21l-125 123l-120 -123h-21zM127 -569l135 137h21l133 -137
l-135 -136h-19z" />
    <glyph glyph-name="uniFB59" unicode="&#x67e;" horiz-adv-x="608" arabic-form="medial" 
d="M-53 221l53 53q165 0 240 41l51 310h76v-168q0 -111 49 -147t192 -36v-229l-51 -45q-125 0 -207 60.5t-104 162.5h-6q-8 -41 -41 -149q-102 -74 -252 -74v221zM-8 -311l147 151h21l125 -125l121 125h20l152 -151l-148 -150h-20l-125 123l-121 -123h-21zM141 -569l135 137
h21l133 -137l-135 -136h-19z" />
    <glyph glyph-name="uniFB67" unicode="&#x679;" horiz-adv-x="1884" arabic-form="final" 
d="M518 823v21h131q13 21 56 76l-21 194q-62 95 47 168h39v-70l43 -63v-2l-43 -29v-125q82 82 160 82q63 0 105 -42.5t42 -100.5q0 -65 -41 -158q-109 -51 -291 -51h-79zM897 950q-48 0 -89.5 -24.5t-86.5 -81.5h33q162 0 260 30q-10 37 -42.5 56.5t-74.5 19.5zM739 -35
q-339 0 -494 104t-155 326q0 180 90 389l66 -22q-35 -118 -35 -219q0 -166 132.5 -234.5t424.5 -68.5q374 0 550 40.5t247 141.5l63 88l66 -41l-70 -113q94 -82 260 -82v-229l-51 -45q-96 0 -185.5 41.5t-156.5 126.5q-110 -115 -279 -159t-473 -44z" />
    <glyph glyph-name="uniFB68" unicode="&#x679;" horiz-adv-x="567" arabic-form="initial" 
d="M-29 1055v20h131q13 21 56 76l-21 195q-61 94 47 167h39v-69l43 -64v-2l-43 -28v-125q82 82 160 82q63 0 105 -43t42 -101q0 -64 -41 -157q-111 -52 -290 -52h-80zM350 1182q-47 0 -88.5 -25t-87.5 -82h33q158 0 260 31q-10 37 -42.5 56.5t-74.5 19.5zM-51 221l53 53
q227 0 365 58q-47 90 -185 219l99 229h71q52 -72 83.5 -165.5t31.5 -178.5q0 -179 -57 -338q-76 -44 -203 -71t-258 -27v221z" />
    <glyph glyph-name="uniFB69" unicode="&#x679;" horiz-adv-x="608" arabic-form="medial" 
d="M14 899v21h131q10 17 56 75l-21 195q-62 95 47 168h39v-70l43 -63v-2l-43 -29v-125q82 82 160 82q63 0 105 -42.5t42 -100.5q0 -65 -41 -158q-109 -51 -290 -51h-80zM393 1026q-48 0 -89.5 -24.5t-86.5 -81.5h33q162 0 260 30q-10 37 -42.5 56.5t-74.5 19.5zM-53 221
l53 53q165 0 240 41l51 310h76v-168q0 -111 49 -147t192 -36v-229l-51 -45q-125 0 -207 60.5t-104 162.5h-6q-8 -41 -41 -149q-102 -74 -252 -74v221z" />
    <glyph glyph-name="uniFB6B" unicode="&#x6a4;" horiz-adv-x="1875" arabic-form="final" 
d="M1329 1503l133 137h19l137 -137l-133 -135h-21zM1188 1235l147 151h21l125 -124l121 124h20l152 -151l-148 -150h-20l-125 123l-121 -123h-21zM698 -35q-319 0 -463.5 103.5t-144.5 326.5q0 180 90 389l66 -22q-35 -118 -35 -219q0 -166 131 -234.5t420 -68.5
q269 0 446 24q-59 86 -59 193q0 105 49 216.5t130 186t165 74.5q107 0 193 -114t86 -257q0 -138 -103 -272q112 -17 207 -17v-221l-53 -53q-242 0 -428 100q-314 -135 -697 -135zM1239 539q0 -66 81 -125t216 -97q145 39 145 127q0 83 -83 149t-187 66q-72 0 -122 -33.5
t-50 -86.5z" />
    <glyph glyph-name="uniFB6C" unicode="&#x6a4;" horiz-adv-x="819" arabic-form="initial" 
d="M229 1706l133 137h19l137 -137l-133 -135h-20zM88 1438l148 151h20l125 -125l121 125h20l152 -151l-148 -150h-20l-125 123l-121 -123h-20zM-53 221l53 53q198 0 368 25t281 70q2 14 2 34q0 117 -39 215l-63 -178q-89 -47 -205 -47q-134 0 -209.5 74.5t-75.5 204.5
q0 114 48 222.5t126.5 175.5t161.5 67q96 0 175 -76.5t124 -208.5t45 -291q0 -225 -77 -432q-124 -61 -313 -95t-402 -34v221zM150 733q0 -84 204 -84q131 0 234 27q-47 91 -118 144.5t-153 53.5q-66 0 -116.5 -42.5t-50.5 -98.5z" />
    <glyph glyph-name="uniFB6D" unicode="&#x6a4;" horiz-adv-x="874" arabic-form="medial" 
d="M305 1503l133 137h19l137 -137l-133 -135h-21zM164 1235l147 151h21l125 -124l121 124h20l152 -151l-148 -150h-20l-125 123l-121 -123h-21zM-53 221l53 53q42 0 180 5q-53 80 -53 178q0 106 48.5 217t129.5 185.5t166 74.5q106 0 191.5 -114.5t85.5 -256.5
q0 -141 -107 -270q117 -19 233 -19v-221l-51 -53q-246 0 -438 100q-205 -100 -438 -100v221zM215 539q0 -66 83 -124t220 -96q139 43 139 125q0 83 -82.5 149t-185.5 66q-72 0 -123 -33.5t-51 -86.5z" />
    <glyph glyph-name="uniFB7B" unicode="&#x686;" horiz-adv-x="1294" arabic-form="final" 
d="M121 467q-25 212 23.5 301.5t189.5 89.5q69 0 401 -43q253 -33 385 -33h109l6 -8l-74 -264q-79 -3 -153 -12q12 -122 77.5 -173t208.5 -51v-221l-53 -53q-173 0 -248 109t-82 376q-365 -54 -561 -199t-196 -360q0 -130 92.5 -227t252 -147t363.5 -50q218 0 400 43l22 -61
l-493 -270q-216 0 -389 76t-273 218.5t-100 327.5q0 248 160 440.5t452 298.5l-43 5q-200 14 -274 14q-62 0 -90.5 -22t-32.5 -74l-4 -31h-76zM326 66l147 151h21l124 -125l121 125h21l151 -151l-147 -150h-21l-125 123l-120 -123h-21zM475 -193l135 138h21l133 -138
l-135 -135h-19z" />
    <glyph glyph-name="uniFB7C" unicode="&#x686;" horiz-adv-x="1337" arabic-form="initial" 
d="M-53 221l53 53q171 0 403 58q261 64 457 80q-93 27 -264 100q-110 48 -166.5 65t-97.5 17q-57 0 -86 -31t-35 -96h-78q-6 71 -6 129q0 126 56 194t157 68q58 0 134 -25t226 -92q214 -99 331.5 -137.5t201.5 -38.5h49l6 -8l-74 -244h-47q-192 0 -324.5 -30t-338.5 -125
q-197 -90 -316.5 -124t-240.5 -34v221zM424 -106l147 151h21l125 -125l121 125h20l152 -151l-148 -150h-20l-125 123l-121 -123h-21zM573 -365l136 138h20l133 -138l-135 -135h-18z" />
    <glyph glyph-name="uniFB7D" unicode="&#x686;" horiz-adv-x="1409" arabic-form="medial" 
d="M-53 221l53 53q106 0 206.5 21.5t256.5 71.5q244 77 377 108q-91 14 -211 51q-240 70 -295 70q-60 0 -88.5 -29.5t-34.5 -99.5h-78q-6 73 -6 131q0 260 209 260q56 0 131.5 -19t251.5 -77q184 -59 278.5 -78.5t198.5 -19.5h94l6 -9l-71 -239h-58q-55 0 -110 -6
q26 -75 106.5 -105.5t245.5 -30.5v-221l-53 -53q-192 0 -279.5 86t-113.5 303q-148 -39 -428 -196q-205 -114 -326 -153.5t-262 -39.5v221zM424 -106l147 151h21l125 -125l121 125h20l152 -151l-148 -150h-20l-125 123l-121 -123h-21zM573 -365l136 138h20l133 -138
l-135 -135h-18z" />
    <glyph glyph-name="uniFB89" unicode="&#x688;" horiz-adv-x="1138" arabic-form="final" 
d="M305 1290v21h131q10 17 56 75l-21 195q-62 95 47 168h39v-70l43 -63v-2l-43 -29v-125q82 82 160 82q63 0 105 -42.5t42 -100.5q0 -65 -41 -158q-109 -51 -291 -51h-79zM684 1417q-48 0 -89.5 -24.5t-86.5 -81.5h33q162 0 260 30q-10 37 -42.5 56.5t-74.5 19.5zM399 -35
q-309 0 -309 252q0 68 39 215h74l2 -43q4 -89 52.5 -119t188.5 -30q183 0 287 63q-18 34 -63 135l-152 348l100 230h70l143 -418q66 -189 132.5 -256.5t187.5 -67.5v-221l-53 -53q-106 0 -181 52.5t-149 185.5h-6q-11 -62 -41 -168q-60 -50 -146 -77.5t-176 -27.5z" />
    <glyph glyph-name="uniFB8B" unicode="&#x698;" horiz-adv-x="839" arabic-form="final" 
d="M276 1194l134 137h18l137 -137l-133 -135h-20zM135 926l148 151h20l125 -125l121 125h20l152 -151l-148 -150h-20l-125 123l-121 -123h-20zM-102 -338v74q536 139 618 362q-89 82 -197 297l101 230h69q88 -204 161.5 -277.5t189.5 -73.5v-221l-52 -53q-125 0 -210 49
q-66 -261 -273 -541z" />
    <glyph glyph-name="uniFB8D" unicode="&#x691;" horiz-adv-x="839" arabic-form="final" 
d="M106 899v21h132q14 23 55 75l-21 195q-62 95 47 168h39v-70l43 -63v-2l-43 -29v-125q82 82 160 82q63 0 105.5 -42.5t42.5 -100.5q0 -65 -41 -158q-109 -51 -291 -51h-80zM485 1026q-48 0 -89.5 -24.5t-86.5 -81.5h33q162 0 260 30q-10 37 -42.5 56.5t-74.5 19.5z
M-102 -338v74q536 139 618 362q-89 82 -197 297l101 230h69q88 -204 161.5 -277.5t189.5 -73.5v-221l-52 -53q-125 0 -210 49q-66 -261 -273 -541z" />
    <glyph glyph-name="uniFB8F" unicode="&#x6a9;" horiz-adv-x="2000" arabic-form="final" 
d="M721 -35q-336 0 -483.5 103t-147.5 327q0 180 90 389l66 -22q-35 -118 -35 -219q0 -167 126 -235t413 -68q434 0 692 106q-3 3 -15 21q-97 146 -185.5 245.5t-258.5 253.5l156 328l882 367l29 -70l-115 -178l-751 -309q122 -112 217.5 -222t206.5 -266
q72 -101 128.5 -151t125 -70.5t176.5 -20.5v-221l-51 -53q-168 0 -272 58t-226 221h-6q-12 -57 -43 -162q-241 -152 -719 -152z" />
    <glyph glyph-name="uniFB90" unicode="&#x6a9;" horiz-adv-x="972" arabic-form="initial" 
d="M717 127q-115 -59 -325.5 -93t-444.5 -34v221l53 53q417 0 680 86q-40 98 -151.5 202.5t-280.5 201.5l-51 -86h-13l-192 188l158 328l882 367l27 -70l-113 -178l-659 -273q260 -174 369.5 -318.5t109.5 -295.5q0 -128 -49 -299z" />
    <glyph glyph-name="uniFB91" unicode="&#x6a9;" horiz-adv-x="1077" arabic-form="medial" 
d="M-53 221l53 53q271 0 477 78q-2 2 -5 7.5t-5 7.5q-97 146 -185.5 245.5t-258.5 253.5l155 328l883 367l29 -70l-115 -178l-750 -309q121 -112 216 -222t206 -266q72 -101 128.5 -151t125 -70.5t176.5 -20.5v-221l-51 -53q-168 0 -272.5 58t-225.5 221h-6
q-12 -57 -43 -162q-100 -56 -239.5 -86.5t-292.5 -30.5v221z" />
    <glyph glyph-name="uniFB93" unicode="&#x6af;" horiz-adv-x="2000" arabic-form="final" 
d="M1200 1350l72 145l663 274l43 -106l-770 -320zM721 -35q-336 0 -483.5 103t-147.5 327q0 180 90 389l66 -22q-35 -118 -35 -219q0 -167 126 -235t413 -68q434 0 692 106q-3 3 -15 21q-97 146 -185.5 245.5t-258.5 253.5l156 328l882 367l29 -70l-115 -178l-751 -309
q122 -112 217.5 -222t206.5 -266q72 -101 128.5 -151t125 -70.5t176.5 -20.5v-221l-51 -53q-168 0 -272 58t-226 221h-6q-12 -57 -43 -162q-241 -152 -719 -152z" />
    <glyph glyph-name="uniFB94" unicode="&#x6af;" horiz-adv-x="972" arabic-form="initial" 
d="M211 1350l72 145l663 274l43 -106l-770 -320zM717 127q-115 -59 -325.5 -93t-444.5 -34v221l53 53q417 0 680 86q-40 98 -151.5 202.5t-280.5 201.5l-51 -86h-13l-192 188l158 328l882 367l27 -70l-113 -178l-659 -273q260 -174 369.5 -318.5t109.5 -295.5
q0 -128 -49 -299z" />
    <glyph glyph-name="uniFB95" unicode="&#x6af;" horiz-adv-x="1077" arabic-form="medial" 
d="M240 1350l71 145l664 274l43 -106l-770 -320zM-53 221l53 53q271 0 477 78q-2 2 -5 7.5t-5 7.5q-97 146 -185.5 245.5t-258.5 253.5l155 328l883 367l29 -70l-115 -178l-750 -309q121 -112 216 -222t206 -266q72 -101 128.5 -151t125 -70.5t176.5 -20.5v-221l-51 -53
q-168 0 -272.5 58t-225.5 221h-6q-12 -57 -43 -162q-100 -56 -239.5 -86.5t-292.5 -30.5v221z" />
    <glyph glyph-name="uniFB9F" unicode="&#x6ba;" horiz-adv-x="1415" arabic-form="final" 
d="M557 -547q-223 0 -347 122.5t-124 342.5q0 178 82 399l65 -22q-34 -112 -34 -219q0 -162 98.5 -245t286.5 -83q144 0 275 45.5t228 126.5q-23 173 -192 475l100 230h70q90 -210 159.5 -280.5t190.5 -70.5v-221l-53 -53q-108 0 -184 43q0 -183 -54 -356
q-103 -109 -253.5 -171.5t-313.5 -62.5z" />
    <glyph glyph-name="uniFBA7" unicode="&#x6c1;" horiz-adv-x="1230" arabic-form="final" 
d="M1180 0q-103 0 -179 54.5t-186 207.5q-65 90 -117 128t-110 38q-77 0 -176 -59.5t-273 -216.5l-49 38l100 244q132 133 246 200.5t199 67.5q89 0 161 -56t187 -212q66 -93 118 -126.5t130 -33.5v-221z" />
    <glyph glyph-name="uniFBA8" unicode="&#x6c1;" horiz-adv-x="913" arabic-form="initial" 
d="M-53 221l53 53q121 0 191 33t126 115l64 88l65 -39l-53 -90q79 -52 173 -86.5t167 -40.5q-36 87 -162 225l82 205h72q88 -181 88 -313q0 -204 -143 -371q-99 3 -213.5 48t-200.5 120q-72 -93 -142.5 -130.5t-166.5 -37.5v221zM279 -567q-59 0 -101.5 44t-42.5 115
q0 92 67.5 176t184.5 134l39 -56q-125 -58 -125 -143q0 -40 24.5 -66t77.5 -43q5 -65 -25.5 -113t-98.5 -48z" />
    <glyph glyph-name="uniFBA9" unicode="&#x6c1;" horiz-adv-x="878" arabic-form="medial" 
d="M-53 221l53 53q122 0 192 32t125 114l64 90l65 -41q-57 -105 -83.5 -173.5t-26.5 -125.5q0 -89 47.5 -164t175.5 -196v18q0 209 87.5 327.5t232.5 118.5v-221l-54 -53q-184 0 -184 -119q0 -83 92 -235v-11l-174 -182l-92 92q-142 140 -190 244.5t-48 243.5q0 52 13 119
q-67 -84 -135 -118t-160 -34v221z" />
    <glyph glyph-name="uniFBAB" unicode="&#x6be;" horiz-adv-x="1081" arabic-form="final" 
d="M696 -467q-151 0 -246 123t-118 346q-23 -2 -64 -2l-248 197v77h156q34 0 156 5q18 150 70.5 279t140 212.5t190.5 83.5q93 0 165.5 -90.5t72.5 -218.5q0 -143 -101 -271h211v-221l-51 -53q-19 0 -47 4q39 -71 39 -156q0 -132 -93 -223.5t-233 -91.5zM727 565
q-110 0 -192.5 -82.5t-118.5 -197.5q210 19 337.5 65t127.5 105q0 46 -45.5 78t-108.5 32zM934 -84q0 110 -305 168q-101 -50 -205 -70q37 -98 119 -152.5t192 -54.5q91 0 145 31.5t54 77.5z" />
    <glyph glyph-name="uniFBAC" unicode="&#x6be;" horiz-adv-x="1118" arabic-form="initial" 
d="M791 -20q-250 0 -433 108q-187 -88 -411 -88v221l53 53q121 0 172 2q-45 85 -45 181q0 99 57.5 203.5t141.5 160.5v176l8 7l293 -154q218 -118 320 -238t102 -264q0 -153 -66 -336q-76 -32 -192 -32zM215 535q0 -65 68.5 -124t185.5 -98q77 20 112 54t35 84
q0 77 -76 138.5t-171 61.5q-64 0 -109 -33t-45 -83zM848 254q86 0 123 4q-18 69 -84.5 132.5t-181.5 129.5q-15 -129 -103 -244q119 -22 246 -22z" />
    <glyph glyph-name="uniFBAD" unicode="&#x6be;" horiz-adv-x="870" arabic-form="medial" 
d="M485 -467q-153 0 -248 125t-118 352q-92 -10 -172 -10v221l53 53q82 0 121 2q18 151 70.5 280.5t140 213.5t190.5 84q94 0 167 -90.5t73 -218.5q0 -147 -98 -271h206v-221l-51 -53q-33 0 -47 2q39 -71 39 -154q0 -132 -93 -223.5t-233 -91.5zM516 565q-109 0 -192.5 -83
t-118.5 -199q213 15 339 62t126 110q0 46 -45.5 78t-108.5 32zM725 -84q0 112 -319 170q-85 -36 -197 -61q35 -103 119 -160.5t198 -57.5q91 0 145 31.5t54 77.5z" />
    <glyph glyph-name="uniFBAF" unicode="&#x6d2;" horiz-adv-x="1492" arabic-form="final" 
d="M444 -469q-184 0 -273 74t-89 196q0 227 190.5 350t538.5 123h713v-229l-51 -45h-752q-261 0 -397 -26.5t-136 -88.5q0 -46 76 -62t262 -16h951v-79l-392 -197h-641z" />
    <glyph glyph-name="uniFBB1" unicode="&#x6d3;" horiz-adv-x="1492" arabic-form="final" 
d="M594 461l106 76q-65 54 -65 118q0 75 72 149.5t147 74.5q52 0 79.5 -26t27.5 -62q0 -55 -25 -95l-133 52q-40 -8 -71.5 -27.5t-31.5 -38.5q0 -36 81.5 -53.5t170.5 -5.5l66 10l6 -8l-27 -144l-403 -67v47zM444 -469q-184 0 -273 74t-89 196q0 227 190.5 350t538.5 123
h713v-229l-51 -45h-752q-261 0 -397 -26.5t-136 -88.5q0 -46 76 -62t262 -16h951v-79l-392 -197h-641z" />
    <glyph glyph-name="uniFBFD" unicode="&#x6cc;" horiz-adv-x="1523" arabic-form="final" 
d="M637 -547q-146 0 -254.5 41t-172 114t-94 165t-30.5 204q0 204 88 447l74 -23q-47 -161 -47 -282q0 -176 112.5 -273.5t350.5 -97.5q189 0 366 52.5t283 138.5q-30 36 -86 56t-152 32l-219 28l-6 13l63 254l134 -15q281 -33 477 -33v-221l-51 -53q-38 0 -87 8
q-7 -163 -49 -293q-104 -115 -294.5 -188.5t-405.5 -73.5z" />
    <glyph glyph-name="uniFBFE" unicode="&#x6cc;" horiz-adv-x="567" arabic-form="initial" 
d="M-51 221l53 53q227 0 365 58q-47 90 -185 219l99 229h71q52 -72 83.5 -165.5t31.5 -178.5q0 -179 -57 -338q-76 -44 -203 -71t-258 -27v221zM-20 -311l147 151h20l125 -125l121 125h21l151 -151l-147 -150h-21l-125 123l-120 -123h-21z" />
    <glyph glyph-name="uniFBFF" unicode="&#x6cc;" horiz-adv-x="608" arabic-form="medial" 
d="M-53 221l53 53q165 0 240 41l51 310h76v-168q0 -111 49 -147t192 -36v-229l-51 -45q-125 0 -207 60.5t-104 162.5h-6q-8 -41 -41 -149q-102 -74 -252 -74v221zM-8 -311l147 151h21l125 -125l121 125h20l152 -151l-148 -150h-20l-125 123l-121 -123h-21z" />
    <glyph glyph-name="uniFC00" unicode="&#xfc00;" horiz-adv-x="1273" arabic-form="isolated" 
d="M623 1464l106 76q-65 54 -65 119q0 75 72 149t147 74q52 0 79 -26t27 -62q0 -56 -24 -94l-134 51q-40 -8 -71 -27t-31 -38q0 -36 81.5 -54t170.5 -6l66 10l6 -8l-27 -143l-403 -68v47zM782 -799q-214 0 -385 77t-269.5 220.5t-98.5 329.5q0 234 140 418t398 295h-446
l-6 8l63 239q62 14 112 46.5t136 115.5l131 129q114 110 188 154.5t144 44.5q88 0 141 -60t53 -155q0 -99 -47 -209h-73q-6 74 -53.5 117t-121.5 43q-94 0 -221 -109l-151 -129h813l6 -8l-74 -264q-482 -26 -744.5 -181.5t-262.5 -406.5q0 -131 91.5 -228.5t249 -147.5
t357.5 -50q202 0 401 43l21 -61zM440 -41l148 152h20l152 -152l-148 -149h-20z" />
    <glyph glyph-name="uniFC01" unicode="&#xfc01;" horiz-adv-x="1273" arabic-form="isolated" 
d="M623 1464l106 76q-65 54 -65 119q0 75 72 149t147 74q52 0 79 -26t27 -62q0 -56 -24 -94l-134 51q-40 -8 -71 -27t-31 -38q0 -36 81.5 -54t170.5 -6l66 10l6 -8l-27 -143l-403 -68v47zM782 -799q-214 0 -385 77t-269.5 220.5t-98.5 329.5q0 234 140 418t398 295h-446
l-6 8l63 239q62 14 112 46.5t136 115.5l131 129q114 110 188 154.5t144 44.5q88 0 141 -60t53 -155q0 -99 -47 -209h-73q-6 74 -53.5 117t-121.5 43q-94 0 -221 -109l-151 -129h813l6 -8l-74 -264q-482 -26 -744.5 -181.5t-262.5 -406.5q0 -131 91.5 -228.5t249 -147.5
t357.5 -50q202 0 401 43l21 -61z" />
    <glyph glyph-name="uniFC02" unicode="&#xfc02;" horiz-adv-x="1120" arabic-form="isolated" 
d="M631 1137l106 75q-65 54 -65 119q0 75 72 149t147 74q52 0 79 -26t27 -62q0 -56 -24 -94l-133 51q-40 -8 -71.5 -27.5t-31.5 -37.5q0 -36 81.5 -54t170.5 -6l66 11l6 -9l-27 -143l-403 -67v47zM340 -451l-84 -239h-78l-88 690l57 190q28 96 98.5 150.5t174.5 58.5
q-33 68 -33 138q0 114 85 211.5t234 155t328 57.5l47 -78l-82 -205q-233 0 -378.5 -35t-145.5 -92q0 -47 89.5 -110.5t307.5 -170.5l39 -18l-123 -246l-36 19q-212 102 -346 102q-88 0 -168 -31z" />
    <glyph glyph-name="uniFC05" unicode="&#xfc05;" horiz-adv-x="1273" arabic-form="isolated" 
d="M782 -799q-214 0 -385 77t-269.5 220.5t-98.5 329.5q0 234 140 418t398 295h-446l-6 8l63 239q62 14 112 46.5t136 115.5l131 129q114 110 188 154.5t144 44.5q88 0 141 -60t53 -155q0 -99 -47 -209h-73q-6 74 -53.5 117t-121.5 43q-94 0 -221 -109l-151 -129h813l6 -8
l-74 -264q-482 -26 -744.5 -181.5t-262.5 -406.5q0 -131 91.5 -228.5t249 -147.5t357.5 -50q202 0 401 43l21 -61zM893 211l147 151h21l151 -151l-147 -150h-21zM440 -41l148 152h20l152 -152l-148 -149h-20z" />
    <glyph glyph-name="uniFC06" unicode="&#xfc06;" horiz-adv-x="1273" arabic-form="isolated" 
d="M782 -799q-214 0 -385 77t-269.5 220.5t-98.5 329.5q0 234 140 418t398 295h-446l-6 8l63 239q62 14 112 46.5t136 115.5l131 129q114 110 188 154.5t144 44.5q88 0 141 -60t53 -155q0 -99 -47 -209h-73q-6 74 -53.5 117t-121.5 43q-94 0 -221 -109l-151 -129h813l6 -8
l-74 -264q-482 -26 -744.5 -181.5t-262.5 -406.5q0 -131 91.5 -228.5t249 -147.5t357.5 -50q202 0 401 43l21 -61zM893 211l147 151h21l151 -151l-147 -150h-21z" />
    <glyph glyph-name="uniFC07" unicode="&#xfc07;" horiz-adv-x="1273" arabic-form="isolated" 
d="M100 1192l148 151h20l152 -151l-148 -150h-20zM782 -799q-214 0 -385 77t-269.5 220.5t-98.5 329.5q0 234 140 418t398 295h-446l-6 8l63 239q62 14 112 46.5t136 115.5l131 129q114 110 188 154.5t144 44.5q88 0 141 -60t53 -155q0 -99 -47 -209h-73q-6 74 -53.5 117
t-121.5 43q-94 0 -221 -109l-151 -129h813l6 -8l-74 -264q-482 -26 -744.5 -181.5t-262.5 -406.5q0 -131 91.5 -228.5t249 -147.5t357.5 -50q202 0 401 43l21 -61zM893 211l147 151h21l151 -151l-147 -150h-21z" />
    <glyph glyph-name="uniFC08" unicode="&#xfc08;" horiz-adv-x="1120" arabic-form="isolated" 
d="M340 -451l-84 -239h-78l-88 690l57 190q28 96 98.5 150.5t174.5 58.5q-33 68 -33 138q0 114 85 211.5t234 155t328 57.5l47 -78l-82 -205q-233 0 -378.5 -35t-145.5 -92q0 -47 89.5 -110.5t307.5 -170.5l39 -18l-123 -246l-36 19q-212 102 -346 102q-88 0 -168 -31z
M629 -305l147 151h21l151 -151l-147 -150h-21z" />
    <glyph glyph-name="uniFC0B" unicode="&#xfc0b;" horiz-adv-x="1273" arabic-form="isolated" 
d="M547 1579l147 152h21l125 -125l121 125h20l152 -152l-148 -149h-20l-125 122l-121 -122h-21zM782 -799q-214 0 -385 77t-269.5 220.5t-98.5 329.5q0 234 140 418t398 295h-446l-6 8l63 239q62 14 112 46.5t136 115.5l131 129q114 110 188 154.5t144 44.5q88 0 141 -60
t53 -155q0 -99 -47 -209h-73q-6 74 -53.5 117t-121.5 43q-94 0 -221 -109l-151 -129h813l6 -8l-74 -264q-482 -26 -744.5 -181.5t-262.5 -406.5q0 -131 91.5 -228.5t249 -147.5t357.5 -50q202 0 401 43l21 -61zM440 -41l148 152h20l152 -152l-148 -149h-20z" />
    <glyph glyph-name="uniFC0C" unicode="&#xfc0c;" horiz-adv-x="1273" arabic-form="isolated" 
d="M547 1579l147 152h21l125 -125l121 125h20l152 -152l-148 -149h-20l-125 122l-121 -122h-21zM782 -799q-214 0 -385 77t-269.5 220.5t-98.5 329.5q0 234 140 418t398 295h-446l-6 8l63 239q62 14 112 46.5t136 115.5l131 129q114 110 188 154.5t144 44.5q88 0 141 -60
t53 -155q0 -99 -47 -209h-73q-6 74 -53.5 117t-121.5 43q-94 0 -221 -109l-151 -129h813l6 -8l-74 -264q-482 -26 -744.5 -181.5t-262.5 -406.5q0 -131 91.5 -228.5t249 -147.5t357.5 -50q202 0 401 43l21 -61z" />
    <glyph glyph-name="uniFC0D" unicode="&#xfc0d;" horiz-adv-x="1273" arabic-form="isolated" 
d="M547 1579l147 152h21l125 -125l121 125h20l152 -152l-148 -149h-20l-125 122l-121 -122h-21zM100 1192l148 151h20l152 -151l-148 -150h-20zM782 -799q-214 0 -385 77t-269.5 220.5t-98.5 329.5q0 234 140 418t398 295h-446l-6 8l63 239q62 14 112 46.5t136 115.5
l131 129q114 110 188 154.5t144 44.5q88 0 141 -60t53 -155q0 -99 -47 -209h-73q-6 74 -53.5 117t-121.5 43q-94 0 -221 -109l-151 -129h813l6 -8l-74 -264q-482 -26 -744.5 -181.5t-262.5 -406.5q0 -131 91.5 -228.5t249 -147.5t357.5 -50q202 0 401 43l21 -61z" />
    <glyph glyph-name="uniFC0E" unicode="&#xfc0e;" horiz-adv-x="1120" arabic-form="isolated" 
d="M555 1251l147 152h21l125 -125l121 125h20l152 -152l-148 -149h-20l-125 123l-121 -123h-20zM340 -451l-84 -239h-78l-88 690l57 190q28 96 98.5 150.5t174.5 58.5q-33 68 -33 138q0 114 85 211.5t234 155t328 57.5l47 -78l-82 -205q-233 0 -378.5 -35t-145.5 -92
q0 -47 89.5 -110.5t307.5 -170.5l39 -18l-123 -246l-36 19q-212 102 -346 102q-88 0 -168 -31z" />
    <glyph glyph-name="uniFC11" unicode="&#xfc11;" horiz-adv-x="1273" arabic-form="isolated" 
d="M694 1847l133 138h19l137 -138l-133 -135h-21zM553 1579l147 152h21l125 -125l121 125h20l152 -152l-148 -149h-20l-125 122l-121 -122h-20zM782 -799q-214 0 -385 77t-269.5 220.5t-98.5 329.5q0 234 140 418t398 295h-446l-6 8l63 239q62 14 112 46.5t136 115.5
l131 129q114 110 188 154.5t144 44.5q88 0 141 -60t53 -155q0 -99 -47 -209h-73q-6 74 -53.5 117t-121.5 43q-94 0 -221 -109l-151 -129h813l6 -8l-74 -264q-482 -26 -744.5 -181.5t-262.5 -406.5q0 -131 91.5 -228.5t249 -147.5t357.5 -50q202 0 401 43l21 -61zM440 -41
l148 152h20l152 -152l-148 -149h-20z" />
    <glyph glyph-name="uniFC12" unicode="&#xfc12;" horiz-adv-x="1120" arabic-form="isolated" 
d="M702 1520l134 137h18l137 -137l-133 -136h-20zM561 1251l148 152h20l125 -125l121 125h20l152 -152l-148 -149h-20l-125 123l-121 -123h-20zM340 -451l-84 -239h-78l-88 690l57 190q28 96 98.5 150.5t174.5 58.5q-33 68 -33 138q0 114 85 211.5t234 155t328 57.5l47 -78
l-82 -205q-233 0 -378.5 -35t-145.5 -92q0 -47 89.5 -110.5t307.5 -170.5l39 -18l-123 -246l-36 19q-212 102 -346 102q-88 0 -168 -31z" />
    <glyph glyph-name="uniFC1F" unicode="&#xfc1f;" horiz-adv-x="2187" arabic-form="isolated" 
d="M815 811q111 0 177 -56.5t143 -203.5l36 -74q40 -77 92.5 -111t135.5 -34q152 0 182 180l23 113h73v-156q80 -50 170.5 -82t159.5 -37q-43 96 -162 223l82 207h70q90 -180 90 -313q0 -200 -141 -373q-92 3 -196 40.5t-191 103.5l-5 -15q-59 -166 -225 -166
q-98 0 -168.5 59t-152.5 208l-33 57q-55 98 -104 133t-138 35q-102 0 -179 -27t-77 -65q0 -35 78 -84t317 -166l39 -19l-123 -245l-36 16q-210 104 -346 104q-86 0 -168 -32l102 -482l-84 -239h-78l-88 627l57 190q28 94 96.5 147.5t168.5 59.5q-25 48 -25 96q0 89 61.5 178
t162 146t204.5 57z" />
    <glyph glyph-name="uniFC21" unicode="&#xfc21;" horiz-adv-x="2414" arabic-form="isolated" 
d="M90 -63l57 190q28 94 96.5 147.5t168.5 59.5q-25 48 -25 96q0 89 61.5 178t162 146t204.5 57q113 0 181.5 -63t158.5 -242l55 -107q30 -65 74 -100q212 300 373 429.5t321 129.5q150 0 253.5 -105t103.5 -249q0 -146 -99 -367q-124 -82 -317.5 -127t-419.5 -45
q-127 0 -207 25t-133.5 79t-103.5 154l-58 113q-44 87 -76.5 129t-76 63t-111.5 21q-102 0 -179 -27t-77 -65q0 -35 78 -84t317 -166l39 -19l-123 -245l-36 16q-210 104 -346 104q-86 0 -168 -32l102 -482l-84 -239h-78zM1880 584q-137 0 -259 -75.5t-265 -248.5
q59 -20 157 -20q428 0 723 122q-39 94 -142.5 158t-213.5 64z" />
    <glyph glyph-name="uniFC25" unicode="&#xfc25;" horiz-adv-x="2414" arabic-form="isolated" 
d="M1550 1159l148 152h20l152 -152l-148 -149h-20zM90 -63l57 190q28 94 96.5 147.5t168.5 59.5q-25 48 -25 96q0 89 61.5 178t162 146t204.5 57q113 0 181.5 -63t158.5 -242l55 -107q30 -65 74 -100q212 300 373 429.5t321 129.5q150 0 253.5 -105t103.5 -249
q0 -146 -99 -367q-124 -82 -317.5 -127t-419.5 -45q-127 0 -207 25t-133.5 79t-103.5 154l-58 113q-44 87 -76.5 129t-76 63t-111.5 21q-102 0 -179 -27t-77 -65q0 -35 78 -84t317 -166l39 -19l-123 -245l-36 16q-210 104 -346 104q-86 0 -168 -32l102 -482l-84 -239h-78z
M1880 584q-137 0 -259 -75.5t-265 -248.5q59 -20 157 -20q428 0 723 122q-39 94 -142.5 158t-213.5 64z" />
    <glyph glyph-name="uniFC3F" unicode="&#xfc3f;" horiz-adv-x="1273" arabic-form="isolated" 
d="M782 -799q-214 0 -385 73t-269.5 209t-98.5 312q0 224 163.5 399.5t458.5 272.5h-530l-6 8l63 230q384 27 572 120l-41 469q-69 94 -43.5 191.5t143.5 169.5h70v-170l110 -139v-13l-110 -86v-231q0 -208 -33 -303q-30 -34 -84 -62h467l6 -8l-74 -254
q-478 -22 -742.5 -155t-264.5 -349q0 -121 91.5 -211.5t249 -137t357.5 -46.5q202 0 401 43l21 -61zM502 -33l147 152h21l151 -152l-147 -149h-21z" />
    <glyph glyph-name="uniFC40" unicode="&#xfc40;" horiz-adv-x="1273" arabic-form="isolated" 
d="M782 -799q-214 0 -385 73t-269.5 209t-98.5 312q0 224 163.5 399.5t458.5 272.5h-530l-6 8l63 230q384 27 572 120l-41 469q-69 94 -43.5 191.5t143.5 169.5h70v-170l110 -139v-13l-110 -86v-231q0 -208 -33 -303q-30 -34 -84 -62h467l6 -8l-74 -254
q-478 -22 -742.5 -155t-264.5 -349q0 -121 91.5 -211.5t249 -137t357.5 -46.5q202 0 401 43l21 -61z" />
    <glyph glyph-name="uniFC41" unicode="&#xfc41;" horiz-adv-x="1273" arabic-form="isolated" 
d="M782 -799q-214 0 -385 73t-269.5 209t-98.5 312q0 224 163.5 399.5t458.5 272.5h-530l-6 8l63 230q384 27 572 120l-41 469q-69 94 -43.5 191.5t143.5 169.5h70v-170l110 -139v-13l-110 -86v-231q0 -208 -33 -303q-30 -34 -84 -62h467l6 -8l-74 -254
q-478 -22 -742.5 -155t-264.5 -349q0 -121 91.5 -211.5t249 -137t357.5 -46.5q202 0 401 43l21 -61zM109 1217l147 151h20l152 -151l-147 -150h-21z" />
    <glyph glyph-name="uniFC42" unicode="&#xfc42;" horiz-adv-x="878" arabic-form="isolated" 
d="M90 10l57 191q29 100 103.5 153.5t183.5 53.5q-36 82 -45 239l-24 533q-64 93 -37 185.5t143 162.5h70v-170l110 -139v-13l-110 -88v-452q0 -134 66 -211.5t265 -173.5l39 -19l-123 -246l-36 19q-206 102 -346 102q-82 0 -170 -33l104 -555l-84 -239h-78z" />
    <glyph glyph-name="uniFC4B" unicode="&#xfc4b;" horiz-adv-x="1273" arabic-form="isolated" 
d="M678 1579l147 152h21l151 -152l-147 -149h-21zM782 -799q-214 0 -385 77t-269.5 220.5t-98.5 329.5q0 234 140 418t398 295h-446l-6 8l63 239q62 14 112 46.5t136 115.5l131 129q114 110 188 154.5t144 44.5q88 0 141 -60t53 -155q0 -99 -47 -209h-73q-6 74 -53.5 117
t-121.5 43q-94 0 -221 -109l-151 -129h813l6 -8l-74 -264q-482 -26 -744.5 -181.5t-262.5 -406.5q0 -131 91.5 -228.5t249 -147.5t357.5 -50q202 0 401 43l21 -61zM440 -41l148 152h20l152 -152l-148 -149h-20z" />
    <glyph glyph-name="uniFC4C" unicode="&#xfc4c;" horiz-adv-x="1273" arabic-form="isolated" 
d="M678 1579l147 152h21l151 -152l-147 -149h-21zM782 -799q-214 0 -385 77t-269.5 220.5t-98.5 329.5q0 234 140 418t398 295h-446l-6 8l63 239q62 14 112 46.5t136 115.5l131 129q114 110 188 154.5t144 44.5q88 0 141 -60t53 -155q0 -99 -47 -209h-73q-6 74 -53.5 117
t-121.5 43q-94 0 -221 -109l-151 -129h813l6 -8l-74 -264q-482 -26 -744.5 -181.5t-262.5 -406.5q0 -131 91.5 -228.5t249 -147.5t357.5 -50q202 0 401 43l21 -61z" />
    <glyph glyph-name="uniFC4D" unicode="&#xfc4d;" horiz-adv-x="1273" arabic-form="isolated" 
d="M678 1579l147 152h21l151 -152l-147 -149h-21zM100 1192l148 151h20l152 -151l-148 -150h-20zM782 -799q-214 0 -385 77t-269.5 220.5t-98.5 329.5q0 234 140 418t398 295h-446l-6 8l63 239q62 14 112 46.5t136 115.5l131 129q114 110 188 154.5t144 44.5q88 0 141 -60
t53 -155q0 -99 -47 -209h-73q-6 74 -53.5 117t-121.5 43q-94 0 -221 -109l-151 -129h813l6 -8l-74 -264q-482 -26 -744.5 -181.5t-262.5 -406.5q0 -131 91.5 -228.5t249 -147.5t357.5 -50q202 0 401 43l21 -61z" />
    <glyph glyph-name="uniFC4E" unicode="&#xfc4e;" horiz-adv-x="1120" arabic-form="isolated" 
d="M688 1251l148 152h20l152 -152l-148 -149h-20zM340 -451l-84 -239h-78l-88 690l57 190q28 96 98.5 150.5t174.5 58.5q-33 68 -33 138q0 114 85 211.5t234 155t328 57.5l47 -78l-82 -205q-233 0 -378.5 -35t-145.5 -92q0 -47 89.5 -110.5t307.5 -170.5l39 -18l-123 -246
l-36 19q-212 102 -346 102q-88 0 -168 -31z" />
    <glyph glyph-name="uniFC55" unicode="&#xfc55;" horiz-adv-x="1273" arabic-form="isolated" 
d="M782 -799q-214 0 -385 77t-269.5 220.5t-98.5 329.5q0 234 140 418t398 295h-446l-6 8l63 239q62 14 112 46.5t136 115.5l131 129q114 110 188 154.5t144 44.5q88 0 141 -60t53 -155q0 -99 -47 -209h-73q-6 74 -53.5 117t-121.5 43q-94 0 -221 -109l-151 -129h813l6 -8
l-74 -264q-482 -26 -744.5 -181.5t-262.5 -406.5q0 -131 91.5 -228.5t249 -147.5t357.5 -50q202 0 401 43l21 -61zM760 211l147 151h21l125 -124l121 124h20l152 -151l-148 -150h-20l-125 123l-121 -123h-21zM440 -41l148 152h20l152 -152l-148 -149h-20z" />
    <glyph glyph-name="uniFC56" unicode="&#xfc56;" horiz-adv-x="1273" arabic-form="isolated" 
d="M782 -799q-214 0 -385 77t-269.5 220.5t-98.5 329.5q0 234 140 418t398 295h-446l-6 8l63 239q62 14 112 46.5t136 115.5l131 129q114 110 188 154.5t144 44.5q88 0 141 -60t53 -155q0 -99 -47 -209h-73q-6 74 -53.5 117t-121.5 43q-94 0 -221 -109l-151 -129h813l6 -8
l-74 -264q-482 -26 -744.5 -181.5t-262.5 -406.5q0 -131 91.5 -228.5t249 -147.5t357.5 -50q202 0 401 43l21 -61zM760 211l147 151h21l125 -124l121 124h20l152 -151l-148 -150h-20l-125 123l-121 -123h-21z" />
    <glyph glyph-name="uniFC57" unicode="&#xfc57;" horiz-adv-x="1273" arabic-form="isolated" 
d="M100 1192l148 151h20l152 -151l-148 -150h-20zM782 -799q-214 0 -385 77t-269.5 220.5t-98.5 329.5q0 234 140 418t398 295h-446l-6 8l63 239q62 14 112 46.5t136 115.5l131 129q114 110 188 154.5t144 44.5q88 0 141 -60t53 -155q0 -99 -47 -209h-73q-6 74 -53.5 117
t-121.5 43q-94 0 -221 -109l-151 -129h813l6 -8l-74 -264q-482 -26 -744.5 -181.5t-262.5 -406.5q0 -131 91.5 -228.5t249 -147.5t357.5 -50q202 0 401 43l21 -61zM760 211l147 151h21l125 -124l121 124h20l152 -151l-148 -150h-20l-125 123l-121 -123h-21z" />
    <glyph glyph-name="uniFC58" unicode="&#xfc58;" horiz-adv-x="1120" arabic-form="isolated" 
d="M340 -451l-84 -239h-78l-88 690l57 190q28 96 98.5 150.5t174.5 58.5q-33 68 -33 138q0 114 85 211.5t234 155t328 57.5l47 -78l-82 -205q-233 0 -378.5 -35t-145.5 -92q0 -47 89.5 -110.5t307.5 -170.5l39 -18l-123 -246l-36 19q-212 102 -346 102q-88 0 -168 -31z
M496 -305l147 151h21l124 -125l121 125h21l151 -151l-147 -150h-21l-125 123l-120 -123h-21z" />
    <glyph glyph-name="uniFC66" unicode="&#xfc66;" horiz-adv-x="1519" arabic-form="final" 
d="M580 997l106 76q-65 54 -65 119q0 75 72 149t147 74q52 0 79 -26t27 -62q0 -56 -24 -94l-134 51q-40 -8 -71 -27t-31 -38q0 -36 81.5 -54t170.5 -6l66 10l6 -8l-27 -143l-403 -68v47zM90 -63l57 190q28 94 96.5 147.5t168.5 59.5q-25 48 -25 96q0 89 61.5 178t162 146
t204.5 57q110 0 194 -61t177 -211l57 -97q57 -94 118 -131t159 -37v-221l-54 -53q-129 0 -219.5 62t-183.5 217l-57 96q-61 98 -124 136t-171 38q-88 0 -161 -27.5t-73 -64.5q0 -35 78 -84t317 -166l39 -19l-123 -245l-36 16q-210 104 -346 104q-86 0 -168 -32l102 -482
l-84 -239h-78z" />
    <glyph glyph-name="uniFC6C" unicode="&#xfc6c;" horiz-adv-x="1519" arabic-form="final" 
d="M90 -63l57 190q28 94 96.5 147.5t168.5 59.5q-25 48 -25 96q0 89 61.5 178t162 146t204.5 57q110 0 194 -61t177 -211l57 -97q57 -94 118 -131t159 -37v-221l-54 -53q-129 0 -219.5 62t-183.5 217l-57 96q-61 98 -124 136t-171 38q-88 0 -161 -27.5t-73 -64.5
q0 -35 78 -84t317 -166l39 -19l-123 -245l-36 16q-210 104 -346 104q-86 0 -168 -32l102 -482l-84 -239h-78zM817 -309l148 151h20l152 -151l-148 -150h-20z" />
    <glyph glyph-name="uniFC72" unicode="&#xfc72;" horiz-adv-x="1519" arabic-form="final" 
d="M504 1112l147 152h21l125 -125l121 125h20l152 -152l-148 -149h-20l-125 122l-121 -122h-21zM90 -63l57 190q28 94 96.5 147.5t168.5 59.5q-25 48 -25 96q0 89 61.5 178t162 146t204.5 57q110 0 194 -61t177 -211l57 -97q57 -94 118 -131t159 -37v-221l-54 -53
q-129 0 -219.5 62t-183.5 217l-57 96q-61 98 -124 136t-171 38q-88 0 -161 -27.5t-73 -64.5q0 -35 78 -84t317 -166l39 -19l-123 -245l-36 16q-210 104 -346 104q-86 0 -168 -32l102 -482l-84 -239h-78z" />
    <glyph glyph-name="uniFC78" unicode="&#xfc78;" horiz-adv-x="1519" arabic-form="final" 
d="M651 1380l133 138h19l137 -138l-133 -135h-21zM510 1112l147 152h21l125 -125l121 125h20l152 -152l-148 -149h-20l-125 122l-121 -122h-20zM90 -63l57 190q28 94 96.5 147.5t168.5 59.5q-25 48 -25 96q0 89 61.5 178t162 146t204.5 57q110 0 194 -61t177 -211l57 -97
q57 -94 118 -131t159 -37v-221l-54 -53q-129 0 -219.5 62t-183.5 217l-57 96q-61 98 -124 136t-171 38q-88 0 -161 -27.5t-73 -64.5q0 -35 78 -84t317 -166l39 -19l-123 -245l-36 16q-210 104 -346 104q-86 0 -168 -32l102 -482l-84 -239h-78z" />
    </font>
</defs>
</svg>
