<svg width="56" height="19" viewBox="0 0 56 19" fill="none" xmlns="http://www.w3.org/2000/svg">
<path d="M3.32487 2.48552C7.03324 1.09141 14.3886 -3.11559 22.6292 4.12136C23.9598 3.66875 27.7247 3.01809 32.142 4.03672C36.1462 -1.0057 47.5151 -1.50773 52.8076 3.85365L54.7456 3.83691C55.3022 3.83198 55.7574 4.27932 55.7623 4.83594L55.782 7.06233C55.7869 7.6188 55.3404 8.0739 54.784 8.07907L52.845 8.09679C52.7586 11.7274 50.5549 18.985 42.4305 18.9748C32.275 18.9621 31.1516 9.72742 30.9334 8.29069C30.7152 6.85442 25.2051 5.56789 23.9481 8.3527C23.6338 11.5401 22.0605 16.6202 16.1852 18.4158C9.59517 20.4297 1.35528 17.4397 2.65656 6.26607H1.02269C0.469687 6.26589 0.019706 5.82006 0.0148043 5.26704L4.04472e-05 3.50719C-0.0049175 2.94781 0.446559 2.49149 1.00595 2.49045L3.32487 2.48552ZM20.2797 5.2198C16.9629 0.24461 7.49404 1.22674 5.47942 4.74834C3.89517 7.51786 4.42343 11.0046 5.0926 12.3429C5.67463 13.9432 7.96485 17.526 12.512 17.526C20.2798 17.5257 23.5962 10.1949 20.2797 5.2198ZM49.6747 4.74834C47.66 1.22674 38.1911 0.24461 34.8743 5.2198C31.5577 10.1949 34.8741 17.5259 42.6421 17.526C47.1893 17.526 49.4795 13.9432 50.0615 12.3429C50.7306 11.0046 51.2588 7.51784 49.6747 4.74834Z" fill="#111111"/>
</svg>
