<svg width="1920" height="486" viewBox="0 0 1920 486" fill="none" xmlns="http://www.w3.org/2000/svg">
<path d="M-10 369.001H-12.5L-12.5 374.001H-9.99999L-10 369.001ZM442.538 5.72928L442.104 8.19128L442.538 5.72928ZM706.137 186.357L705.378 188.739L706.137 186.357ZM907.265 211.946L906.499 214.326L907.265 211.946ZM1205.91 446.762L1206.38 444.308L1205.91 446.762ZM1647.78 243.556L1647.26 246.001L1647.78 243.556ZM1917.05 448.331C1917.92 449.406 1919.49 449.575 1920.57 448.709C1921.64 447.843 1921.81 446.269 1920.95 445.194L1917.05 448.331ZM-9.99999 374.001C60.7964 374.001 110.692 348.367 149.128 310.555C187.457 272.85 214.35 223.063 239.328 174.898C264.396 126.558 287.477 79.9946 318.228 47.8839C333.554 31.88 350.715 19.552 370.887 12.4199C391.049 5.29118 414.37 3.29979 442.104 8.19128L442.972 3.26728C414.509 -1.75302 390.302 0.252087 369.22 7.70591C348.148 15.1565 330.35 27.9971 314.617 44.4257C283.249 77.1802 259.812 124.537 234.889 172.596C209.876 220.83 183.305 269.92 145.622 306.991C108.047 343.956 59.3837 369.001 -10 369.001L-9.99999 374.001ZM442.104 8.19128C502.899 18.9141 538.505 53.9959 574.062 91.6545C609.559 129.249 645.05 169.494 705.378 188.739L706.897 183.975C648.004 165.188 613.362 125.995 577.697 88.2218C542.093 50.513 505.509 14.2974 442.972 3.26728L442.104 8.19128ZM705.378 188.739C743.452 200.885 775.249 201.216 806.697 201.578C838.144 201.941 869.245 202.335 906.499 214.326L908.031 209.566C869.987 197.321 838.205 196.941 806.754 196.579C775.303 196.216 744.185 195.871 706.897 183.975L705.378 188.739ZM906.499 214.326C976.515 236.862 1014.17 287.816 1052.91 337.388C1091.57 386.846 1131.3 434.874 1205.44 449.217L1206.38 444.308C1134.24 430.351 1095.51 383.78 1056.85 334.309C1018.27 284.953 979.742 232.648 908.031 209.566L906.499 214.326ZM1205.44 449.217C1300.29 467.567 1365.19 405.704 1428.85 345.609C1492.91 285.128 1555.72 226.424 1647.26 246.001L1648.3 241.111C1553.81 220.903 1489.08 281.871 1425.42 341.973C1361.34 402.462 1298.33 462.094 1206.38 444.308L1205.44 449.217ZM1647.26 246.001C1711.52 259.743 1778.9 310.128 1830.42 357.42C1856.13 381.02 1877.8 403.758 1893.04 420.596C1900.66 429.014 1906.67 435.955 1910.77 440.788C1912.82 443.205 1914.39 445.094 1915.45 446.377C1915.98 447.019 1916.39 447.509 1916.65 447.838C1916.79 448.002 1916.89 448.126 1916.95 448.209C1916.99 448.25 1917.01 448.281 1917.03 448.301C1917.04 448.312 1917.04 448.319 1917.05 448.324C1917.05 448.326 1917.05 448.328 1917.05 448.329C1917.05 448.33 1917.05 448.331 1919 446.762C1920.95 445.194 1920.95 445.193 1920.94 445.191C1920.94 445.19 1920.94 445.188 1920.94 445.185C1920.93 445.179 1920.93 445.17 1920.92 445.159C1920.9 445.137 1920.87 445.104 1920.84 445.061C1920.77 444.975 1920.67 444.847 1920.53 444.678C1920.25 444.342 1919.85 443.844 1919.31 443.194C1918.24 441.894 1916.65 439.987 1914.58 437.553C1910.45 432.684 1904.4 425.703 1896.75 417.241C1881.43 400.32 1859.66 377.466 1833.8 353.737C1782.2 306.373 1713.97 255.155 1648.3 241.111L1647.26 246.001Z" fill="#E1DBDA" fill-opacity="0.2"/>
<path d="M-12.645 478.169L-15.1197 477.814L-15.8297 482.764L-13.355 483.119L-12.645 478.169ZM407.199 212.207L407.172 209.707L407.199 212.207ZM809.128 429.37L809.207 431.868L809.128 429.37ZM1455.5 45.0001L1455.3 47.492L1455.5 45.0001ZM1790.5 396L1790.71 398.491L1790.5 396ZM1921.5 92.9289C1921.42 91.5503 1920.24 90.4954 1918.86 90.5726C1917.48 90.6499 1916.43 91.83 1916.5 93.2086L1921.5 92.9289ZM-13.355 483.119C42.4687 491.127 84.749 478.279 119.739 454.414C154.61 430.631 182.15 395.959 208.664 360.567C261.957 289.428 311.072 215.714 407.225 214.707L407.172 209.707C308.072 210.745 257.466 287.084 204.662 357.57C178.127 392.99 151.025 427.023 116.921 450.284C82.9365 473.463 41.9096 485.996 -12.645 478.169L-13.355 483.119ZM407.225 214.707C495.427 213.783 550.525 268.644 606.435 323.992C662.13 379.126 718.64 434.746 809.207 431.868L809.048 426.871C720.913 429.672 665.85 375.774 609.953 320.439C554.27 265.317 497.755 208.758 407.172 209.707L407.225 214.707ZM809.207 431.868C875.685 429.756 933.06 403.089 985.737 364.826C1038.37 326.594 1086.49 276.651 1134.37 227.853C1182.34 178.978 1230.07 131.249 1282.15 97.0314C1334.16 62.8534 1390.37 42.2517 1455.3 47.492L1455.7 42.5083C1389.36 37.1538 1332.06 58.2551 1279.4 92.8527C1226.8 127.411 1178.71 175.53 1130.8 224.351C1082.82 273.248 1035.02 322.847 982.799 360.78C930.62 398.681 874.199 424.801 809.048 426.871L809.207 431.868ZM1455.3 47.492C1508.11 51.7546 1541.83 76.5145 1566.17 111.125C1590.63 145.9 1605.57 190.545 1620.66 234.565C1635.67 278.383 1650.85 321.649 1675.87 352.762C1688.43 368.373 1703.5 380.983 1722.32 389.099C1741.13 397.213 1763.55 400.772 1790.71 398.491L1790.29 393.509C1763.81 395.733 1742.24 392.244 1724.3 384.507C1706.36 376.771 1691.91 364.726 1679.77 349.629C1655.4 319.326 1640.47 276.963 1625.39 232.944C1610.37 189.127 1595.21 143.726 1570.26 108.248C1545.19 72.6061 1510.2 46.9073 1455.7 42.5083L1455.3 47.492ZM1790.71 398.491C1827.88 395.369 1854.63 374.326 1873.76 344.899C1892.85 315.536 1904.46 277.686 1911.5 240.438C1918.55 203.156 1921.05 166.287 1921.78 138.758C1922.15 124.989 1922.08 113.543 1921.92 105.535C1921.83 101.531 1921.73 98.3861 1921.65 96.2388C1921.6 95.1651 1921.57 94.3409 1921.54 93.7834C1921.53 93.5047 1921.52 93.2927 1921.51 93.1495C1921.5 93.078 1921.5 93.0236 1921.5 92.9867C1921.5 92.9683 1921.5 92.9542 1921.5 92.9446C1921.5 92.9397 1921.5 92.9358 1921.5 92.9334C1921.5 92.9306 1921.5 92.9289 1919 93.0687C1916.5 93.2086 1916.5 93.2091 1916.5 93.2107C1916.5 93.2127 1916.5 93.2154 1916.5 93.2194C1916.51 93.2274 1916.51 93.2398 1916.51 93.2566C1916.51 93.2902 1916.51 93.3412 1916.51 93.4095C1916.52 93.5459 1916.53 93.7512 1916.55 94.023C1916.57 94.5666 1916.61 95.3766 1916.65 96.4355C1916.73 98.5534 1916.84 101.667 1916.92 105.637C1917.08 113.579 1917.15 124.945 1916.78 138.625C1916.05 165.995 1913.57 202.578 1906.59 239.509C1899.6 276.474 1888.14 313.596 1869.57 342.174C1851.03 370.687 1825.52 390.55 1790.29 393.509L1790.71 398.491Z" fill="#E1DBDA" fill-opacity="0.2"/>
<g filter="url(#filter0_d_919_637)">
<circle cx="1622" cy="236" r="8" fill="white"/>
<circle cx="1622" cy="236" r="13" stroke="#E1DBDA" stroke-width="10"/>
</g>
<g filter="url(#filter1_d_919_637)">
<circle cx="1042" cy="318" r="8" fill="white"/>
<circle cx="1042" cy="318" r="13" stroke="#E1DBDA" stroke-width="10"/>
</g>
<defs>
<filter id="filter0_d_919_637" x="1540" y="158" width="164" height="164" filterUnits="userSpaceOnUse" color-interpolation-filters="sRGB">
<feFlood flood-opacity="0" result="BackgroundImageFix"/>
<feColorMatrix in="SourceAlpha" type="matrix" values="0 0 0 0 0 0 0 0 0 0 0 0 0 0 0 0 0 0 127 0" result="hardAlpha"/>
<feMorphology radius="24" operator="dilate" in="SourceAlpha" result="effect1_dropShadow_919_637"/>
<feOffset dy="4"/>
<feGaussianBlur stdDeviation="20"/>
<feComposite in2="hardAlpha" operator="out"/>
<feColorMatrix type="matrix" values="0 0 0 0 0.882353 0 0 0 0 0.858824 0 0 0 0 0.854902 0 0 0 0.15 0"/>
<feBlend mode="normal" in2="BackgroundImageFix" result="effect1_dropShadow_919_637"/>
<feBlend mode="normal" in="SourceGraphic" in2="effect1_dropShadow_919_637" result="shape"/>
</filter>
<filter id="filter1_d_919_637" x="960" y="240" width="164" height="164" filterUnits="userSpaceOnUse" color-interpolation-filters="sRGB">
<feFlood flood-opacity="0" result="BackgroundImageFix"/>
<feColorMatrix in="SourceAlpha" type="matrix" values="0 0 0 0 0 0 0 0 0 0 0 0 0 0 0 0 0 0 127 0" result="hardAlpha"/>
<feMorphology radius="24" operator="dilate" in="SourceAlpha" result="effect1_dropShadow_919_637"/>
<feOffset dy="4"/>
<feGaussianBlur stdDeviation="20"/>
<feComposite in2="hardAlpha" operator="out"/>
<feColorMatrix type="matrix" values="0 0 0 0 0.882353 0 0 0 0 0.858824 0 0 0 0 0.854902 0 0 0 0.15 0"/>
<feBlend mode="normal" in2="BackgroundImageFix" result="effect1_dropShadow_919_637"/>
<feBlend mode="normal" in="SourceGraphic" in2="effect1_dropShadow_919_637" result="shape"/>
</filter>
</defs>
</svg>
