<svg width="1920" height="486" viewBox="0 0 1920 486" fill="none" xmlns="http://www.w3.org/2000/svg">
<path d="M-5.00001 369.001H-7.50001L-7.49999 374.001H-4.99999L-5.00001 369.001ZM447.538 5.72928L447.104 8.19128L447.538 5.72928ZM711.137 186.357L710.378 188.739L711.137 186.357ZM912.265 211.946L911.499 214.326L912.265 211.946ZM1210.91 446.762L1211.38 444.308L1210.91 446.762ZM1652.78 243.556L1652.26 246.001L1652.78 243.556ZM1922.05 448.331C1922.92 449.406 1924.49 449.575 1925.57 448.709C1926.64 447.843 1926.81 446.269 1925.95 445.194L1922.05 448.331ZM-4.99999 374.001C65.7964 374.001 115.692 348.367 154.128 310.555C192.457 272.85 219.35 223.063 244.328 174.898C269.396 126.558 292.477 79.9946 323.228 47.8839C338.554 31.88 355.715 19.552 375.887 12.4199C396.049 5.29118 419.37 3.29979 447.104 8.19128L447.972 3.26728C419.509 -1.75302 395.302 0.252087 374.22 7.70591C353.148 15.1565 335.35 27.9971 319.617 44.4257C288.249 77.1802 264.812 124.537 239.889 172.596C214.876 220.83 188.305 269.92 150.622 306.991C113.047 343.956 64.3837 369.001 -5.00001 369.001L-4.99999 374.001ZM447.104 8.19128C507.899 18.9141 543.505 53.9959 579.062 91.6545C614.559 129.249 650.05 169.494 710.378 188.739L711.897 183.975C653.004 165.188 618.362 125.995 582.697 88.2218C547.093 50.513 510.509 14.2974 447.972 3.26728L447.104 8.19128ZM710.378 188.739C748.452 200.885 780.249 201.216 811.697 201.578C843.144 201.941 874.245 202.335 911.499 214.326L913.031 209.566C874.987 197.321 843.205 196.941 811.754 196.579C780.303 196.216 749.185 195.871 711.897 183.975L710.378 188.739ZM911.499 214.326C981.515 236.862 1019.17 287.816 1057.91 337.388C1096.57 386.846 1136.3 434.874 1210.44 449.217L1211.38 444.308C1139.24 430.351 1100.51 383.78 1061.85 334.309C1023.27 284.953 984.742 232.648 913.031 209.566L911.499 214.326ZM1210.44 449.217C1305.29 467.567 1370.19 405.704 1433.85 345.609C1497.91 285.128 1560.72 226.424 1652.26 246.001L1653.3 241.111C1558.81 220.903 1494.08 281.871 1430.42 341.973C1366.34 402.462 1303.33 462.094 1211.38 444.308L1210.44 449.217ZM1652.26 246.001C1716.52 259.743 1783.9 310.128 1835.42 357.42C1861.13 381.02 1882.8 403.758 1898.04 420.596C1905.66 429.014 1911.67 435.955 1915.77 440.788C1917.82 443.205 1919.39 445.094 1920.45 446.377C1920.98 447.019 1921.39 447.509 1921.65 447.838C1921.79 448.002 1921.89 448.126 1921.95 448.209C1921.99 448.25 1922.01 448.281 1922.03 448.301C1922.04 448.312 1922.04 448.319 1922.05 448.324C1922.05 448.326 1922.05 448.328 1922.05 448.329C1922.05 448.33 1922.05 448.331 1924 446.762C1925.95 445.194 1925.95 445.193 1925.94 445.191C1925.94 445.19 1925.94 445.188 1925.94 445.185C1925.93 445.179 1925.93 445.17 1925.92 445.159C1925.9 445.137 1925.87 445.104 1925.84 445.061C1925.77 444.975 1925.67 444.847 1925.53 444.678C1925.25 444.342 1924.85 443.844 1924.31 443.194C1923.24 441.894 1921.65 439.987 1919.58 437.553C1915.45 432.684 1909.4 425.703 1901.75 417.241C1886.43 400.32 1864.66 377.466 1838.8 353.737C1787.2 306.373 1718.97 255.155 1653.3 241.111L1652.26 246.001Z" fill="#344549" fill-opacity="0.1"/>
<path d="M-7.64499 478.169L-10.1197 477.814L-10.8297 482.764L-8.35501 483.119L-7.64499 478.169ZM412.199 212.207L412.172 209.707L412.199 212.207ZM814.128 429.37L814.207 431.868L814.128 429.37ZM1460.5 45.0001L1460.3 47.492L1460.5 45.0001ZM1795.5 396L1795.71 398.491L1795.5 396ZM1926.5 92.9289C1926.42 91.5503 1925.24 90.4954 1923.86 90.5726C1922.48 90.6499 1921.43 91.83 1921.5 93.2086L1926.5 92.9289ZM-8.35501 483.119C47.4687 491.127 89.749 478.279 124.739 454.414C159.61 430.631 187.15 395.959 213.664 360.567C266.957 289.428 316.072 215.714 412.225 214.707L412.172 209.707C313.072 210.745 262.466 287.084 209.662 357.57C183.127 392.99 156.025 427.023 121.921 450.284C87.9365 473.463 46.9096 485.996 -7.64499 478.169L-8.35501 483.119ZM412.225 214.707C500.427 213.783 555.525 268.644 611.435 323.992C667.13 379.126 723.64 434.746 814.207 431.868L814.048 426.871C725.913 429.672 670.85 375.774 614.953 320.439C559.27 265.317 502.755 208.758 412.172 209.707L412.225 214.707ZM814.207 431.868C880.685 429.756 938.06 403.089 990.737 364.826C1043.37 326.594 1091.49 276.651 1139.37 227.853C1187.34 178.978 1235.07 131.249 1287.15 97.0314C1339.16 62.8534 1395.37 42.2517 1460.3 47.492L1460.7 42.5083C1394.36 37.1538 1337.06 58.2551 1284.4 92.8527C1231.8 127.411 1183.71 175.53 1135.8 224.351C1087.82 273.248 1040.02 322.847 987.799 360.78C935.62 398.681 879.199 424.801 814.048 426.871L814.207 431.868ZM1460.3 47.492C1513.11 51.7546 1546.83 76.5145 1571.17 111.125C1595.63 145.9 1610.57 190.545 1625.66 234.565C1640.67 278.383 1655.85 321.649 1680.87 352.762C1693.43 368.373 1708.5 380.983 1727.32 389.099C1746.13 397.213 1768.55 400.772 1795.71 398.491L1795.29 393.509C1768.81 395.733 1747.24 392.244 1729.3 384.507C1711.36 376.771 1696.91 364.726 1684.77 349.629C1660.4 319.326 1645.47 276.963 1630.39 232.944C1615.37 189.127 1600.21 143.726 1575.26 108.248C1550.19 72.6061 1515.2 46.9073 1460.7 42.5083L1460.3 47.492ZM1795.71 398.491C1832.88 395.369 1859.63 374.326 1878.76 344.899C1897.85 315.536 1909.46 277.686 1916.5 240.438C1923.55 203.156 1926.05 166.287 1926.78 138.758C1927.15 124.989 1927.08 113.543 1926.92 105.535C1926.83 101.531 1926.73 98.3861 1926.65 96.2388C1926.6 95.1651 1926.57 94.3409 1926.54 93.7834C1926.53 93.5047 1926.52 93.2927 1926.51 93.1495C1926.5 93.078 1926.5 93.0236 1926.5 92.9867C1926.5 92.9683 1926.5 92.9542 1926.5 92.9446C1926.5 92.9397 1926.5 92.9358 1926.5 92.9334C1926.5 92.9306 1926.5 92.9289 1924 93.0687C1921.5 93.2086 1921.5 93.2091 1921.5 93.2107C1921.5 93.2127 1921.5 93.2154 1921.5 93.2194C1921.51 93.2274 1921.51 93.2398 1921.51 93.2566C1921.51 93.2902 1921.51 93.3412 1921.51 93.4095C1921.52 93.5459 1921.53 93.7512 1921.55 94.023C1921.57 94.5666 1921.61 95.3766 1921.65 96.4355C1921.73 98.5534 1921.84 101.667 1921.92 105.637C1922.08 113.579 1922.15 124.945 1921.78 138.625C1921.05 165.995 1918.57 202.578 1911.59 239.509C1904.6 276.474 1893.14 313.596 1874.57 342.174C1856.03 370.687 1830.52 390.55 1795.29 393.509L1795.71 398.491Z" fill="#344549" fill-opacity="0.1"/>
</svg>
