<svg id="Layer_1" data-name="Layer 1" xmlns="http://www.w3.org/2000/svg" viewBox="0 0 228.12 64.83"><defs><style>.cls-1{fill:#b2b2b2;}.cls-2{fill:#cacaca;}</style></defs><polygon class="cls-1" points="97.06 17.27 98.38 16.89 98.38 16.33 94.82 16.33 94.74 17.07 91.98 23.83 88.67 16.33 85.21 16.33 85.21 16.89 86.55 17.27 86.5 25.87 85.16 26.23 85.16 26.8 89.21 26.8 89.21 26.23 87.43 25.67 87.45 17.76 90.86 25.36 91.2 26.33 91.82 26.33 92.15 25.34 95.39 17.57 95.34 25.89 93.96 26.21 93.96 26.8 98.43 26.8 98.43 26.23 97.11 25.89 97.06 17.27"/><polygon class="cls-1" points="101.93 19.11 99.47 19.6 99.47 20.23 100.4 20.52 100.4 25.89 99.36 26.21 99.36 26.8 103.08 26.8 103.08 26.21 101.93 25.9 101.93 19.11"/><path class="cls-1" d="M102.15,16.05a1.06,1.06,0,1,0-1.06,1.06A1.07,1.07,0,0,0,102.15,16.05Z"/><path class="cls-1" d="M111.2,21.76c0-2-.7-2.65-2.2-2.65a3.8,3.8,0,0,0-2.58,1.42h0l-.34-1.42H106l-2.12.77v.48l1,.25V25.9l-1,.31v.6h3.55v-.6l-1-.29V21.05a2.75,2.75,0,0,1,1.78-.79c1,0,1.38.61,1.43,1.71v4l-.88.29v.6h3.46v-.58l-1-.31Z"/><polygon class="cls-1" points="115.62 19.11 113.16 19.6 113.16 20.23 114.09 20.52 114.09 25.89 113.04 26.21 113.04 26.8 116.76 26.8 116.76 26.21 115.62 25.9 115.62 19.11"/><path class="cls-1" d="M115.83,16.05a1.06,1.06,0,1,0-1.06,1.06A1.07,1.07,0,0,0,115.83,16.05Z"/><path class="cls-1" d="M121.41,22.51l-.71-.31c-1-.41-1.24-.79-1.24-1.4a1.06,1.06,0,0,1,1.15-1.05,1.67,1.67,0,0,1,1.08.38l.65,1.41h.51l-.07-1.95a4.47,4.47,0,0,0-2-.5,2.58,2.58,0,0,0-2.8,2.26c0,1,.5,1.58,1.63,2.08l.68.32c1.13.51,1.47.95,1.47,1.54a1.18,1.18,0,0,1-1.32,1.15,1.86,1.86,0,0,1-1.29-.46l-.81-1.77h-.58l.27,2.28a4.53,4.53,0,0,0,2.18.61c1.62,0,3-1.05,3-2.4C123.27,23.81,122.82,23.12,121.41,22.51Z"/><path class="cls-1" d="M127.79,25.9c-.6,0-1.08-.08-1.08-1.31V20.21h2v-.89h-2.07v-2.1h-.57l-.88,1.94-1.14.31v.68h1.11l0,5.06c0,1,.36,1.79,1.65,1.79a4.07,4.07,0,0,0,2.2-.74l-.12-.44A9.86,9.86,0,0,1,127.79,25.9Z"/><path class="cls-1" d="M134.27,19.09c-.59,0-1,.38-1.55,1.16l-.59.77h0L132,19.11h-.08l-2.28.77v.51l1,.22v5.27l-1,.33v.6h3.93v-.6l-1.4-.26V21.64a4.88,4.88,0,0,1,1.06-1l1.31.48a1.83,1.83,0,0,0,.57-1.15A.79.79,0,0,0,134.27,19.09Z"/><path class="cls-1" d="M140.55,19.88l1.08.37-2,5.27h0l-1.88-5.36,1.13-.28v-.56h-3.61v.56l.72.28,2.86,7.42-.87,2h0a1,1,0,0,0-.85-.64.82.82,0,0,0-.85.87,1,1,0,0,0,1.06,1c.87,0,1.26-.62,1.78-2l3.44-8.66.72-.3v-.56h-2.69Z"/><path class="cls-1" d="M152.17,19.09a3.9,3.9,0,0,0-3.74,4.11,3.6,3.6,0,0,0,3.74,3.85,3.89,3.89,0,0,0,3.75-4.14A3.52,3.52,0,0,0,152.17,19.09Zm.22,7.22c-1.56,0-2.26-1.81-2.31-3.57s.67-2.89,1.89-2.91,2.25,1.27,2.28,3.52C154.3,25,153.59,26.3,152.39,26.31Z"/><path class="cls-1" d="M161.46,15c-1.79,0-3.45,1.86-3.45,4.07v.05l-1.11.33v.68H158V25.9l-1,.31v.6H161v-.6l-1.42-.31V20.18h2.1v-.86h-2.1V18.09c0-1.74.73-2.35,1.58-2.35a1.41,1.41,0,0,1,.7.18l.39,1.37a1.3,1.3,0,0,0,.43.08.83.83,0,0,0,.88-.87C163.54,15.77,162.75,15,161.46,15Z"/><polygon class="cls-1" points="172.51 17.27 173.85 16.89 173.85 16.33 169.44 16.33 169.44 16.89 170.78 17.27 170.78 25.89 169.44 26.21 169.44 26.8 173.86 26.8 173.86 26.23 172.51 25.89 172.51 17.27"/><path class="cls-1" d="M182.2,21.76c0-2-.7-2.65-2.2-2.65a3.8,3.8,0,0,0-2.58,1.42h0L177,19.11H177l-2.12.77v.48l1,.25V25.9l-1,.31v.6h3.55v-.6l-1-.29V21.05a2.74,2.74,0,0,1,1.77-.79c1,0,1.39.61,1.44,1.71v4l-.88.29v.6h3.46v-.58l-1-.31Z"/><path class="cls-1" d="M191,15l-3,.42V16l1.47.29v3a4.67,4.67,0,0,0-1.31-.17,4,4,0,0,0-4,4.34c0,1.84,1,3.6,3.16,3.6a3,3,0,0,0,2.29-1.13L190,27l2.24-.31v-.56L191,25.82Zm-1.55,10.48a2.15,2.15,0,0,1-1.22.37c-1.88,0-2.53-1.62-2.53-3.25,0-1.81.94-2.78,2.08-2.78a2,2,0,0,1,1.67,1Z"/><path class="cls-1" d="M200.21,19.19l-2.81.28v.61l1.24.26v4.9a2.36,2.36,0,0,1-1.56.66c-1.05,0-1.55-.57-1.58-1.84v-4.9l-2.65.28v.61l1.09.29v4c0,1.82.82,2.76,2.16,2.76a3.56,3.56,0,0,0,2.61-1.32l.5,1.29,2.24-.35v-.58l-1.24-.29Z"/><path class="cls-1" d="M206,22.51l-.72-.31c-.95-.41-1.24-.79-1.24-1.4a1.07,1.07,0,0,1,1.16-1.05,1.69,1.69,0,0,1,1.08.38l.65,1.41h.5l-.06-1.95a4.51,4.51,0,0,0-2-.5,2.59,2.59,0,0,0-2.81,2.26c0,1,.51,1.58,1.63,2.08l.69.32c1.12.51,1.47.95,1.47,1.54A1.18,1.18,0,0,1,205,26.44a1.84,1.84,0,0,1-1.29-.46l-.82-1.77h-.57l.26,2.28a4.54,4.54,0,0,0,2.19.61c1.61,0,3.05-1.05,3.05-2.4C207.83,23.81,207.37,23.12,206,22.51Z"/><path class="cls-1" d="M212.35,25.9c-.61,0-1.08-.08-1.08-1.31V20.21h2v-.89h-2.07v-2.1h-.57l-.89,1.94-1.14.31v.68h1.11l-.05,5.06c0,1,.36,1.79,1.65,1.79a4.07,4.07,0,0,0,2.2-.74l-.11-.44A9.86,9.86,0,0,1,212.35,25.9Z"/><path class="cls-1" d="M218.82,19.09c-.58,0-1,.38-1.55,1.16l-.58.77h0l-.14-1.91h-.09l-2.28.77v.51l1,.22v5.27l-1,.33v.6h3.93v-.6L216.73,26V21.64a5.12,5.12,0,0,1,1.07-1l1.3.48a1.78,1.78,0,0,0,.57-1.15A.78.78,0,0,0,218.82,19.09Z"/><path class="cls-1" d="M225.1,19.88l1.08.37-2,5.27h-.05l-1.87-5.36,1.12-.28v-.56h-3.6v.56l.72.28,2.85,7.42-.86,2h0a1,1,0,0,0-.85-.64.81.81,0,0,0-.84.87,1,1,0,0,0,1.06,1c.86,0,1.25-.62,1.78-2l3.44-8.66.72-.3v-.56h-2.7Z"/><polygon class="cls-1" points="112.85 36.12 114.17 35.74 114.17 35.18 110.62 35.18 110.54 35.92 107.78 42.68 104.47 35.18 101.01 35.18 101.01 35.74 102.35 36.12 102.3 44.72 100.96 45.08 100.96 45.65 105.01 45.65 105.01 45.08 103.23 44.52 103.24 36.61 106.65 44.21 107 45.18 107.62 45.18 107.94 44.19 111.19 36.41 111.14 44.73 109.75 45.06 109.75 45.65 114.22 45.65 114.22 45.08 112.9 44.73 112.85 36.12"/><path class="cls-1" d="M115.82,34.9A1.05,1.05,0,0,0,116.88,36a1,1,0,1,0-1.06-1.05Z"/><polygon class="cls-1" points="117.73 37.96 115.27 38.45 115.27 39.08 116.2 39.37 116.2 44.73 115.15 45.06 115.15 45.65 118.87 45.65 118.87 45.06 117.73 44.75 117.73 37.96"/><path class="cls-1" d="M127,40.61c0-2-.7-2.65-2.21-2.65a3.8,3.8,0,0,0-2.57,1.41h0L121.84,38h-.08l-2.12.77v.48l1,.25v5.29l-1,.31v.59h3.56v-.59l-1-.29V39.9a2.8,2.8,0,0,1,1.78-.79c1,0,1.39.61,1.44,1.71v4l-.88.29v.59H128v-.57l-1-.31Z"/><path class="cls-1" d="M133.15,44.6c-1.62,0-2.74-1.17-2.74-3.19h5.2c0-2.17-1-3.45-2.87-3.45A3.93,3.93,0,0,0,129,42.2a3.5,3.5,0,0,0,3.51,3.7,3.55,3.55,0,0,0,3.18-2.19l-.32-.23A3,3,0,0,1,133.15,44.6Zm-.77-5.88c1,0,1.47,1,1.48,2h-3.39A2.12,2.12,0,0,1,132.38,38.72Z"/><path class="cls-1" d="M141.5,37.94c-.59,0-1,.38-1.55,1.15l-.59.78h0L139.18,38h-.08l-2.28.77v.51l1,.22v5.27l-1,.33v.59h3.93v-.59l-1.4-.26V40.49a4.88,4.88,0,0,1,1.06-1l1.31.48a1.83,1.83,0,0,0,.57-1.15A.79.79,0,0,0,141.5,37.94Z"/><path class="cls-1" d="M148.73,44.49V40.34c0-1.61-.69-2.38-2.37-2.38s-3.15,1.17-3.15,1.94c0,.44.28.71.8.71a3,3,0,0,0,.7-.09l.07-1.57a1.73,1.73,0,0,1,.93-.27c.86,0,1.4.59,1.45,1.84v.78l-1.65.42c-1.6.42-2.53,1-2.53,2.26a1.87,1.87,0,0,0,1.94,1.9c1,0,1.44-.49,2.24-1.29h.05a1.15,1.15,0,0,0,1.21,1.26,4.93,4.93,0,0,0,1.59-.43V45h-.73C148.82,45,148.73,44.83,148.73,44.49ZM147.16,44a1.59,1.59,0,0,1-1.31.75,1.17,1.17,0,0,1-1.25-1.2c0-.64.44-.93,1.22-1.21l1.34-.45Z"/><polygon class="cls-1" points="153.28 33.88 150.7 34.41 150.7 34.97 151.73 35.26 151.73 44.75 150.73 45.06 150.73 45.65 154.35 45.65 154.35 45.06 153.28 44.77 153.28 33.88"/><path class="cls-1" d="M164.53,40.47h0c1.36-.48,2.34-1.32,2.34-2.7,0-1.66-1.55-2.66-4.52-2.63l-3.8,0v.56l1.33.38v8.61l-1.33.33v.59h4.35v-.57l-1.29-.35V41l1.28-.06.67,1,2.61,3.71h2.7v-.57l-1.35-.33Zm-1.71-.16h-1.21V35.72c2.21,0,3.45.88,3.45,2.37A2.33,2.33,0,0,1,162.82,40.31Z"/><path class="cls-1" d="M173.16,44.6c-1.61,0-2.74-1.17-2.74-3.19h5.21c0-2.17-1-3.45-2.87-3.45C170.6,38,169,39.75,169,42.2a3.5,3.5,0,0,0,3.51,3.7,3.55,3.55,0,0,0,3.18-2.19l-.33-.23A3,3,0,0,1,173.16,44.6Zm-.76-5.88c1,0,1.47,1,1.48,2h-3.39A2.11,2.11,0,0,1,172.4,38.72Z"/><path class="cls-1" d="M180.63,41.36l-.71-.31c-.95-.41-1.24-.79-1.24-1.4a1.07,1.07,0,0,1,1.16-1,1.63,1.63,0,0,1,1.07.38l.66,1.41h.5l-.06-2a4.51,4.51,0,0,0-2-.5,2.59,2.59,0,0,0-2.81,2.26c0,1,.5,1.57,1.63,2.08l.69.32c1.12.51,1.46.95,1.46,1.54a1.18,1.18,0,0,1-1.32,1.15,1.86,1.86,0,0,1-1.29-.46l-.81-1.77H177l.26,2.28a4.53,4.53,0,0,0,2.18.61c1.62,0,3.06-1.05,3.06-2.4C182.5,42.66,182,42,180.63,41.36Z"/><path class="cls-1" d="M187.52,37.94a3.9,3.9,0,0,0-3.74,4.11,3.6,3.6,0,0,0,3.74,3.85,3.89,3.89,0,0,0,3.75-4.14A3.51,3.51,0,0,0,187.52,37.94Zm.23,7.22c-1.57,0-2.27-1.81-2.32-3.57s.67-2.89,1.89-2.91,2.26,1.27,2.29,3.52C189.66,43.86,188.94,45.14,187.75,45.16Z"/><path class="cls-1" d="M199.38,38l-2.81.28v.61l1.24.26v4.9a2.36,2.36,0,0,1-1.56.66c-1.05,0-1.55-.58-1.59-1.84V38l-2.64.28v.61l1.09.29v4c0,1.83.82,2.77,2.16,2.77a3.56,3.56,0,0,0,2.61-1.32l.5,1.28,2.24-.34V45l-1.24-.29Z"/><path class="cls-1" d="M205.86,37.94c-.59,0-1,.38-1.55,1.15l-.59.78h0L203.54,38h-.08l-2.29.77v.51l1.05.22v5.27l-1,.33v.59h3.93v-.59l-1.4-.26V40.49a4.88,4.88,0,0,1,1.06-1l1.3.48a1.78,1.78,0,0,0,.57-1.15A.77.77,0,0,0,205.86,37.94Z"/><path class="cls-1" d="M211.47,44.67c-1.55,0-2.68-1.38-2.68-3.19,0-1.55.88-2.8,2.17-2.8a1.44,1.44,0,0,1,.88.23l.23,1.55a3.79,3.79,0,0,0,.59,0,.85.85,0,0,0,.88-.92c0-.89-1-1.63-2.32-1.63a4.09,4.09,0,0,0-4,4.22,3.4,3.4,0,0,0,3.42,3.72,3.29,3.29,0,0,0,3-1.94l-.33-.25A2.52,2.52,0,0,1,211.47,44.67Z"/><path class="cls-1" d="M218.79,44.6c-1.61,0-2.74-1.17-2.74-3.19h5.21c0-2.17-1-3.45-2.87-3.45-2.16,0-3.79,1.79-3.79,4.24a3.5,3.5,0,0,0,3.51,3.7,3.55,3.55,0,0,0,3.18-2.19l-.33-.23A3,3,0,0,1,218.79,44.6ZM218,38.72c1,0,1.46,1,1.48,2h-3.39A2.11,2.11,0,0,1,218,38.72Z"/><path class="cls-1" d="M226.26,41.36l-.71-.31c-1-.41-1.24-.79-1.24-1.4a1.06,1.06,0,0,1,1.15-1,1.64,1.64,0,0,1,1.08.38l.65,1.41h.51l-.07-2a4.44,4.44,0,0,0-2-.5,2.58,2.58,0,0,0-2.8,2.26c0,1,.5,1.57,1.63,2.08l.68.32c1.13.51,1.47.95,1.47,1.54a1.18,1.18,0,0,1-1.32,1.15,1.86,1.86,0,0,1-1.29-.46l-.81-1.77h-.57l.26,2.28a4.53,4.53,0,0,0,2.18.61c1.62,0,3.05-1.05,3.05-2.4C228.12,42.66,227.67,42,226.26,41.36Z"/><path class="cls-1" d="M96.31,39.13a2.22,2.22,0,0,0-2,1.21c-.44.61-.85,1.28-1.43,2.12a16.75,16.75,0,0,1,2.74,3.28l-.08.16a4.33,4.33,0,0,1-2.17-.64L92,43.72c-1.2,1.54-2.28,2.11-3.47,2.11a3.12,3.12,0,0,1-3.33-3c0-1.49,1-2.09,2.47-3.09a3,3,0,0,1-1.19-2.26,2.72,2.72,0,0,1,2.79-2.6,2.36,2.36,0,0,1,2.52,2.26,1.78,1.78,0,0,1-.7,1.43,15.2,15.2,0,0,1-1.35,1C90.26,40,91.43,41,92.49,42a10.72,10.72,0,0,0,1-1.81c.3-.74.15-.95-1-1.1v-.47h3.84ZM89,44.66a3.43,3.43,0,0,0,2.56-1.39,28.92,28.92,0,0,0-3.49-3.12,2.64,2.64,0,0,0-1.37,2.2A2.24,2.24,0,0,0,89,44.66Zm.07-9.18a1.43,1.43,0,0,0-1.32,1.61c0,.84.5,1.39,1.52,2.15a2.45,2.45,0,0,0,1.18-2.05,1.54,1.54,0,0,0-1.36-1.71Z"/><path class="cls-2" d="M61.27,52.14c2-3.13,3.52-8.89,4.24-13.29A22,22,0,0,1,60.94,43c-7.84,5.65-21.3,11-30.31,13.11l.2.2.05,0,.26.25.08.08.74.71.74.69,0,0,0,0,.7.64,0,0,.52.45.43.37c.55.46,1.12.9,1.68,1.32l.68.49c.32.21.62.41.93.59l.07,0a14.37,14.37,0,0,0,5.74,2.13A5.71,5.71,0,0,0,46,64h0l.11-.05h0l.06,0h0C51.89,61.59,59.07,55.6,61.27,52.14Z"/><path class="cls-2" d="M37.27,63.05,37.18,63c-.31-.18-.63-.39-1-.61s-.71-.52-.72-.52c-.57-.43-1.16-.89-1.72-1.36l-.45-.38-.53-.46-.8-.72c-.46-.42-1-.89-1.61-1.52l-1.21-1.21C17.38,44.28,9.26,25.73,6.54,13.15a19.14,19.14,0,0,0-4.89,5l-.19.29,0,0-.09.13A9.39,9.39,0,0,0,0,22.74v0c-.09,9.37,6.47,25.69,11.91,32.46a17.53,17.53,0,0,0,5.38,4.16h0l.31.15.19.09.15.07c6.84,3.16,17.57,5.05,23.12,5.12A17.79,17.79,0,0,1,37.27,63.05Z"/><path class="cls-2" d="M1.06,17A20.37,20.37,0,0,1,6.58,11.8a14.18,14.18,0,0,1,7.61-2.37c.29,0,.58,0,.86,0,6.57.47,12,6.19,18.26,12.81,3.92,4.13,8,8.41,12.73,11.85A60,60,0,0,0,60.5,42c3.25-2.38,5.11-4.59,5.37-6.39l0-.16h0c.09-1.59-.7-2.71-3-4.22h-.08l-.12-.12c-.72-.47-1.55-1-2.43-1.48A75.07,75.07,0,0,1,46.79,19.8c-1.85-1.71-3.71-3.64-5.68-5.69C34.84,7.59,27.74.21,20,0h-.24C12.83,0,4.12,8.25,1.06,17Z"/></svg>