<?xml version="1.0" encoding="utf-8"?>
<!-- Generator: Adobe Illustrator 27.2.0, SVG Export Plug-In . SVG Version: 6.00 Build 0)  -->
<svg version="1.1" id="Layer_1" xmlns="http://www.w3.org/2000/svg" xmlns:xlink="http://www.w3.org/1999/xlink" x="0px" y="0px"
	 viewBox="0 0 227.66 64.83" style="enable-background:new 0 0 227.66 64.83;" xml:space="preserve">
<style type="text/css">
	.st0{fill:#B1B1B1;}
	.st1{fill:#CACACA;}
</style>
<g>
	<polygon class="st0" points="3.43,11.27 4.43,10.21 5.49,11.27 5.67,11.27 6.89,9.99 5.61,8.73 5.46,8.73 4.43,9.77 3.37,8.73 
		3.21,8.73 1.97,9.99 3.25,11.27 	"/>
	<path class="st0" d="M2.62,20.62c0.66,0,1.31-0.17,1.87-0.51c0.12-0.41,0.2-0.83,0.28-1.22l0,0l0,0C5.12,21.1,5.89,22,7.68,22
		h34.15c2.24-0.04,4.47-0.38,6.63-1L50,20.53l0.5-2l-0.1-0.08l-1.56,0.39c-2.5,0.63-5.06-0.2-5.06-1.71c0-1.22,1.26-1.77,2.48-1.77
		c1.08,0,2.13,0.35,3,1l0.38-0.45c-0.77-1.66-1.75-2.54-3-2.54c-1.86,0-3.59,2-3.59,4.19c0,0.91,0.4,1.77,1.08,2.37
		C43.48,19.98,42.72,20,41.87,20H8.11C6.58,20,6.18,19.36,6,17.59l-0.61-5.22H4.81L4.16,14l-1.62,1.13C0.71,16.37,0,17.22,0,18.44
		S1,20.62,2.62,20.62z M2.11,16.57l2.2-1.09l0.4,2.72c-0.66,0.29-1.37,0.43-2.09,0.4c-1.1,0-1.83-0.28-1.83-0.75S1.22,17,2.11,16.57
		z"/>
	<path class="st0" d="M56.43,22h14.66c0.73-0.02,1.43-0.28,2-0.72c0.13-0.35,0.23-0.71,0.31-1.08l0,0c0.26,1.08,1.31,1.81,2.9,1.81
		h4.26c0.84-0.02,1.64-0.38,2.22-1c1.44,0.9,3.12,1.34,4.82,1.29c1.89,0.03,3.78-0.31,5.54-1c0.93,0.45,1.96,0.68,3,0.65l0,0
		c1.19,0,2.35-0.33,3.37-0.95c0.36-0.88,0.54-1.81,0.54-2.76v-7.48l1-0.75V10l-1-1.2V7.29H99.5c-1.27,0.85-1.54,1.83-0.89,2.88
		l0.29,9.35c-0.75,0.29-1.55,0.43-2.36,0.43c-0.61-0.01-1.21-0.05-1.81-0.13c0.27-0.66,0.42-1.37,0.43-2.09
		c0.05-1.72-1.31-3.16-3.03-3.21c-0.04,0-0.09,0-0.13,0c-2,0-4.07,1.61-6.67,5.43c-0.46-0.12-0.91-0.3-1.33-0.51l0.94-1.4
		l-0.51-0.37l-0.65,0.89c-0.67,1.03-1.87,1.58-3.09,1.44h-3.9c-1.71,0-2.26-0.35-2.26-1.55v-1.82H73.9l-0.48,2.85
		c-0.7,0.35-1.48,0.51-2.26,0.47H56.87c-1.7,0-2.29-0.45-2.29-1.73V7.29H54L53,9.2l0.25,9.06C53.34,21,54.17,22,56.43,22z
		 M91.15,16.57c1.46,0.08,2.73,1.04,3.19,2.43c-2.13,0.86-4.41,1.29-6.7,1.26c-0.52,0-1.04-0.06-1.55-0.16
		c1.91-2.47,3.4-3.55,5.06-3.55V16.57z"/>
	<polygon class="st0" points="74.31,15.13 75.53,13.85 74.25,12.59 74.09,12.59 72.85,13.85 74.13,15.13 	"/>
	<polygon class="st0" points="104.4,21.98 105.01,19.74 105.01,7.29 104.38,7.29 103.43,9.2 103.77,21.98 	"/>
	<polygon class="st0" points="113.14,12.98 114.14,11.92 115.21,12.98 115.39,12.98 116.61,11.7 115.33,10.44 115.17,10.44 
		114.14,11.49 113.08,10.44 112.92,10.44 111.68,11.7 112.96,12.98 	"/>
	<path class="st0" d="M114.05,22.3c2,0,3.11-1.44,3.11-3.65c0-1.93-0.93-3.11-4.41-4.64l-0.08,0.06v2c-0.9,0.97-1.44,2.21-1.54,3.53
		c-0.07,1.43,1.04,2.65,2.48,2.72C113.75,22.32,113.9,22.32,114.05,22.3z M113.48,16.63c2.14,0.94,2.93,1.75,2.93,2.42
		s-0.85,1.22-2.26,1.22s-2.27-0.47-2.27-1.24C112.07,18.05,112.64,17.18,113.48,16.63z"/>
	<path class="st0" d="M117.14,24.88v0.63l3.72,1.2c1.68-2.03,2.65-4.56,2.78-7.19c-0.08-1.53-0.57-3.02-1.42-4.29h-0.55L121,16.94
		c1.42,1.73,1.89,2.6,1.89,3.68C122.87,22.44,120.8,24,117.14,24.88z"/>
	<polygon class="st0" points="127.08,21.98 127.69,19.74 127.69,7.29 127.06,7.29 126.12,9.2 126.45,21.98 	"/>
	<path class="st0" d="M134.05,19.52c-0.07-1.53-0.56-3.02-1.42-4.29h-0.55l-0.69,1.71c1.42,1.73,1.89,2.6,1.89,3.68
		c0,1.82-2.06,3.35-5.73,4.26v0.63l3.73,1.2C132.96,24.68,133.93,22.15,134.05,19.52z"/>
	<polygon class="st0" points="132.2,13.73 133.42,12.45 132.14,11.19 131.99,11.19 130.74,12.45 132.03,13.73 	"/>
	<path class="st0" d="M142,19.32c0-2.64-1.32-4.8-3-4.8c-1.43,0-2.93,2.11-2.93,4.09c-0.13,1.32,0.84,2.49,2.16,2.62
		c0.15,0.01,0.29,0.01,0.44,0c0.64,0.02,1.27-0.12,1.83-0.41l0.57-1.48c0.08,0.33,0.12,0.66,0.12,1c0,2.24-2.4,3.82-6.6,4.55v0.63
		l3.71,1.2C140.46,24.84,141.79,22.18,142,19.32z M138.89,19.21c-1.28,0-2-0.3-2-1c0.01-0.91,0.72-1.65,1.63-1.69
		c1,0,2,1.08,2.48,2.4C140.32,19.13,139.61,19.23,138.89,19.21L138.89,19.21z"/>
	<polygon class="st0" points="5.46,31.15 4.43,32.19 3.37,31.15 3.21,31.15 1.97,32.41 3.25,33.69 3.43,33.69 4.43,32.62 
		5.49,33.69 5.67,33.69 6.89,32.41 5.61,31.15 	"/>
	<polygon class="st0" points="28.87,46.17 28.71,46.17 27.68,47.22 26.62,46.17 26.46,46.17 25.22,47.43 26.5,48.71 26.68,48.71 
		27.68,47.65 28.75,48.71 28.93,48.71 30.15,47.43 	"/>
	<path class="st0" d="M38.36,44.4h3.9c1.26-0.02,2.5-0.32,3.62-0.9c0.34-0.89,0.52-1.84,0.51-2.79c-0.05-1.09-0.39-2.14-1-3.05
		h-0.55l-0.69,1.71c0.65,0.7,1.14,1.52,1.46,2.42c-1.06,0.42-2.19,0.62-3.33,0.59H30.64c-1.71,0-2.27-0.35-2.27-1.55V39h-0.63
		l-0.47,2.86c-0.7,0.35-1.48,0.51-2.26,0.47H8.11C6.58,42.37,6.18,41.78,6,40l-0.61-5.22H4.81l-0.65,1.63l-1.62,1.14
		C0.71,38.79,0,39.63,0,40.86S1,43,2.62,43c0.66,0,1.3-0.18,1.87-0.51c0.12-0.41,0.2-0.83,0.28-1.22l0,0l0,0
		c0.31,2.18,1.08,3.07,2.87,3.07h17.3c0.72-0.03,1.42-0.28,2-0.72c0.13-0.37,0.21-0.73,0.31-1.08l0,0c0.26,1.08,1.31,1.8,2.89,1.81
		h8.16L38.36,44.4z M2.62,41c-1.1,0-1.83-0.27-1.83-0.75s0.43-0.84,1.32-1.28l2.2-1.08l0.4,2.72C4.05,40.89,3.34,41.03,2.62,41z"/>
	<polygon class="st0" points="43.59,34.87 44.87,36.15 45.05,36.15 46.27,34.87 44.99,33.61 44.83,33.61 	"/>
	<path class="st0" d="M87.09,29.71h-0.55c-1.26,0.85-1.54,1.83-0.89,2.87l0.3,9.36c-0.76,0.28-1.55,0.43-2.36,0.43
		c-0.89,0.1-1.74-0.41-2.07-1.24l-0.43-0.85c-0.79-1.49-1.32-2-2.17-2c-1.3,0-2.52,1.56-2.94,3.59c-0.58,0.31-1.23,0.46-1.89,0.45
		c-1.13,0.08-2.25-0.25-3.15-0.94c1-0.85,1.46-1.48,1.46-2.15c0-1.14-0.9-1.77-2.34-1.77c-0.88,0.03-1.74,0.27-2.5,0.71L67,39.89
		l0.23,0.51c0.77-0.03,1.51,0.35,1.93,1l0.06,0.1c-1.05,0.57-2.22,0.85-3.41,0.84H58c-1.5,0-2.23-0.71-3-2.93l-1.43-4.16h-0.53
		L52.36,37l1.39,3.44c0.24,0.57,0.46,1.07,0.67,1.5c-0.82,0.52-1.78,0.78-2.75,0.75c-1.78,0-2.25-0.32-2.33-1.54v-0.31h-0.59
		c-0.15,0.54-0.24,1.09-0.27,1.65c0,1.48,0.86,2.21,2.79,2.21c1.12,0.03,2.21-0.32,3.1-1c0.11-0.43,0.21-0.85,0.27-1.24h0.08
		c0.82,1.44,1.64,2,2.83,2h8.15c1.57-0.17,3.03-0.87,4.14-2c0.87,1.26,2.29,2,3.82,2l0,0c0.86-0.03,1.68-0.35,2.34-0.91
		c1.41,0.7,2.92,1.18,4.47,1.45c0.19-0.49,0.36-0.98,0.5-1.49c0.53,0.66,1.34,1.01,2.18,0.94l0,0c1.2,0,2.38-0.32,3.41-0.94
		c0.35-0.88,0.53-1.81,0.53-2.76v-7.57l1-0.75v-0.06l-1-1.2L87.09,29.71z M76.73,41.71c0.16-0.79,0.82-1.38,1.62-1.46
		c0.57,0,1,0.34,1.53,1.32l0.46,0.85c0.09,0.17,0.18,0.33,0.29,0.49c-1.34-0.22-2.65-0.61-3.9-1.15L76.73,41.71z"/>
	<polygon class="st0" points="91.44,44.4 92.05,42.16 92.05,29.71 91.42,29.71 90.48,31.62 90.81,44.4 	"/>
	<path class="st0" d="M101.09,44.72c2,0,3.11-1.44,3.11-3.65c0-1.93-0.92-3.11-4.41-4.65l-0.08,0.06v2
		c-0.89,0.97-1.43,2.21-1.53,3.52c-0.08,1.43,1.02,2.66,2.46,2.74C100.79,44.74,100.94,44.74,101.09,44.72z M100.52,39
		c2.15,1,2.93,1.76,2.93,2.43s-0.84,1.22-2.26,1.22s-2.27-0.48-2.27-1.24C99.11,40.43,99.69,39.56,100.52,39z"/>
	<polygon class="st0" points="99.97,32.86 98.73,34.12 100.01,35.4 100.19,35.4 101.19,34.34 102.25,35.4 102.43,35.4 103.65,34.12 
		102.37,32.86 102.21,32.86 101.19,33.9 100.13,32.86 	"/>
	<path class="st0" d="M109.18,36.94c-1.43,0-2.93,2.1-2.93,4.09c-0.13,1.31,0.82,2.49,2.14,2.62c0.15,0.02,0.31,0.02,0.46,0
		c0.63,0.02,1.26-0.12,1.83-0.41l0.57-1.48c0.08,0.33,0.12,0.66,0.12,1c0,2.24-2.4,3.82-6.6,4.55v0.63l3.7,1.2
		c2.15-1.88,3.47-4.54,3.67-7.39C112.14,39.1,110.82,36.94,109.18,36.94z M109,41.62c-1.28,0-2-0.29-2-1c0-0.91,0.72-1.65,1.63-1.69
		c1,0,2,1.08,2.48,2.4C110.43,41.54,109.71,41.64,109,41.62z"/>
	<polygon class="st0" points="121.94,33.02 123.11,31.84 121.91,30.66 121.75,30.66 120.58,31.84 121.79,33.02 	"/>
	<polygon class="st0" points="122.91,32.9 121.89,33.94 120.82,32.9 120.66,32.9 119.42,34.16 120.7,35.44 120.88,35.44 
		121.89,34.38 122.95,35.44 123.13,35.44 124.35,34.16 123.07,32.9 	"/>
	<path class="st0" d="M124.73,44.4L124.73,44.4c1.19,0,2.36-0.33,3.39-0.94c0.35-0.88,0.53-1.81,0.53-2.76v-7.52l1-0.75v-0.06
		l-1-1.2v-1.46h-0.55c-1.26,0.85-1.54,1.83-0.89,2.87l0.3,9.36c-0.76,0.28-1.56,0.43-2.37,0.43c-1.51,0-2-0.59-2.34-2.36l-0.49-3.07
		h-0.53l-0.26,0.71c-0.57,1.67-1.28,2.1-2.09,2.1c-0.92-0.1-1.75-0.62-2.22-1.42h-0.55L116,40.07c1.28,1.2,1.89,2.16,1.89,3
		c0,1.77-2.07,3.31-5.73,4.2v0.63l3.72,1.2c1.68-2.03,2.65-4.56,2.78-7.19v-0.22c0.18,0.04,0.36,0.06,0.55,0.06
		c1,0,1.87-0.71,2.24-2.28l0.22,1.24c0.51,2.78,1.2,3.65,3.07,3.66l0,0L124.73,44.4z"/>
	<polygon class="st0" points="133.62,42.16 133.62,29.71 132.99,29.71 132.04,31.62 132.38,44.4 133.01,44.4 	"/>
	<path class="st0" d="M134.86,47.3v0.63l3.7,1.2c2.15-1.88,3.47-4.54,3.67-7.39c0-2.64-1.32-4.8-3-4.8c-1.44,0-2.93,2.1-2.93,4.09
		c-0.13,1.31,0.82,2.49,2.14,2.62c0.15,0.02,0.31,0.02,0.46,0c0.63,0.02,1.26-0.12,1.83-0.41l0.57-1.48c0.08,0.33,0.12,0.66,0.12,1
		C141.46,45,139.06,46.57,134.86,47.3z M139.11,41.62c-1.28,0-2-0.29-2-1c0-0.91,0.72-1.65,1.63-1.69c1,0,2,1.08,2.48,2.4
		C140.54,41.54,139.82,41.64,139.11,41.62z"/>
	<polygon class="st0" points="5.72,54.05 6.36,53.87 6.36,53.6 4.66,53.6 4.62,53.95 3.3,57.19 1.71,53.6 0.06,53.6 0.06,53.87 
		0.7,54.05 0.67,58.16 0.03,58.34 0.03,58.61 1.97,58.61 1.97,58.34 1.12,58.07 1.13,54.28 2.76,57.92 2.92,58.38 3.22,58.38 
		3.37,57.91 4.93,54.19 4.91,58.17 4.24,58.33 4.24,58.61 6.38,58.61 6.38,58.34 5.75,58.17 	"/>
	<polygon class="st0" points="8.06,54.93 6.88,55.17 6.88,55.47 7.32,55.61 7.32,58.17 6.83,58.33 6.83,58.61 8.61,58.61 
		8.61,58.33 8.06,58.18 	"/>
	<path class="st0" d="M8.16,53.47c-0.01-0.28-0.23-0.5-0.51-0.5c-0.28,0.01-0.5,0.22-0.51,0.5c0.06,0.28,0.32,0.46,0.6,0.4
		c0.2-0.04,0.36-0.2,0.4-0.4H8.16z"/>
	<path class="st0" d="M12.49,56.2c0-1-0.33-1.27-1.05-1.27c-0.49,0.05-0.93,0.29-1.23,0.68l0,0L10,54.93l0,0L9,55.3v0.23l0.5,0.12
		v2.53L9,58.33v0.28h1.7v-0.28l-0.49-0.14v-2.33c0.23-0.23,0.53-0.36,0.85-0.38c0.5,0,0.67,0.29,0.69,0.82v1.89l-0.42,0.14v0.28H13
		v-0.27l-0.49-0.15L12.49,56.2z"/>
	<polygon class="st0" points="14.61,54.93 13.43,55.17 13.43,55.47 13.87,55.61 13.87,58.17 13.38,58.33 13.38,58.61 15.15,58.61 
		15.15,58.33 14.61,58.18 	"/>
	<path class="st0" d="M14.71,53.47c-0.06-0.28-0.32-0.46-0.6-0.4c-0.2,0.04-0.36,0.2-0.4,0.4c0,0.28,0.22,0.5,0.5,0.5
		C14.48,53.96,14.7,53.74,14.71,53.47z"/>
	<path class="st0" d="M17.38,56.56L17,56.41c-0.46-0.2-0.6-0.38-0.6-0.67c0-0.28,0.24-0.51,0.52-0.5c0.01,0,0.03,0,0.04,0
		c0.19,0,0.37,0.06,0.51,0.18l0.32,0.67h0.24v-0.93c-0.31-0.16-0.65-0.24-1-0.24c-0.65-0.04-1.21,0.44-1.29,1.08
		c0,0.48,0.24,0.76,0.78,1l0.33,0.15c0.54,0.24,0.7,0.45,0.7,0.74c-0.01,0.31-0.27,0.56-0.59,0.55c-0.01,0-0.03,0-0.04,0
		c-0.23,0-0.45-0.07-0.62-0.22l-0.39-0.85h-0.27l0.12,1.09c0.31,0.18,0.65,0.28,1,0.29c0.72,0.07,1.36-0.44,1.46-1.15
		C18.27,57.18,18.05,56.85,17.38,56.56z"/>
	<path class="st0" d="M20.43,58.18c-0.29,0-0.51,0-0.51-0.63v-2.09h1V55h-1v-1h-0.27l-0.42,0.93l-0.55,0.15v0.33h0.53v2.42
		c0,0.49,0.17,0.86,0.79,0.86c0.36-0.02,0.7-0.14,1-0.34v-0.21C20.81,58.17,20.62,58.18,20.43,58.18z"/>
	<path class="st0" d="M23.53,54.92c-0.28,0-0.47,0.18-0.74,0.55l-0.28,0.37l0,0l-0.07-0.91l0,0l-1.09,0.37v0.24l0.5,0.11v2.52
		l-0.47,0.16v0.28h1.82v-0.28l-0.67-0.13v-2.06c0.15-0.19,0.32-0.35,0.51-0.49l0.62,0.23c0.16-0.14,0.26-0.34,0.28-0.55
		c0.02-0.2-0.12-0.39-0.33-0.41C23.59,54.92,23.56,54.92,23.53,54.92z"/>
	<path class="st0" d="M26.54,55.3l0.51,0.17L26.12,58l0,0l-0.9-2.57l0.54-0.13V55H24v0.27l0.34,0.13l1.38,3.6l-0.42,1l0,0
		c-0.06-0.18-0.22-0.3-0.41-0.31c-0.22-0.01-0.39,0.16-0.4,0.38c0,0.01,0,0.03,0,0.04c0.01,0.27,0.22,0.48,0.49,0.47
		c0,0,0.01,0,0.01,0c0.42,0,0.61-0.3,0.85-0.95l1.65-4.15l0.35-0.14V55h-1.3V55.3z"/>
	<path class="st0" d="M31.32,54.92c-1.03,0.04-1.83,0.91-1.79,1.94c0,0.02,0,0.04,0,0.06c-0.07,0.95,0.65,1.77,1.59,1.84
		c0.07,0,0.13,0.01,0.2,0c1.03-0.04,1.83-0.9,1.79-1.92c0-0.03,0-0.05,0-0.08c0.09-0.92-0.58-1.75-1.51-1.84
		C31.51,54.91,31.41,54.91,31.32,54.92z M31.42,58.38c-0.74,0-1.08-0.87-1.1-1.71s0.32-1.39,0.9-1.39s1.08,0.6,1.09,1.68
		C32.34,57.75,32,58.37,31.42,58.38z"/>
	<path class="st0" d="M35.77,53c-1,0.11-1.74,0.99-1.66,2l0,0l-0.53,0.15v0.33h0.53v2.75l-0.47,0.15v0.28h1.89v-0.28l-0.68-0.15
		v-2.79h1V55h-1v-0.59c0-0.83,0.35-1.12,0.76-1.12c0.11,0,0.23,0.03,0.33,0.08l0.19,0.66c0.07,0.01,0.14,0.01,0.21,0
		c0.22,0.01,0.41-0.16,0.42-0.38c0-0.01,0-0.03,0-0.04C36.76,53.33,36.38,53,35.77,53z"/>
	<polygon class="st0" points="39.31,54.05 39.95,53.87 39.95,53.6 37.84,53.6 37.84,53.87 38.48,54.05 38.48,58.17 37.84,58.33 
		37.84,58.61 39.96,58.61 39.96,58.34 39.31,58.17 	"/>
	<path class="st0" d="M44,56.2c0-1-0.34-1.27-1.06-1.27c-0.48,0.05-0.93,0.3-1.23,0.68l0,0l-0.16-0.68l0,0l-1,0.37v0.23l0.5,0.12
		v2.53l-0.47,0.15v0.28h1.7v-0.28l-0.49-0.14v-2.33c0.23-0.23,0.53-0.36,0.85-0.38c0.49,0,0.66,0.29,0.69,0.82v1.89l-0.43,0.14v0.28
		h1.66v-0.27L44,58.19V56.2z"/>
	<path class="st0" d="M48.16,53l-1.44,0.2v0.26l0.7,0.14V55c-0.2-0.05-0.41-0.08-0.62-0.08c-1.07,0.01-1.93,0.88-1.93,1.95
		c0,0.04,0,0.08,0.01,0.13c-0.09,0.86,0.53,1.62,1.39,1.71c0.04,0,0.09,0.01,0.13,0.01c0.43-0.01,0.82-0.21,1.09-0.54l0.2,0.52
		l1.07-0.15v-0.27l-0.6-0.15L48.16,53z M47.42,58c-0.17,0.12-0.37,0.18-0.58,0.18c-0.9,0-1.21-0.78-1.21-1.56s0.45-1.33,1-1.33
		c0.33,0.02,0.63,0.2,0.8,0.49L47.42,58z"/>
	<path class="st0" d="M52.57,55l-1.35,0.13v0.29l0.6,0.13v2.34c-0.2,0.19-0.47,0.31-0.75,0.32c-0.5,0-0.74-0.28-0.76-0.88V55
		L49,55.09v0.29l0.53,0.14v1.9c0,0.87,0.39,1.32,1,1.32c0.49-0.02,0.94-0.25,1.25-0.63l0.24,0.61l1.07-0.16v-0.28l-0.59-0.14
		L52.57,55z"/>
	<path class="st0" d="M55.32,56.56L55,56.41c-0.45-0.2-0.6-0.38-0.6-0.67c0-0.28,0.24-0.51,0.52-0.5c0.01,0,0.03,0,0.04,0
		c0.19,0,0.37,0.06,0.51,0.18l0.32,0.67H56v-0.93c-0.29-0.15-0.62-0.24-0.95-0.24c-0.68-0.08-1.29,0.41-1.37,1.08
		c0,0.48,0.24,0.76,0.78,1l0.33,0.15c0.54,0.24,0.7,0.45,0.7,0.74c0,0.31-0.26,0.56-0.57,0.55c-0.02,0-0.04,0-0.06,0
		c-0.23,0-0.44-0.08-0.62-0.22l-0.39-0.85h-0.27l0.13,1.09c0.3,0.18,0.65,0.28,1,0.29c0.72,0.07,1.36-0.44,1.46-1.15
		C56.21,57.18,56,56.85,55.32,56.56z"/>
	<path class="st0" d="M58.37,58.18c-0.28,0-0.51,0-0.51-0.63v-2.09h1V55h-1v-1h-0.27l-0.42,0.93l-0.55,0.15v0.33h0.53v2.42
		c0,0.49,0.17,0.86,0.79,0.86c0.38-0.01,0.75-0.13,1.06-0.34l-0.05-0.21C58.76,58.17,58.56,58.18,58.37,58.18z"/>
	<path class="st0" d="M61.47,54.92c-0.28,0-0.46,0.18-0.74,0.55l-0.28,0.37l0,0l-0.07-0.91l0,0l-1.1,0.37v0.24l0.5,0.11v2.52
		l-0.47,0.16v0.28h1.89v-0.28l-0.68-0.13v-2.06c0.15-0.19,0.32-0.35,0.51-0.49l0.63,0.23c0.16-0.14,0.25-0.34,0.27-0.55
		c0.03-0.2-0.11-0.39-0.31-0.42C61.57,54.9,61.52,54.91,61.47,54.92z"/>
	<path class="st0" d="M64.48,55.3l0.51,0.17L64.06,58l0,0l-0.89-2.57l0.54-0.13V55H62v0.27l0.34,0.13l1.32,3.6l-0.41,1l0,0
		c-0.06-0.18-0.22-0.3-0.41-0.31c-0.22-0.01-0.39,0.16-0.4,0.38c0,0.01,0,0.03,0,0.04c0.01,0.27,0.24,0.48,0.51,0.47c0,0,0,0,0,0
		c0.41,0,0.6-0.3,0.85-0.95l1.64-4.15l0.35-0.14V55h-1.31V55.3z"/>
	<path class="st0" d="M70.31,58.05v-2c0-0.77-0.33-1.14-1.13-1.14s-1.51,0.56-1.51,0.93c-0.01,0.18,0.13,0.34,0.32,0.34
		c0.02,0,0.04,0,0.06,0c0.11,0.01,0.23,0.01,0.34,0v-0.76c0.14-0.08,0.29-0.12,0.45-0.12c0.41,0,0.67,0.28,0.69,0.88v0.37l-0.79,0.2
		c-0.76,0.2-1.21,0.47-1.21,1.08c-0.01,0.5,0.39,0.9,0.89,0.91c0.01,0,0.03,0,0.04,0c0.49,0,0.69-0.23,1.07-0.62l0,0
		c-0.03,0.3,0.18,0.57,0.49,0.61c0.03,0,0.06,0,0.08,0c0.27-0.03,0.53-0.1,0.77-0.21v-0.23h-0.35
		C70.36,58.27,70.31,58.22,70.31,58.05z M69.56,57.81c-0.13,0.22-0.37,0.35-0.62,0.36c-0.31,0.02-0.58-0.21-0.6-0.52
		c0-0.02,0-0.03,0-0.05c0-0.31,0.21-0.45,0.58-0.59l0.64-0.21V57.81z"/>
	<path class="st0" d="M74.78,56.2c0-1-0.33-1.27-1-1.27c-0.49,0.05-0.93,0.29-1.23,0.68l0,0l-0.16-0.68l0,0l-1,0.37v0.23l0.5,0.12
		v2.53l-0.47,0.15v0.28H73v-0.28l-0.49-0.14v-2.33c0.22-0.23,0.53-0.37,0.85-0.38c0.49,0,0.66,0.29,0.68,0.82v1.89l-0.42,0.14v0.28
		h1.66v-0.27l-0.5-0.15L74.78,56.2z"/>
	<path class="st0" d="M79,53l-1.44,0.2v0.26l0.7,0.14V55c-0.21-0.05-0.42-0.08-0.63-0.08c-1.07,0.01-1.92,0.88-1.92,1.94
		c0,0.05,0,0.09,0.01,0.14c-0.09,0.86,0.53,1.62,1.39,1.71c0.04,0,0.09,0.01,0.13,0.01c0.43-0.01,0.82-0.21,1.09-0.54l0.19,0.52
		l1.07-0.15v-0.27L79,58.14V53z M78.26,58c-0.17,0.12-0.38,0.18-0.59,0.18c-0.89,0-1.21-0.78-1.21-1.56s0.46-1.33,1-1.33
		c0.33,0.02,0.63,0.2,0.8,0.49L78.26,58z"/>
	<polygon class="st0" points="87.27,54.05 87.9,53.87 87.9,53.6 86.2,53.6 86.16,53.95 84.84,57.19 83.25,53.6 81.6,53.6 
		81.6,53.87 82.24,54.05 82.22,58.16 81.58,58.34 81.58,58.61 83.51,58.61 83.51,58.34 82.66,58.07 82.67,54.28 84.3,57.92 
		84.47,58.38 84.76,58.38 84.92,57.91 86.47,54.19 86.45,58.17 85.78,58.33 85.78,58.61 87.92,58.61 87.92,58.34 87.29,58.17 	"/>
	<path class="st0" d="M88.69,53.47c-0.01,0.28,0.22,0.51,0.5,0.52s0.51-0.22,0.52-0.5s-0.22-0.51-0.5-0.52c0,0-0.01,0-0.01,0
		C88.92,52.97,88.7,53.19,88.69,53.47z"/>
	<polygon class="st0" points="89.6,54.93 88.42,55.17 88.42,55.47 88.87,55.61 88.87,58.17 88.37,58.33 88.37,58.61 90.15,58.61 
		90.15,58.33 89.6,58.18 	"/>
	<path class="st0" d="M94,56.2c0-1-0.34-1.27-1.06-1.27c-0.48,0.05-0.93,0.3-1.23,0.68l0,0l-0.16-0.68l0,0l-1,0.37v0.23l0.5,0.12
		v2.53l-0.47,0.15v0.28h1.7v-0.28l-0.49-0.14v-2.33c0.23-0.23,0.53-0.36,0.85-0.38c0.49,0,0.66,0.29,0.69,0.82v1.89l-0.43,0.14v0.28
		h1.66v-0.27L94,58.19V56.2z"/>
	<path class="st0" d="M97,58.11c-0.77,0-1.31-0.56-1.31-1.53h2.49c0-1-0.49-1.65-1.37-1.65c-1.04,0.03-1.85,0.9-1.82,1.94
		c0,0.04,0,0.09,0.01,0.13c-0.06,0.91,0.63,1.71,1.55,1.77c0.72,0.05,1.39-0.38,1.65-1.05L98,57.57
		C97.75,57.88,97.39,58.07,97,58.11z M96.63,55.29c0.49,0,0.71,0.46,0.71,1H95.7c0-0.52,0.39-0.95,0.91-1H96.63z"/>
	<path class="st0" d="M101,54.92c-0.28,0-0.47,0.18-0.74,0.55l-0.29,0.37l0,0l-0.07-0.91l0,0l-1.09,0.37v0.24l0.5,0.11v2.52
		l-0.47,0.16v0.28h1.88v-0.28L100,58.2v-2.06c0.15-0.19,0.32-0.35,0.51-0.49l0.62,0.23c0.16-0.14,0.25-0.34,0.27-0.55
		c0.02-0.2-0.12-0.39-0.33-0.41C101.05,54.92,101.02,54.92,101,54.92z"/>
	<path class="st0" d="M104.44,58.05v-2c0-0.77-0.33-1.14-1.14-1.14s-1.5,0.56-1.5,0.93c0,0.21,0.13,0.34,0.38,0.34
		c0.11,0.01,0.23,0.01,0.34,0v-0.76c0.13-0.08,0.29-0.12,0.44-0.12c0.42,0,0.67,0.28,0.7,0.88v0.37l-0.79,0.2
		c-0.77,0.2-1.21,0.47-1.21,1.08c-0.01,0.5,0.39,0.9,0.89,0.91c0.01,0,0.03,0,0.04,0c0.49,0,0.68-0.23,1.07-0.62l0,0
		c0,0.33,0.17,0.61,0.58,0.61c0.26-0.03,0.52-0.1,0.76-0.21v-0.23h-0.35C104.48,58.27,104.44,58.22,104.44,58.05z M103.69,57.81
		c-0.14,0.22-0.37,0.35-0.63,0.36c-0.31,0.02-0.58-0.21-0.6-0.52c0-0.02,0-0.03,0-0.05c0-0.31,0.21-0.45,0.59-0.59l0.64-0.21V57.81z
		"/>
	<polygon class="st0" points="106.61,52.98 105.38,53.23 105.38,53.5 105.87,53.64 105.87,58.18 105.4,58.33 105.4,58.61 
		107.13,58.61 107.13,58.33 106.61,58.19 	"/>
	<path class="st0" d="M112,56.13L112,56.13c0.65-0.23,1.12-0.63,1.12-1.29s-0.74-1.28-2.17-1.26h-1.81v0.27l0.64,0.18v4.12
		l-0.64,0.16v0.28h2.08v-0.27l-0.62-0.17v-1.77h0.61l0.32,0.48l1.25,1.78h1.3v-0.27l-0.65-0.16L112,56.13z M111.18,56.05h-0.58
		v-2.19c1.06,0,1.65,0.42,1.65,1.13C112.23,55.57,111.76,56.03,111.18,56.05z"/>
	<path class="st0" d="M116.13,58.11c-0.77,0-1.31-0.56-1.31-1.53h2.49c0-1-0.49-1.65-1.37-1.65c-1.04,0.04-1.86,0.91-1.82,1.96
		c0,0.01,0,0.03,0,0.04c-0.05,0.93,0.66,1.72,1.59,1.77c0.03,0,0.06,0,0.09,0c0.66-0.01,1.25-0.4,1.53-1l-0.16-0.11
		C116.91,57.9,116.53,58.09,116.13,58.11z M115.76,55.29c0.49,0,0.71,0.46,0.71,1h-1.62C114.85,55.77,115.24,55.34,115.76,55.29z"/>
	<path class="st0" d="M119.71,56.56l-0.35-0.15c-0.45-0.2-0.59-0.38-0.59-0.67c0-0.28,0.22-0.5,0.5-0.5c0.02,0,0.04,0,0.05,0
		c0.19,0,0.37,0.06,0.52,0.18l0.31,0.67h0.24v-0.93c-0.31-0.16-0.65-0.24-1-0.24c-0.66-0.05-1.24,0.42-1.32,1.08
		c0,0.48,0.24,0.76,0.78,1l0.33,0.15c0.53,0.24,0.7,0.45,0.7,0.74c-0.01,0.31-0.27,0.56-0.59,0.55c-0.01,0-0.03,0-0.04,0
		c-0.23,0.01-0.45-0.07-0.62-0.22l-0.39-0.85H118l0.12,1.09c0.3,0.18,0.65,0.28,1,0.29c0.72,0.07,1.36-0.44,1.46-1.15
		C120.6,57.18,120.38,56.85,119.71,56.56z"/>
	<path class="st0" d="M123,54.92c-1.03,0.04-1.83,0.91-1.79,1.94c0,0.02,0,0.04,0,0.06c-0.04,0.95,0.69,1.76,1.65,1.81
		c0.05,0,0.1,0,0.14,0c1.03-0.03,1.83-0.89,1.8-1.91c0-0.03,0-0.06,0-0.09c0.07-0.93-0.63-1.74-1.56-1.81
		C123.16,54.91,123.08,54.91,123,54.92z M123.11,58.38c-0.75,0-1.08-0.87-1.11-1.71s0.32-1.39,0.91-1.39S124,55.88,124,57
		C124,57.75,123.68,58.37,123.11,58.38z"/>
	<path class="st0" d="M128.68,55l-1.35,0.13v0.29l0.6,0.13v2.34c-0.2,0.19-0.47,0.31-0.75,0.32c-0.5,0-0.74-0.28-0.76-0.88V55
		l-1.26,0.14v0.29l0.52,0.14v1.9c0,0.87,0.39,1.32,1,1.32c0.49-0.02,0.94-0.25,1.25-0.63l0.24,0.61l1.07-0.16v-0.28l-0.59-0.14
		L128.68,55z"/>
	<path class="st0" d="M131.78,54.92c-0.28,0-0.47,0.18-0.75,0.55l-0.28,0.37l0,0l-0.07-0.91l0,0l-1.09,0.37v0.24l0.49,0.11v2.52
		l-0.46,0.16v0.28h1.88v-0.28l-0.67-0.13v-2.06c0.14-0.19,0.31-0.35,0.5-0.49l0.63,0.23c0.16-0.14,0.25-0.34,0.27-0.55
		c0.03-0.2-0.11-0.39-0.32-0.42C131.87,54.91,131.82,54.91,131.78,54.92z"/>
	<path class="st0" d="M134.46,58.14c-0.77-0.06-1.34-0.72-1.28-1.49c0-0.01,0-0.03,0-0.04c0-0.74,0.42-1.33,1-1.33
		c0.15-0.01,0.3,0.02,0.42,0.11l0.11,0.74c0.09,0.01,0.19,0.01,0.28,0c0.22,0.01,0.41-0.16,0.42-0.38c0-0.02,0-0.04,0-0.06
		c0-0.43-0.46-0.78-1.11-0.78c-1.07,0.05-1.91,0.93-1.91,2c-0.08,0.9,0.58,1.69,1.47,1.77c0.06,0.01,0.11,0.01,0.17,0.01
		c0.61,0,1.17-0.37,1.41-0.93l-0.15-0.12C135.1,57.92,134.79,58.1,134.46,58.14z"/>
	<path class="st0" d="M138,58.11c-0.78,0-1.31-0.56-1.31-1.53h2.49c0-1-0.5-1.65-1.38-1.65c-1.04,0.04-1.85,0.91-1.81,1.95
		c0,0.04,0,0.08,0.01,0.12c-0.05,0.93,0.66,1.72,1.59,1.77c0.03,0,0.06,0,0.09,0c0.66-0.01,1.25-0.4,1.52-1l-0.15-0.11
		C138.78,57.95,138.4,58.11,138,58.11z M137.63,55.29c0.48,0,0.7,0.46,0.71,1h-1.62c0-0.51,0.38-0.94,0.88-1H137.63z"/>
	<path class="st0" d="M141.54,56.56l-0.34-0.15c-0.45-0.2-0.59-0.38-0.59-0.67c0-0.28,0.22-0.5,0.5-0.5c0.02,0,0.04,0,0.05,0
		c0.19,0,0.37,0.06,0.52,0.18l0.31,0.67h0.24v-0.93c-0.29-0.15-0.62-0.24-0.95-0.24c-0.68-0.08-1.3,0.4-1.38,1.08
		c0,0.48,0.25,0.76,0.78,1l0.33,0.15c0.54,0.24,0.7,0.45,0.7,0.74c0,0.31-0.26,0.56-0.57,0.55c-0.02,0-0.04,0-0.06,0
		c-0.22,0.01-0.44-0.07-0.61-0.22l-0.39-0.85h-0.28l0.13,1.09c0.3,0.18,0.65,0.28,1,0.29c0.72,0.07,1.36-0.44,1.46-1.15
		C142.43,57.18,142.21,56.85,141.54,56.56z"/>
	<path class="st1" d="M223,52.14c2-3.13,3.52-8.89,4.24-13.29c-1.31,1.59-2.84,2.99-4.54,4.15c-7.84,5.65-21.3,11-30.31,13.11
		l0.2,0.2l0,0l0.26,0.25l0.08,0.08l0.74,0.71l0.74,0.69l0,0l0,0l0.7,0.64h0.05l0.52,0.45l0.43,0.37c0.55,0.46,1.11,0.9,1.68,1.32
		c0.85,0.63,0.26,0.2,0.68,0.49s0.62,0.41,0.93,0.59h0.07c1.74,1.11,3.7,1.84,5.74,2.13c0.83,0.09,1.68-0.01,2.47-0.29l0,0
		l0.11-0.05l0,0l0,0H208C213.65,61.59,220.83,55.6,223,52.14z"/>
	<path class="st1" d="M199,63.05l-0.09-0.06c-0.31-0.18-0.63-0.39-1-0.61s-0.71-0.52-0.72-0.52c-0.58-0.43-1.16-0.89-1.72-1.36
		l-0.45-0.38l-0.53-0.46l-0.8-0.72c-0.46-0.42-1-0.89-1.61-1.52l-1.21-1.21C179.14,44.28,171,25.73,168.3,13.15
		c-1.92,1.35-3.58,3.05-4.89,5l-0.19,0.29l0,0l-0.09,0.13c-0.77,1.26-1.23,2.67-1.35,4.14l0,0c-0.09,9.37,6.47,25.69,11.91,32.46
		c1.5,1.72,3.33,3.14,5.38,4.16l0,0l0.31,0.15l0.19,0.09l0.15,0.07c6.84,3.16,17.57,5.05,23.12,5.12
		C201.5,64.34,200.21,63.77,199,63.05z"/>
	<path class="st1" d="M162.82,17c1.49-2.08,3.37-3.86,5.52-5.24c2.28-1.5,4.94-2.31,7.66-2.33c0.29,0,0.58,0,0.86,0
		c6.57,0.47,12,6.19,18.26,12.81c3.92,4.13,8,8.41,12.73,11.85c4.42,3.29,9.27,5.95,14.41,7.91c3.25-2.38,5.11-4.59,5.37-6.39v-0.16
		l0,0c0.09-1.59-0.7-2.71-3-4.22h-0.08l-0.12-0.12c-0.72-0.47-1.55-1-2.43-1.48c-4.84-2.76-9.36-6.06-13.47-9.82
		c-1.85-1.71-3.71-3.64-5.68-5.69C196.6,7.59,189.5,0.21,181.79,0h-0.24C174.59,0,165.88,8.25,162.82,17z"/>
</g>
</svg>
